<?xml version="1.0" encoding="UTF-8"?>
<svg id="_Слой_1" data-name="Слой_1" xmlns="http://www.w3.org/2000/svg" version="1.1" viewBox="0 0 1080 1080">
  <!-- Generator: Adobe Illustrator 29.1.0, SVG Export Plug-In . SVG Version: 2.1.0 Build 142)  -->
  <defs>
    <style>
      .st0, .st1 {
        fill: #1f4984;
      }

      .st1 {
        fill-rule: evenodd;
      }
    </style>
  </defs>
  <g>
    <path class="st1" d="M574.06,130.81c-3.86,3.62-11.56,9.15-23.84,11.04,1.87-12.29,7.39-19.97,11.02-23.82,1.09-1.15.27-3.03-1.32-3.03h-36.96c-1.58,0-2.4,1.88-1.32,3.03,3.63,3.85,9.16,11.54,11.03,23.84-12.3-1.87-19.98-7.39-23.84-11.03-1.15-1.09-3.03-.27-3.03,1.32v36.96c0,1.58,1.88,2.4,3.03,1.32,3.85-3.63,11.53-9.16,23.82-11.02-1.89,12.28-7.42,19.98-11.04,23.84-1.08,1.15-.26,3.03,1.32,3.03h37.01c1.58,0,2.4-1.87,1.32-3.03-3.62-3.86-9.15-11.55-11.04-23.82,12.27,1.89,19.96,7.42,23.82,11.04,1.15,1.08,3.03.26,3.03-1.32v-37.01c0-1.58-1.87-2.4-3.03-1.32Z"/>
    <g>
      <g>
        <path class="st0" d="M911.05,481.02c-9.46,4.79-64.9,30.77-135.92,21.15.72-3.38,1.34-6.82,1.88-10.23,47.27-5.67,85.69-13.68,110.17-27.32,27.93-15.55,40.11-52.63,26.05-80.21-.38-.69-1.38-.8-1.88-.23-7.74,8.89-56.28,61.71-132.77,78.11-.19-3.95-.58-7.93-1.07-11.84,37.15-21.06,73.43-45.35,90.67-67.53,26.12-33.56,23.72-76.35-1.15-98.18-.27-.23-.61-.31-.92-.27-.34.04-.65.23-.8.54-7.85,12.95-81.44,131.86-162.19,183.19-.99.61-1.99,1.26-2.98,1.84-2.3,1.42-2.57,4.4-.62,6.21,9.31,8.42,15.1,20.18,15.1,33.21,0,22.68-17.47,41.53-40.57,45.62-11.72,2.26-28.69,1.61-44.97-3.75-.72-.23-1.49.23-1.49.99v71.79c0,1.15,1.76,1.46,2.18.34,9.88-26.2,39.5-31.8,52.48-31.8,4.25,25.51,11.53,47,20.96,60.11,7.58-12.79,24.9-21.38,25.63-21.65-9.77-11.3-18.5-25.55-21.87-42.48,3.29-1.15,6.55-2.45,9.65-3.99,9.73,16.13,22.68,30.95,35.05,40.88,19.61-5.67,37.16-1.19,40.34,15.82,15.55.27,28.43-6.59,35.51-18.85.38-.65-.07-1.49-.88-1.57-16.47-1.3-67.03-15.82-88.56-51.14,2.45-2.26,4.86-4.64,7.12-7.12,22.52,17.16,54.4,32.33,77.19,35.4,26.7,3.64,56.93-4.91,57.66-35.93,0-.61-.54-1.15-1.19-1.11-9.5.57-72.33,3.29-117.07-22.38,1.57-2.94,2.98-5.98,4.33-9.04,0,0,67.61,15.98,99.67,10.69,31.84-5.25,50.49-29,46.89-58.54-.07-.65-.92-1.07-1.6-.73Z"/>
        <path class="st0" d="M529.39,855.63s-16.32,46.96-15.97,81.09c.15,15.9,23.87,26.74,27.39,28.27,4.33-1.61,27.81-12.91,27.66-28.8-.31-32.33-15.82-75.89-17.47-80.37-3.91,4.14-17.05,2.83-21.6-.19Z"/>
        <path class="st0" d="M488.09,845.75c-6.78-2.15-16.17-9.85-17.89-13.03-27.04,13.64-50.64,32.21-57.19,51.68-3.95,11.76,9.69,27.62,26.09,30.68.31.08.58,0,.84-.15.23-.15.42-.42.46-.73,5.13-28.69,26.36-52.94,47.69-68.45Z"/>
        <path class="st0" d="M497.94,852.03c-16.55,14.63-29.99,34.32-34.86,56.24-3.37,15.06,13.52,28.43,27.39,31.99.69.19,1.38-.31,1.42-.99,1.99-37.05,16.51-69.22,31.14-87.23.27-.31.04-.5-.58-.23-4.67,2.07-18.35,6.21-24.52.23Z"/>
        <path class="st0" d="M592.52,861.07s-9.92,1.3-15.79-6.43c-3.06,2.22-16.77-1.11-19.11-2.3,14.83,17.81,29.69,49.38,32.37,85.96.04.69.73,1.15,1.42.96,13.79-3.83,30.38-17.55,26.74-32.53-4.14-17.16-13.6-32.83-25.63-45.66Z"/>
        <path class="st0" d="M639.33,848.85c-7.58,10.19-23.25,5.9-23.33,5.9-2.11,2.83-7.43,3.41-7.43,3.41,15.25,14.33,28.19,32.87,32.41,54.05.07.31.23.54.5.69.27.15.54.23.84.15,16.32-3.37,29.69-19.5,25.44-31.22-4.21-11.69-14.71-22.99-28.43-32.98Z"/>
        <path class="st0" d="M680.05,416.01c-11.84-10.38-28.88-10.15-38.69-7.13,6.4-7.85,21.34-14.33,25.75-15.09,3.37,1.23,12.95,11.11,12.95,22.22Z"/>
        <path class="st0" d="M717.9,372.99c-7.78-41.68-104.7-14.06-153.5-31.8-.92,12.14,15.02,31.64,30.3,38.84-26.09,22.64-49.53,68.26-54.24,124-4.71-55.74-28.16-101.36-54.24-124,15.25-7.2,31.22-26.7,30.3-38.84-48.8,17.7-145.72-9.92-153.54,31.8-1.65,8.81,2.61,22.26,7.2,26.13.8-2.8,5.09-11.95,18.62-13.98,68.26-10.3,125.27,94.93,73.82,137.45-.77.66-.34,1.84.73,1.84h154.26c1.03,0,1.5-1.19.73-1.84-51.49-42.56,5.52-147.75,73.82-137.45,13.52,2.07,17.77,11.19,18.62,13.98,4.56-3.87,8.81-17.32,7.13-26.13Z"/>
        <path class="st0" d="M400.44,416.01c11.88-10.38,28.92-10.15,38.69-7.13-6.4-7.85-21.34-14.33-25.7-15.09-3.37,1.23-12.99,11.11-12.99,22.22Z"/>
        <path class="st0" d="M777.16,648.08c-.11-.11-.04-.31.11-.31.04,0,.08,0,.12-.04l.34-.34c.07-.07.11-.15.11-.23,0-.19-.15-.34-.34-.34h-.42c-.11,0-.23.03-.34.07l-.5.27c-.15.07-.38.03-.5-.08l-.5-.5c-.07-.08-.23-.04-.23.11,0,.08-.07.15-.15.15h-.03c-.12,0-.23-.15-.16-.27l.27-.58c.04-.07.07-.15.07-.27v-.77c0-.61-.23-1.22-.69-1.64-.19-.19-.38-.31-.61-.42l-.5-.27c-.08-.04-.15-.04-.23-.04h-.19c-.5,0-.69-.69-.23-.92.04,0,.07-.04.11-.08l.46-.38c.31-.27.54-.57.69-.92l.23-.46s.04-.07.04-.11c0-.15-.11-.27-.27-.23l-.57.08h-.15c-.31-.11-.31-.5,0-.61h.03s.04,0,.08-.04l.5-.31c.42-.27.42-.84.04-1.15-.04-.03-.08-.03-.11-.07l-.04-.04c-.23-.23-.38-.58-.38-.92v-1.76c0-.23-.19-.38-.42-.31-.03,0-.07.03-.11.03l-.15.12c-.19.15-.38.23-.61.27l-.15.04-.23.04c-.15,0-.31.03-.5.07l-1.19.31-.5.15c-.31.12-.62.16-.96.16l-1.84.03h-.27c-.73,0-1.46.34-1.88.92-.16.19-.27.38-.34.61l-.27.66c-.04.11-.15.23-.27.34l-.27.23s-.04.04-.04.08,0,.07.04.07l.34.27c.08.04.08.11.08.19,0,.15-.15.27-.31.23l-.5-.15c-.12-.04-.19-.07-.27-.15l-.31-.31c0,.31-.42.46-.58.73l-.07.11c-.08.15-.19.31-.34.42l-.31.31-.19.19c-.12.11-.08.31.11.34.04,0,.11,0,.15-.04l.15-.12c.15-.11.34-.15.54-.11l.65.15.58.23c.23.07.38.31.38.57,0,.34.27.62.61.62h.27s.08,0,.12.04l.23.11c.16.08.12.34-.07.34-.11,0-.19.08-.19.19v.42c0,.19-.15.34-.34.34-.08,0-.15-.03-.23-.11l-.03-.04c-.19-.19-.5-.19-.69,0-.08.08-.19.15-.34.15h-.66c-.31,0-.57-.27-.57-.57,0-.23-.12-.42-.31-.54l-.5-.27c-.08-.03-.16-.07-.23-.15l-1.49-1.11c-.19-.11-.38-.23-.62-.27l-.11-.03h-.08c-.23,0-.42.19-.42.42v.27c0,.15-.15.27-.31.23h-.04c-.08-.04-.12-.07-.12-.15,0-.04,0-.07-.03-.11l-.23-.31c-.11-.15-.31-.31-.46-.38l-.12-.08c-.34-.19-.76-.19-1.11-.11l-.31.08s-.08.03-.12.07c-.19.19-.07.46.15.54l.19.04c.27.04.34.34.15.54l-.27.27c-.34.34-.92.23-1.11-.19-.03-.04-.03-.11-.07-.15l-.04-.04c-.23-.23-.57-.27-.84-.04-.04.04-.07.04-.07.08l-.5.31c-.23.15-.57.12-.76-.07-.08-.08-.19-.15-.31-.15h-.08c-.15-.04-.31,0-.46.03l-1.03.42c-.11.04-.23.11-.34.19l-.88.61c-.23.15-.5.12-.69-.07-.11-.12-.23-.15-.38-.15h-.07c-.12,0-.23.03-.34.07l-1.27.62c-.31.15-.65.07-.88-.16-.03-.07-.11-.11-.19-.15l-.16-.07c-.42-.23-.96-.27-1.41-.12l-.34.12c-.23.07-.46.19-.65.31l-.34.23c-.5.34-1.11.5-1.69.5h-.96c-.31,0-.61.11-.84.34l-.08.07s-.11.08-.15.12l-.61.31c-.11.07-.27-.04-.27-.15,0-.12.08-.19.19-.19h.04c.11,0,.23-.12.23-.23s-.12-.23-.23-.23h-.15c-.08,0-.11,0-.19.04l-.58.27c-.19.11-.38.23-.53.38-.15.16-.34.31-.54.38l-.34.15c-.19.12-.42.15-.65.15h-.19c-.27,0-.54.12-.73.31-.11.11-.23.19-.38.27l-2.57.84s-.07.04-.11.04h-.11c-.16,0-.27.11-.27.27v.12c0,.23-.27.31-.42.15-.04-.04-.12-.08-.16-.08h-.11c-.15,0-.31.08-.42.19l-1.69,2.15-1.34,1.34c-.07.07-.15.11-.23.11h-.23c-.19,0-.31.27-.15.42.04.03.07.11.07.15v.03c0,.19-.15.34-.34.34h-.42c-.11,0-.23.04-.34.08l-.5.23c-.19.11-.38.23-.54.38-.15.15-.34.31-.54.38l-.65.34-1.34.88c-.08.04-.15.08-.19.11l-.15.04c-.54.19-.69.84-.31,1.27.07.07.11.11.15.19l.31.61c.07.15.11.34.11.5v.5c0,.38.31.69.69.69h.04c.15,0,.31-.07.38-.15.19-.19.46-.23.69-.08l1.11.69c.54.31.92.84,1.03,1.46l.15.76c.08.38.04.81-.15,1.19l-.11.23c-.04.11-.08.23-.08.34,0,.42-.34.77-.76.77h-.23c-.27,0-.54-.12-.73-.31l-.07-.07c-.34-.34-.88-.46-1.34-.31l-1.15.38c-.57.19-1.22.04-1.68-.38-.15-.15-.34-.27-.54-.34l-1.64-.69c-.23-.08-.5-.04-.69.15-.11.11-.19.27-.19.46v1.46c0,.42-.15.84-.46,1.15l-.04.04c-.27.27-.65.42-1.03.42-.23,0-.46.04-.65.15l-.27.12c-.27.11-.5.31-.69.5l-.73.72c-.27.27-.58.46-.92.58l-.69.23c-.11.04-.27.04-.38-.04l-.42-.19c-.15-.07-.34.04-.34.19,0,.08-.04.11-.08.15l-.76.77c-.08.07-.19.15-.34.15s-.34.11-.42.27l-.34.65s-.03.04-.03.08v.38s0,.03-.04,0h-.04l-.07.15s0,.04-.04.04l-.27.27c-.31.31-.38.76-.19,1.15l.12.19s0,.04-.04.04h-.19c-.11,0-.23-.11-.23-.23,0-.11-.11-.23-.23-.23-.12,0-.23.11-.23.23v1.11c0,.27-.34.34-.46.11,0-.04-.04-.04-.04-.08l-.15-.15c-.46-.46-1.15-.61-1.76-.42l-.11.04c-.19.07-.42.11-.61.11h-.19c-.81,0-1.53-.54-1.8-1.3-.04-.08-.07-.19-.11-.27l-.15-.34c-.46-.88-1.31-1.49-2.26-1.64l-2.72-.42c-.73-.11-1.46.04-2.07.42l-6.13,3.87c-.27.19-.54.38-.73.65l-1.64,2c-.27.31-.58.54-.92.72-.84.42-1.84.42-2.64,0l-.54-.27-1.19-.61c-.42-.23-.92-.34-1.42-.34h-1.46c-.11,0-.23,0-.34-.04l-1.34-.34c-.19-.04-.34.07-.34.27,0,.08-.03.15-.07.19l-.15.15c-.15.15-.34.23-.58.23h-.38c-.15,0-.31-.08-.42-.19-.19-.19-.23-.46-.12-.69l.19-.38c.08-.11.15-.23.27-.27.38-.19.46-.69.15-.99l-.27-.27s-.07-.07-.15-.11l-.23-.15c-.73-.5-1.61-.65-2.45-.42l-.54.15-.23.08c-.76.27-1.41.8-1.76,1.53l-1.31,2.61-1.76,3.14c-.04.08-.15.15-.27.15-.15,0-.31-.15-.31-.31v-.5c0-.11-.04-.19-.11-.27-.19-.19-.12-.5.11-.62l.42-.19s.11-.07.15-.11l.07-.07c.19-.19.19-.5,0-.69-.07-.08-.15-.19-.15-.34v-.19c0-.34.19-.65.5-.84l.34-.19c.08-.04.12-.08.15-.15.15-.27-.15-.58-.42-.42l-.08.04-2.26,1.38c-.07.04-.11.07-.15.11l-.38.38c-.23.23-.66.19-.81-.11-.11-.19-.07-.42.08-.58l.99-.99c.11-.11.31-.19.46-.19.12,0,.27-.04.38-.11l1.23-.84s.04,0,.04-.04c.19-.08.11-.34-.08-.34l-3.64.34s-.11,0-.15.04l-4.64,1.64c-.34.11-.68.19-1.03.19h-1.65c-.11,0-.19.04-.31.07l-.27.15c-.27.12-.31.5-.12.69.04.04.08.08.12.08l.07.04c.46.23.69.76.54,1.26v.04c-.11.34-.38.58-.69.69l-.23.08c-.42.15-.76.46-.96.88l-.58,1.38c-.07.19-.03.38.12.54.15.15.34.19.53.08.31-.15.66.07.66.42v.04c0,.11.03.23.15.34l.19.19c.07.08.15.19.23.31l.27.54c.07.15.11.31.11.5v.15c0,.34.19.62.46.77l.15.07c.19.12.34.31.34.54v.12c0,.27-.23.46-.46.46h-.19c-.15,0-.27.11-.27.27,0,.23-.31.38-.46.19l-.34-.34c-.08-.07-.19-.15-.34-.15h-.04c-.15,0-.31.08-.42.15l-.11.11c-.11.12-.31.19-.46.19-.38,0-.69.31-.69.69v.42c0,.8-.84,1.34-1.57.96l-.11-.03c-.12-.08-.23-.12-.34-.12l-1.31-.19c-1.11-.15-2.18.27-2.87,1.15l-.08.11c-.15.19-.34.38-.57.58l-.42.31c-.73.54-1.64.72-2.49.5-.31-.08-.62-.23-.88-.38l-.84-.54c-.11-.07-.23-.19-.27-.31l-.23-.42c-.08-.19,0-.38.15-.46l.07-.04c.23-.11.23-.46,0-.53-.19-.12-.42.03-.46.23l-.42,3.79-.46,5.02c0,.11-.07.23-.15.31l-.07.07c-.15.15-.42.15-.58,0l-.42-.42c-.07-.08-.23-.04-.23.11,0,.08-.08.15-.15.15h-.54c-.19,0-.34-.07-.46-.19l-.19-.19c-.08-.08-.12-.16-.12-.23,0-.19-.15-.34-.34-.34h-.61c-.31,0-.61-.15-.77-.42l-1.49-2.22c-.07-.15-.27-.23-.42-.23-.12,0-.23-.04-.34-.15-.19-.19-.19-.5,0-.69l.23-.23c.23-.23.31-.61.15-.92l-.19-.38s-.04-.04-.08-.08l-.34-.15c-.11-.04-.19.07-.11.15.03,0,.03.04.03.08v.23c0,.12-.03.23-.15.34-.19.19-.5.19-.69,0l-.5-.5c-.07-.07-.15-.19-.23-.31l-.08-.19c-.04-.07-.07-.15-.15-.27-.65,12.91-12.1,23.17-26.12,23.17h-28.12c-20.15,0-33.29,20.26-33.29,20.26,0,0-13.14-20.26-33.29-20.26h-28.12c-14.44,0-26.16-10.88-26.16-24.33v-1.19c-.11.04-.23.12-.31.19l-.19.19s-.08.04-.11.04c-.15,0-.23-.19-.11-.31l.11-.12s.08-.11.08-.15v-.27c0-.34-.19-.65-.5-.84l-.38-.19s-.11-.04-.15-.04h-.31c-.23,0-.31-.27-.15-.42.04-.03.08-.11.08-.15v-.03c0-.19.15-.34.34-.34h.42c.11,0,.23.03.34.07.27.15.57.12.84-.04v-2.94c-.15-.04-.34-.04-.5,0l-1.53.31c-.23.04-.31.34-.15.5.04.04.08.11.08.19v.15c0,.38-.31.69-.69.69-.19,0-.34-.08-.46-.19l-.11-.11c-.12-.12-.15-.27-.15-.42v-.11c0-.08.04-.15.12-.23.19-.19.11-.46-.12-.54l-.8-.27c-.08-.04-.19-.04-.27-.04h-1.46c-.19,0-.38-.07-.5-.23-.15-.15-.38-.23-.65-.19l-1.92.34c-.34.07-.69.07-1.03,0l-2.22-.38s-.11-.04-.11-.08l-.19-.19c-.08-.07-.23-.03-.23.12,0,.07-.08.15-.15.15h-.12c-.11,0-.23.11-.23.23v.19c0,.23-.34.31-.46.12-.04-.04-.08-.08-.12-.12l-.8-.38c-.08-.04-.11-.08-.15-.12-.23-.23-.61-.27-.84-.04l-1.42,1.07-.42.42c-.88.88-2.18,1.15-3.33.69l-.11-.04c-.23-.08-.46-.23-.65-.38l-.46-.38c-.65-.5-.92-1.38-.65-2.14.04-.08.08-.15.11-.23l.12-.19c.19-.42.19-.88,0-1.26-.34-.69-.08-1.57.61-1.92l.46-.23c.08-.03.19-.07.27-.11l.31-.11c.61-.19,1.26-.12,1.84.19l.73.42c.46.27,1,.19,1.38-.15l.23-.23c.08-.07.11-.15.11-.23v-.12c0-.11.11-.23.23-.23s.23-.12.23-.23v-1.88c0-.46-.15-.92-.46-1.3l-.73-.96c-.15-.19-.34-.38-.58-.57l-.88-.66c-.42-.34-.77-.8-.96-1.34l-.19-.57s-.04-.08-.08-.12c-.15-.15-.42-.03-.42.19v2.53c0,.38-.19.77-.46,1l-2.34,1.95-1.23.99c-.69.58-1.11,1.42-1.11,2.3s-.42,1.76-1.15,2.33l-.73.54-.38.38c-.38.38-.57.88-.57,1.42l-.84.34-.88.68c-.15.16-.42-.03-.31-.27.04-.07.04-.19-.04-.23l-.42-.42c-.23-.23-.15-.58.11-.73.23-.11.31-.38.23-.58l-1.53-3.44c-.08-.15-.23-.27-.42-.27-.11,0-.23.04-.31.12l-.11.11c-.15.15-.34.23-.57.23h-.69c-.27,0-.54.03-.77.11l-.31.11c-.46.15-.96.12-1.42-.11l-.15-.08c-.08-.03-.15-.11-.23-.15-.23-.23-.57-.31-.88-.19l-.61.19c-.19.08-.42.12-.61.12h-.57c-.69,0-1.34.23-1.88.65l-.19.15c-.54.42-.92.99-1.11,1.68l-.23.84-.38,1.57c-.04.19-.19.31-.38.31-.11,0-.19-.04-.27-.11l-.61-.62c-.08-.07-.23-.03-.23.12,0,.07-.08.15-.15.15h-.23c-.08,0-.12,0-.15-.04l-.27-.11c-.38-.19-.69-.54-.8-.96l-.15-.42c-.08-.23-.19-.46-.31-.65l-.57-.88c-.11-.15-.23-.27-.42-.38l-.58-.27c-.08-.03-.19-.03-.23.04l-.08.08c-.11.11-.31.04-.31-.12,0-.03,0-.07.04-.11l.27-.27c.11-.12.27-.15.42-.15.38,0,.65-.34.58-.69l-.27-1.27c-.04-.23-.15-.46-.31-.69l-.42-.54c-.46-.61-1.26-.76-1.95-.46-.46.23-.8.69-.84,1.19l-.31,2.53c-.04.19.15.38.34.38.04,0,.12,0,.15.04l.08.03c.42.19.57.73.31,1.11l-.38.58c-.04.07-.11.15-.19.23l-1,.99c-.19.19-.5.19-.69,0l-.04-.03c-.08-.08-.15-.12-.23-.12h-.23c-.08,0-.11.04-.11.12,0,.11-.15.15-.19.07l-.77-1.11-.69-1.31c-.08-.15-.04-.34.08-.5.08-.07.11-.19.11-.31v-.42c0-.23.04-.46.15-.66l.19-.38c.08-.16.11-.34.11-.5v-.68c0-.27-.23-.46-.46-.46-.27,0-.46-.23-.46-.46v-1.23c0-.42.15-.84.46-1.15l1.65-2.07c.11-.15.23-.34.34-.54l.27-.54c.04-.07.08-.15.11-.27l.34-.99c.04-.16.23-.27.38-.27.11,0,.23.04.31.11.19.19.5.19.69,0l.84-.84c.08-.07.23-.03.23.12,0,.07.08.15.15.15h.11c.11,0,.23-.08.27-.23l.38-2.14c.04-.31.04-.62-.08-.88l-.61-1.76c-.11-.31.12-.61.46-.61s.58-.38.42-.69l-.54-1.11c-.04-.07-.04-.15.04-.23l.04-.04s.04-.15,0-.19c-.04-.04-.08-.04-.12-.04h-.27c-.08,0-.19-.04-.23-.11l-.19-.19s-.08-.11-.04-.19c0,.04,0,.08.04.11l.19.19c.08.08.15.12.23.12h.11c.12,0,.27.03.34.15.11.11.34.04.34-.15v-1.27c0-.11.04-.23.08-.31l.34-.73c.04-.07.04-.11.04-.19,0-.46.61-.61.8-.19l.08.15s.04.12.04.19v.15c0,.12-.11.23-.23.23s-.23.11-.23.23v1.61c0,.31.23.54.54.54.23,0,.46.19.5.42l.34,1.64c.04.11-.08.27-.19.27s-.23.07-.23.23v.12c0,.07.04.19.11.23l.27.27c.08.07.15.11.23.11.19,0,.34.15.34.34v1.49c0,.34.11.73.31.99l.65.96,1.42,1.88,1.42,2.33.34.69c.38.73,1.03,1.3,1.84,1.53l2.8.84c.46.15.92.15,1.42.08l1.76-.31c.23-.04.42-.12.65-.19l1.8-.73c.15-.04.27-.15.34-.23.19-.19.31-.5.31-.76v-.04c0-.31.12-.61.34-.8l.42-.42c.11-.11.23-.23.31-.38l.34-.54c.27-.42.31-.99.08-1.45l-.04-.08c-.04-.07-.11-.15-.15-.23-.23-.23-.31-.58-.19-.88l.61-1.84c.08-.27-.11-.54-.38-.54-.23,0-.38-.19-.38-.38v-2.37c0-.08-.04-.11-.08-.15l-.34-.34s-.04,0-.04.04c0,.03-.04.03-.08,0l-.42-2.88v-4.9c0-.19-.04-.38-.11-.57l-.31-.62s-.08-.07-.15-.07c-.15,0-.19-.16-.11-.27l.08-.07c.08-.08.08-.19,0-.27l-.23-.23c-.08-.07-.12-.15-.12-.23,0-.19-.15-.34-.34-.34h-.23c-.23,0-.46-.15-.54-.38l-.31-.92c-.04-.07-.08-.15-.11-.27l-.23-.46c-.11-.23-.31-.46-.57-.58l-.19-.07c-.23-.12-.54-.12-.77,0l-.34.19c-.11.08-.27.04-.38-.07-.15-.15-.12-.42.08-.5l.46-.23c.08-.04.12-.07.19-.11l.5-.5c.19-.19.15-.5-.11-.62l-.12-.07c-.15-.08-.19-.31-.08-.46.11-.11.11-.31,0-.38l-.27-.23s-.04-.04-.08-.04l-.54-.27c-.11-.04-.08-.19.04-.19t.08-.04l.11-.11c.19-.19.19-.5,0-.69l-.08-.08s-.04-.07-.04-.11c0-.15.19-.23.31-.11l.57.57s.11.12.19.12h.04c.54.19,1.03-.31.84-.84l-.04-.16-.38-1.45c0-.08-.11-.04-.11,0s-.04.04-.04.04h-1.07c-.08,0-.15.07-.15.15,0,.11-.15.19-.23.11l-.15-.15s-.08-.11-.08-.15v-.19c0-.11-.04-.23-.08-.34l-.38-.76v-.08c0-.15-.19-.23-.31-.11l-.11.11s-.08.11-.08.15v.04c0,.19-.15.34-.34.34h-.5c-.08,0-.15-.04-.19-.11l-.31-.73s-.08-.04-.08,0v.04l-.42.31c-.31.23-.73.31-1.07.15l-.84-.34-.46-.15c-.31-.11-.65-.04-.92.15-.04.04-.08.07-.15.07l-.34.19c-.31.15-.65.08-.84-.23-.11-.15-.27-.27-.46-.31h-.15l-.34-.04c-.31-.04-.61.19-.61.54,0,.19-.11.38-.31.46l-1.07.54c-.34.15-.61.42-.84.69l-.65.84c-.31.38-.46.84-.46,1.3,0,.15,0,.31-.04.42l-.42,2.1-.19.73c-.19.69-.69,1.27-1.38,1.49-.23.08-.46.12-.69.12h-.61c-.57,0-1.15.19-1.61.57l-2.07,1.68s-.04.08,0,.12t0,.07l-1.26,2.84c-.11.23-.23.46-.42.69l-1.07,1.34c-.34.42-.88.69-1.42.69-.34,0-.73.11-1,.31l-.88.58c-.08.04-.12.07-.19.07h-.04c-.19,0-.34.15-.34.34,0,.08-.04.19-.11.23l-.19.19c-.11.11-.27.19-.42.27l-.58.19c-.42.11-.73.46-.84.84l-.19.54c-.04.15,0,.31.11.42.15.15.15.42,0,.57l-1.19,1.19c-.27.27-.46.62-.54.96l-.04.19c-.19.69-.69,1.26-1.38,1.49l-.11.04c-.15.03-.31.07-.42.07-.69,0-1.26.5-1.38,1.19l-.31,2.11-.19,1.49c-.15,1.34-1.23,2.41-2.57,2.65l-3.83.61-6.32.46s-.04,0-.04-.03c0,0,0-.04-.04-.04h-2.99c-.19,0-.38,0-.58-.04l-1.99-.38c-.12-.03-.27,0-.38.04-.38.19-.46.69-.15.99l.11.12c.15.15.34.23.54.23h.54c.08,0,.11.04.15.08l.11.11c.11.11.04.31-.11.31-.04,0-.08,0-.12.04l-.34.34c-.08.08-.12.15-.12.23v.11c0,.11-.11.23-.23.23s-.23.11-.23.23v1.35c0,.19.04.38.11.57l.31.65s.04.04.08.04c.11,0,.11.15.04.15l-.96.23s-.08.04-.11.11c-.04.12-.15.15-.27.08l-.38-.38c-.12-.11-.34-.11-.46,0-.12.11-.34.11-.46,0l-.84-.84c-.19-.19-.5-.19-.69,0l-.04.04c-.08.07-.15.11-.23.11-.19,0-.34-.15-.34-.34v-.23c0-.19-.15-.38-.38-.38-.11,0-.23.07-.31.15l-.19.27s-.04.04-.08.08l-.54.38s-.04.08.04.08c.04,0,.08.04.04.08l-.34.53c-.11.19-.34.27-.54.16l-.19-.12c-.19-.11-.42-.11-.65,0l-.34.19c-.11.08-.19.08-.31.08h-.65l-.04.03-.8,1.11c-.11.19-.27.34-.46.5l-.34.31c-.31.27-.73.42-1.15.42h-.34c-.31,0-.57.15-.77.38l-.12.15c-.19.23-.19.57-.04.84.04.03.04.07.04.07.12.27.12.58,0,.84l-.31.58c-.11.23-.42.31-.61.15-.15-.11-.23-.31-.15-.5l.08-.15.08-.31c.04-.08-.04-.15-.11-.15s-.12.03-.12.11l-.04.11c-.04.15-.15.23-.31.23h-.04c-.11,0-.23-.04-.27-.15l-.04-.04c-.15-.19-.38-.23-.58-.11l-.38.23c-.08.04-.19.08-.31.08h-.38c-.11,0-.23.11-.23.23v.15s.04.07.08.07.08.04.08.11l-.04.34v.08l-.19.61c-.19.54-.5,1-.88,1.35l-.31.27c-.12.08-.23.15-.38.23l-.54.23c-.27.12-.42.38-.34.66.04.31-.08.61-.27.84l-.88,1.07-1.38,1.65c-.11.15-.15.31-.15.5,0,.11.08.27.15.34l.27.31.19.19c.19.19.23.46.15.69v.04s-.04.07-.04.11v.15c0,.15.11.27.27.27.08,0,.15.04.23.12l.23.38c.19.31.23.65.12.99l-.34.88s-.04.03-.04.07c-.15.19,0,.46.23.46.08,0,.15.04.23.12l.11.11c.12.15.31.23.5.23h.04c.31,0,.54.19.65.46l.54,1.49c.08.27.15.54.15.81v.46c0,.07,0,.11.04.19.08.15.04.38-.11.5l-.31.23-1.03.96-1.23,1.23c-.11.11-.31.19-.46.19-.34,0-.65.27-.65.61v.38l.08.34s.04.07.08.07.08.04.08.08v.15c0,.15-.12.27-.23.27h-.04c-.08,0-.15.04-.19.08l-.23.23c-.11.11-.19.19-.23.34l-.15.34c-.11.27-.19.57-.23.84l-.08.5c-.04.34-.04.69.04.99l.08.31c0,.08.04.19,0,.27-.04.23-.12.42-.27.57l-.23.23-.19.19c-.19.19-.27.46-.11.72.04.04.08.08.11.12l.08.07c.23.23.38.54.42.84l.08.58c.04.23-.04.42-.19.58-.15.15-.23.34-.19.57l.04.54v.12c-.04.11-.15.23-.31.23h-.5c-.15,0-.34-.04-.5-.11l-.42-.23c-.19-.07-.38-.15-.57-.15-.42,0-.84-.23-1.03-.61l-.19-.34c-.19-.31-.46-.54-.8-.65l-.5-.16c-.27-.07-.54,0-.73.19-.08.12-.15.23-.15.34l-.08.62c0,.07-.04.19-.08.27l-.11.19c-.04.08-.15.15-.27.15s-.19.04-.27.11l-.61.84-.65.81c-.08.07-.12.19-.19.31l-.34.73s-.08.07-.11.07c-.12,0-.15.12-.08.19l.15.19s.08.11.04.19l-.04.11c-.04.12.08.23.19.23h.08l.8.31c.23.08.46.08.69-.04l.11-.07c.27-.15.58-.08.77.15.08.07.11.15.15.23l.08.19c.11.38.38.73.77.92l.34.19.31.19c.31.19.54.42.77.69l.42.5c.27.34.42.73.46,1.15v.11c.04.42-.08.85-.31,1.23-.15.27-.27.58-.31.88l-.04.54c0,.15-.08.27-.19.38l-.08.07c-.15.15-.38.19-.57.08l-.11-.04c-.23-.11-.5,0-.57.23v.04c-.08.31-.23.53-.46.72-.5.38-.61,1.07-.31,1.61l.27.5.84,1.07c.15.23.23.5.15.72v.04s0,.04-.04.04l-.15.31c-.04.08,0,.15.08.15.04,0,.08.04.11.08l.08.23c.04.08-.04.16-.11.16-.04,0-.08.03-.12.07l-.11.23-1.3,2.14c-.23.38-.15.88.23,1.15l.34.34c.38.38.69.88.8,1.42l.04.12.31.88s.04.08.04.15c.04.23.19.46.42.54l1.11.34s.08.04.11.04l1.34.84s.04.08-.04.08t-.04.03l-.31,1.65c-.04.11-.04.23-.04.34v.96c0,.19.08.38.23.5l.15.12c.11.11.31.11.42,0,.19-.15.5-.08.54.19l.38,1.22c.04.12.08.19.11.27l.88,1.45-.69-.72c-.19,0-4.41,1.34-5.36,1.34s-3.26,1.15-3.83,1.15-2.11-1.15-3.06-1.15-1.53,1.15-1.72,1.72c-.19.57-1.34,0-1.92,0s0,1.53-.96,1.15c-.96-.38-.38-1.34-.38-2.49s-1.53-3.63-1.92-3.63-1.72,3.26-2.3,1.92c-.57-1.35-1.53-.77-1.72-1.35-.19-.57-.96-1.91-1.15-2.49-.19-.58-1.15-1.72-1.34-.58-.19,1.15-.58.58-.96.58s-2.11,1.34-2.11,1.72-.96.38-1.34.19c-.38-.19.57-2.87-.19-2.87-.65,0-1.53,1.45-1.84,2.03.15-.54.42-1.72.31-1.84-.19-.19-1.34,2.3-1.72,1.72-.31-.46-.77-.19-.96,0,.12.27.38.92.38,1.53s.88,1.8,1.34,2.3c.11,0,.34.23.57.58-.04.07-.04.11-.04.19.04.27-.27.46-.5.27l-.77-.65c-.08-.08-.19-.12-.31-.15l-1.95-.42c-.08,0-.19-.04-.27-.04l-1.57-.07c-.23,0-.42.19-.38.42,0,.12.08.19.19.27l.38.23c.27.15.46.38.57.66l.65,1.68c.08.19.04.38-.08.54l-1.03,1.53-.92.42c-.27.11-.42.46-.34.77l.15.65c.08.34.31.65.57.84l.73.54v.04s0,.03.04.03l1.65-.03c.19,0,.34.03.54.07l1.26.38,2.07.76c.11.04.27.08.38.08h.08c.5.04.96.38,1.15.84.08.23.23.38.38.54l1.15.96c.27.23.69.15.88-.15v-.04c.12-.15.27-.27.46-.27.46,0,.69-.5.42-.88l-.31-.42c-.11-.16-.27-.27-.46-.31l-.23-.03c-.19-.04-.34-.19-.42-.42-.08-.27-.31-.46-.61-.42h-.34c-.42-.11-.69-.5-.65-.96l.11-1.19c0,.11.04.23.08.31.5-.76,3.22-3.26,3.83-3.26.77,0,.96,1.15,2.11,1.15s2.3,2.29,3.06,2.29.57,1.34,1.53,1.15c.96-.19,2.11.38,2.11.58s1.15,1.92,2.3.96c.77-.65,1.26-.88,1.46-.96-.19.27-.15.65.15.84.04.04.08.08.11.11l.11.12c.19.19.38.34.65.42l1,.34.84.38c.12.08.19.19.15.34v.08c0,.07-.11.15-.19.15s-.15.03-.19.11l-.15.42c-.08.15-.31.19-.38.03-.04-.07-.11-.11-.19-.11h-.19c-.12,0-.19-.04-.27-.08l-.65-.34c-.08-.03-.11-.03-.19-.03h-.46s-.08-.04-.08-.12c0-.03,0-.07-.04-.07l-.34-.31c-.08-.08-.19-.12-.31-.12h-.08c-.23,0-.42.19-.42.42v.11l-.12.38-.04.04h-.04l-.31-.34c-.08-.08-.12-.15-.15-.23v-.04c-.12-.19-.27-.38-.42-.5l-.19-.15c-.11-.08-.27-.11-.42-.11-.23,0-.46-.12-.61-.34l-.08-.15c-.11-.15-.34-.08-.34.11v2.22l.11,1.88c0,.11-.15.15-.19.04,0-.04-.04-.04-.08-.04h-.04c-.08,0-.15-.08-.15-.15l-.04-.8c0-.19-.23-.31-.38-.19l-.23.19-.42.31c-.12.07-.27,0-.27-.12v-.11s.04-.07.08-.07.08-.08.04-.12l-.15-.23c-.08-.08-.19-.12-.27-.08l-.73.38-.46.27c-.27.15-.54.23-.84.23h-.19c-.27,0-.5.07-.69.23l-.08.03c-.15.12-.34.19-.57.19-.19,0-.38-.07-.54-.19l-.96-.69c-.08-.03-.11-.11-.15-.15l-.31-.54c-.15-.27-.54-.19-.57.12v.07c.04.15-.15.31-.31.23l-.34-.19s-.12-.04-.15-.04c-.27,0-.42.27-.27.5l.23.38s.04.11.08.15l.31,1.23c.08.38.08.77-.04,1.11-.08.27-.12.53-.12.84l.04.34c0,.11.08.23.11.34l.12.15c.08.11.19.15.31.15.19,0,.38.15.38.38l.04,1.07v.34c-.04.38.04.81.19,1.19l.65,1.88c.08.23.15.5.15.77l.27,2.91.08,2.76c0,.57.46.99,1.03.99.34,0,.69.19.88.46l.31.5.38.46.04.03h.11s.04.04,0,.04v.04l1.46,2.91c.11.23.27.46.46.69l1.15,1.26c.65.69,1.72.77,2.45.19l.5-.38s.04,0,0,.03l-1.34,1.03c-.27.19-.31.58-.11.81l.77,1.11c.11.19.23.38.27.61l.5,1.76c.04.15.19.27.34.27.11,0,.19.03.27.11l.04.07c.15.19.42.23.61.16l.73-.31.5-.23c.34-.15.73-.04.92.23l.27.46v.03h-.04l-.27-.46c-.23-.27-.61-.38-.92-.23l-.5.23-.73.31c-.23.08-.46.04-.61-.15l-.08-.11s-.12-.08-.19-.08c-.15,0-.27.15-.23.31l.58,1.88c.04.07.04.19.04.31.04.5.34.92.8,1.07l.61.23,1.65.46.11.38v.15c-.04.19.12.38.31.38h.08c.11,0,.23.04.31.15l.42.5c.15.19.27.42.34.65l.15.58c.08.31.23.58.42.77l.04.03c.08.08.15.16.19.27v.04c.23.42.77.61,1.23.38.12-.07.27-.07.42-.07h.61c.15,0,.31.07.42.15l.31.31s.04.04,0,.08c0,.03-.04.03-.08,0l-.34-.31c-.08-.07-.19-.11-.27-.11h-.5c-.27,0-.5.04-.73.15l-.31.15c-.23.12-.46.23-.65.42l-.11.11c-.11.08-.19.19-.27.31-.38.5-.46,1.15-.23,1.69l.46,1.15c.08.19.19.38.31.54l.65.96c.27.42.46.88.5,1.38l.23,2.14c.04.27.08.5.19.77l.61,1.61c.19.5.69.84,1.23.84.15,0,.31-.04.46-.08l.5-.19c.34-.15.73-.19,1.11-.19h.42c.42,0,.8-.11,1.15-.34.54-.38.88-.99.88-1.64v-3.18l.34-3.06c.08-.77.46-1.46,1.03-1.96l1.65-1.42c.08-.07.19-.15.31-.19l.73-.31c.15-.07.23-.23.15-.38-.04-.11-.15-.19-.27-.19h-.08c-.23,0-.42-.19-.38-.46l.11-.99.11-.92c.04-.34,0-.65-.08-.96l-.23-.76c-.19-.66.11-1.31.69-1.61l.8-.38s.11,0,.15.04t.08.04h.31c.12,0,.19.04.27.11.11.15.38.19.5,0v-.04c.08-.07.15-.11.27-.11.08,0,.15-.04.19-.08l1.03-.65c.23-.15.5-.27.77-.34l.96-.27c.15-.04.27-.15.34-.27l.11-.19c.04-.07.12-.11.19-.11h.23s.04,0,.04.04,0,.04.04.04h.19c.11,0,.23.11.19.23-.04.12.08.23.19.23h.04c.08,0,.15-.04.19-.11l.04-.04c.11-.15.31-.23.5-.11l.96.65c.08.07.15.15.15.27l.04.27s0,.03.04.03h.04l.46-.42s.08-.04.11-.04h.08s.08.04.08.11c0,.08.08.16.15.08l.12-.15.15-.15c.15-.15.42-.12.54.07.04.08.04.15.04.23v.15c0,.15-.08.27-.15.38l-.23.27v.04c-.04.11.12.23.19.15l.77-.65,1.15-.84c.12-.08.23-.15.38-.19l1.15-.38s.08,0,.08.04c.04.08.11.04.11-.04l-.69-3.1c-.04-.11.04-.19.15-.19.04,0,.11.03.15.07l.34.54c.11.19.34.31.57.31.34,0,.61-.23.65-.57l.34-2.49c.04-.15.04-.31.04-.42v-2.26c0-.81-.31-1.61-.88-2.18l-.04-.04-.54-.69c-.12-.15-.34-.15-.46-.04-.12.11-.31.11-.46,0l-.08-.08c-.11-.11-.15-.27-.11-.42l.23-.8c.08-.23.19-.46.34-.66.34-.42.5-.96.42-1.49l-.04-.42c0-.12-.04-.23-.08-.34l-.19-.62c-.11-.38,0-.84.31-1.11.34-.31.46-.81.27-1.23l-.08-.19s-.04-.07-.04-.11l-.27-.84s0-.04.04-.04h.04l.27.84s.04.11.08.15l.04.08c.23.46.77.65,1.23.42.08-.04.15-.11.23-.15l.08-.08c.19-.19.46-.31.73-.31h.19c.46,0,.8-.38.8-.8,0-.08,0-.19.04-.27l.15-.42c.19-.58.54-1.07,1.03-1.45l.54-.42c.38-.27.8-.5,1.26-.58l1.42-.27c.15-.04.31-.11.42-.23.38-.38,1-.31,1.26.15l.61,1.03c.15.23.23.54.23.81v.46c0,.92.92,1.53,1.8,1.19.34-.15.61-.42.73-.8l.69-2.11c.04-.11.15-.19.27-.19.15,0,.27.11.27.27v.07c0,.08.04.19.11.23l.15.15c.15.15.34.23.58.23h1.57c.31,0,.61-.12.84-.34.08-.08.15-.19.19-.27.23-.46.77-.69,1.26-.58l2.18.58c.46.11.92.08,1.34-.15l.88-.42c.23-.11.5-.07.69.12l.04.04c.08.07.23.15.34.15.15,0,.31.07.42.23l.27.46c.11.19.19.42.19.61,0,.38.19.73.5.96l.46.31c.31.19.65.31,1,.31h.42c.77,0,1.38.61,1.38,1.38,0,.61.38,1.11.96,1.3l.11.04c.23.08.46.19.61.38l.38.38c.19.19.38.46.5.68.19.38.27.77.27,1.19,0,.23.04.42.08.65l.77,3.02c.08.23,0,.5-.19.65l-.08.08c-.08.07-.15.19-.15.34,0,.34.38.57.69.42l.11-.04c.12-.03.19-.15.23-.23l.15-.34c.11-.23.42-.27.61-.11.08.07.15.11.23.11.19,0,.34.15.34.34v.69c0,.27.12.54.31.73l.5.5c.12.11.19.23.27.34.23.46.69.76,1.23.76.34,0,.73-.15.96-.38.34-.34.84-.46,1.3-.34l.8.19c.19.04.38.12.57.23l1.03.54c.34.19.65.46.84.84l.15.31s.04.11.04.15c0,.23.19.38.38.38h.38c.11,0,.23-.04.34-.08l.08-.03c.42-.23.96-.12,1.3.19l.15.16c.15.15.38.23.58.23.34,0,.69.23.8.58l.15.46c.08.27.08.54-.04.8-.19.34-.15.77.08,1.07l1.49,2.15c.31.42.77.65,1.26.65h.34c.19,0,.38-.08.54-.23l.08-.07c.31-.31.84-.23,1.03.15v.04c.04.07.04.15.04.23,0,.23.12.42.31.5l1.57.69c.84.38,1.84.23,2.57-.38.96-.76,1.15-2.14.54-3.18l-.31-.5-1.23-1.61c-.08-.11,0-.27.11-.27.08,0,.15-.08.15-.15v-.23c0-.07,0-.11-.04-.15l-.34-.73c-.04-.11-.08-.23-.08-.34v-.57c0-.12-.08-.19-.19-.19h-.23s-.08-.04-.04-.08l.04-.03h.23l1.23.31c.38.11.8.11,1.19,0l.15-.04c.69-.19,1.26-.69,1.49-1.38l.04-.08c.04-.15.08-.34.08-.53v-.34c0-.23.08-.42.23-.58l.08-.08c.11-.11.27-.15.42-.15s.31-.07.42-.15l.08-.07c.15-.15.31-.23.5-.23.11,0,.23.04.34.08l1.69.88c.38.27.84-.15.65-.57l-.15-.34-.46-.69c-.31-.42-.23-.99.15-1.38l.27-.27s.08-.07.15-.07c.23,0,.27-.31.08-.38l-.15-.07s-.04-.04-.08-.04l-.65-.65c-.11-.12-.04-.31.12-.31.04,0,.08,0,.11-.03l.77-.77c.08-.07.08-.19,0-.27-.11-.12-.04-.34.15-.34h1.11c.19,0,.34.15.34.34,0,.07.04.19.11.23l.19.19c.11.12.27.19.42.27l1.11.38c.08.04.15.04.19.08l.61.31c.15.08.27.23.27.42,0,.11.04.23.15.34.19.19.5.19.69,0,.08-.08.23-.15.34-.15h.8c.27,0,.54.03.8.15l1,.34,4.29.88c.27.03.54.15.77.27l.5.27s.11.08.15.12c.23.23.57.23.8,0l.27-.27c.19-.19.42-.27.69-.27h.31c.19,0,.34.04.54.07l.92.31c.15.03.34.15.46.27.19.19.42.31.69.34l3.37.42,3.03.38c.46.08.92-.11,1.23-.42l.23-.23c.15-.15.31-.23.54-.23.12,0,.23.04.34.08l.42.19c.23.11.5.07.69-.11l.04-.04c.08-.08.19-.12.31-.12h.19s.08,0,.08.04.04.04.08.04h.27c.08,0,.15-.08.15-.15,0-.11.15-.19.23-.11l.15.15s.08.11.08.15v.04c0,.19.15.34.34.34h.04c.08,0,.11,0,.19.03l.5.23c.27.11.5.31.69.5l.5.5c.11.12.19.23.27.34l.12.23c.15.31.46.5.84.5h.23c.11,0,.19-.04.27-.11.15-.16.46-.16.58.07l.34.54c.12.19.19.46.12.69l-.38,1.88v.88c0,.07.08.15.15.15.11,0,.19.15.11.27l-.88,1.15c-.19.27-.23.61-.08.92l.11.27c.08.11.15.23.27.34l.61.61c.12.11.27.15.42.15s.31-.07.42-.15l.19-.19c.08-.07.15-.11.23-.11h.12c.11,0,.23.11.23.23,0,.11.11.23.23.23s.23-.11.23-.23v-.16c0-.07.04-.11.08-.15.15-.15.42-.03.42.15v1.96c0,.34.38.58.69.42l.15-.08c.08-.04.11-.11.11-.19,0-.15.15-.27.31-.19l.57.27c.08.03.12.07.15.11l1.15,1.15c.12.12.31.19.46.19h.34c.19,0,.34.15.34.34,0,.08-.04.19-.11.23l-.08.07c-.19.19-.46.23-.69.12l-.04-.04c-.31-.15-.65-.04-.84.23l-.42.61c-.11.19-.15.46-.04.69.15.34.57.46.92.31.23-.11.46-.07.65.04l1.8,1.11c.15.08.31.12.46.12s.27-.04.42-.12l1.19-.61c.31-.15.65-.23,1-.23h.23c.42,0,.84-.15,1.15-.46l.31-.31c.11-.12.27-.19.46-.19h.61s.04,0,.04.04c0,0,0,.03.04.03h1.49c.27,0,.5-.11.69-.27l.34-.34c.19-.19.5-.19.69,0,.08.08.23.15.34.15.46,0,.69.54.38.88l-.04.04s-.08.07-.15.11l-.04.04c-.46.23-.65.76-.42,1.23l1,1.99,1.84,3.3,3.06,15.71c.11.58.69.96,1.3.8l.38-.11c.23-.08.42-.27.42-.54v-.08c0-.27.23-.46.46-.46h.15c.19,0,.34-.15.34-.34,0-.07.04-.19.11-.23.19-.19.5-.11.57.12l.77,1.84.31.61c.38.77,1.11,1.35,1.95,1.57l.19.04c.23.04.42.11.61.23l.34.15c.23.11.46.15.69.15h1.3c.12,0,.23-.11.23-.23,0-.11.11-.23.23-.23h.96c.15,0,.27-.04.38-.15.19-.19.46-.19.69-.04l1.11.84c.27.19.46.42.61.73l.5.99c.15.27.42.42.73.42h.73s.08.04.08.08-.04.07-.08.07h-.5c-.42,0-.69.42-.54.81l.54,1.34c.04.11.11.27.19.34l1,1.26c.19.27.38.58.46.88l.73,2.15c.04.15.15.31.27.42l.08.08c.15.15.31.23.54.23.11,0,.23.04.34.08l.65.34c.08.04.15.11.23.15.23.23.58.31.88.23l1.34-.34,1.07-.34c.15-.04.34.07.34.27,0,.08-.04.15-.08.19l-.08.08c-.19.19-.19.46-.08.69l1.3,1.84c.46.65,1.23,1.07,2.07,1.07h.15c.31,0,.57-.08.84-.19l.27-.15c.19-.08.34-.23.42-.42.19-.38.61-.61,1.07-.5l1.34.27c.19.04.38.04.54.04h.8c.23,0,.42-.07.58-.23l.08-.08c.12-.11.27-.15.42-.15h.08c.11,0,.23.04.31.11.19.19.5.15.65-.07l.69-1,.15-.31c.19-.42.19-.88,0-1.3l-.11-.23s-.04-.11-.04-.15v-.31s.04-.04.04-.04c.04,0,.04.04.04.04v.34c0,.07,0,.11.04.15l.08.15c.23.42.69.65,1.15.54l.84-.23c.15-.03.27-.03.42-.03h.88c.42,0,.77-.34.77-.77,0-.11.04-.23.08-.34l.04-.08c.23-.42.69-.65,1.15-.57l.8.15c.46.07.96.04,1.38-.19l.92-.46c.23-.12.46-.15.69-.15h1.19c.19,0,.34-.15.34-.34,0-.08.04-.19.11-.23l.27-.27c.08-.08.15-.12.23-.12h.11c.11,0,.23.12.23.23s.11.23.23.23.23.11.23.23c0,.12.11.23.23.23h.15c.08,0,.11,0,.15-.04l.11-.07c.34-.16.73.07.73.46,0,.07,0,.15.04.23l.08.15c.23.42.65.69,1.11.69h.84c.19,0,.34,0,.5.03l.61.12c.92.19,1.65.84,1.95,1.72l.04.11c.27,1.07,1.11,1.92,2.22,2.22l1.84.46c.08,0,.15.04.23.04h.12c.15,0,.31-.08.46-.19.19-.19.46-.23.69-.15l1.46.61c.31.12.65.19.99.19.27,0,.58.04.84.15l.73.23c.19.08.38.19.54.34.42.42,1.11.54,1.61.23l1.84-1.03c.38-.19.65-.54.76-.96l.66-1.91c.03-.16-.08-.31-.23-.31-.08,0-.15-.03-.23-.11l-.27-.58c-.08-.19-.11-.38-.11-.57v-.88c0-.15-.08-.31-.19-.46-.19-.19-.23-.46-.15-.69l.65-1.57c.11-.27.23-.5.42-.73l1.03-1.34c.12-.11.27-.19.42-.19s.27-.04.38-.15l1.19-1.19s.07-.11.11-.15l.23-.46c.07-.11.23-.15.34-.07l.03.04.92.46,3.3,1.88,2.64,1.34c.12.04.23.08.34.08.19,0,.38.07.5.23l.08.08c.11.11.27.23.46.27l1.61.42c.84.27,1.41,1.07,1.41,1.99v.34c0,.62.23,1.23.62,1.68l1.53,1.8c.42.5.99.84,1.64.99l2.53.58c.46.11.96.11,1.42,0l2.72-.69c.23-.04.42-.12.62-.23l.38-.19c.19-.07.38-.15.58-.15.11,0,.23,0,.34.04l1.68.42,1.49.38c.23.08.5.08.77.08h.11c.62,0,1.19.19,1.68.5l.46.31c.15.08.27.19.38.34l.34.34c.27.27.66.42,1.03.42h.08c.19,0,.34.04.5.12l.46.23c.12.04.19.16.19.31,0,.07.04.15.08.23l1.99,2c.46.46,1.07.76,1.72.88l2.3.34,3.22.46h.34c.11,0,.23-.04.34-.15.19-.19.5-.19.69,0,.07.07.19.15.34.15h.42c.23,0,.46-.04.65-.15l.66-.31,1.03-.68c.27-.19.53-.31.84-.38l2.83-.81,2.03-.57c.8-.23,1.49-.8,1.88-1.53l.08-.15c.19-.34.42-.69.72-.92l1.69-1.45c.72-.62,1.68-.88,2.6-.69l.46.07c.27.04.54.15.8.27l.84.42c.42.23.92.34,1.42.34h.84c.15,0,.34,0,.5-.04l1.42-.23c.72-.12,1.49.03,2.1.42l.81.5c.34.23.76.34,1.15.42l1.19.19c.88.11,1.8-.27,2.29-1.03.08-.12.19-.27.31-.34l1.03-1.03c.15-.15.31-.27.46-.38l.96-.65c.15-.11.27-.19.38-.34l.58-.58c.11-.11.19-.31.19-.46v-.42c0-.11-.12-.23-.23-.23s-.23-.12-.23-.23v-.31l.96-3.71.8-3.56c.11-.42.31-.85.58-1.19l.88-1.15c.08-.11.19-.27.23-.38l.46-.88c.23-.46.16-1.03-.23-1.38-.23-.23-.34-.5-.34-.81v-.19c0-.19-.08-.34-.19-.46-.19-.19-.42-.23-.65-.15l-.15.04c-.5.15-1.03-.11-1.19-.58l-.04-.11c-.08-.27-.08-.58.07-.8l.15-.31c.08-.19.19-.34.34-.5l1.03-1.03c.12-.11.15-.27.15-.42s.08-.31.16-.42l.19-.19c.08-.07.19-.15.31-.23l1.68-.88.99-.62c.73-.46.96-1.41.46-2.1-.03-.08-.11-.15-.19-.23l-1.3-1.3v-.08s.04-.04.08,0l1.3,1.31c.08.07.11.11.15.19l.08.12c.5.76,1.34,1.19,2.25,1.19h.19c.46,0,.96-.11,1.38-.31l1.11-.54c.11-.04.23-.08.34-.08h.07c.15,0,.31-.07.42-.19.19-.19.46-.23.69-.11l1.23.61c.15.08.38.04.5-.07.15-.15.38-.15.54-.04l1.03.69c.08.04.16.08.23.11l1.03.34c.11.04.27-.03.27-.19,0-.12.07-.19.19-.19h2.26c.23,0,.42.07.58.23l.15.15c.07.08.11.15.11.23,0,.19.15.34.34.34.08,0,.19.04.23.11l.27.27c.08.07.15.11.23.11.19,0,.34.15.34.34v.27c0,.19.15.34.34.34.07,0,.19.04.23.12l.76.76c.38.38.65.84.77,1.35l.11.42c.11.42.31.84.61,1.19l1.8,2.15c.07.07.15.11.27.11.19,0,.31.15.31.31,0,.08.04.19.12.23l.15.15c.15.15.23.34.23.57v.16c0,.31.11.61.34.8l.42.42c.11.12.23.27.34.38l.69,1.03c.08.11.15.23.27.31l.08.08c.19.19.31.38.38.61l.27.81c.04.15.23.27.38.27.11,0,.23.04.31.11l.11.12c.16.15.23.34.23.57v.23c0,.27.08.5.19.73l.23.38c.61.96,1.76,1.46,2.87,1.15l1.49-.38c.23-.08.5,0,.65.19.12.11.31.19.46.19h.42c.11,0,.23.11.23.23,0,.12.11.23.23.23h.12c.07,0,.19-.04.23-.11l.23-.23c.08-.07.19-.07.27,0l.11.11c.07.08.23.04.23-.11,0-.07.07-.15.15-.15h.19c.08,0,.16-.08.16-.15,0-.11.15-.19.27-.11l1.38,1.07c.15.12.31.19.46.19l2.99.42h.04c.11,0,.23.11.23.23v.99c0,.31.12.62.34.85l.65.65c.27.27.42.65.42,1.03,0,.23.04.46.15.65l.11.27c.12.27.31.5.5.69l.46.46c.11.11.27.23.42.31l.08.04c.42.19.88.19,1.3,0l.08-.04c.15-.08.31-.12.46-.12s.31-.03.46-.11l2.38-1.19c.15-.07.34-.11.5-.11.42,0,.8-.23.99-.62l.04-.11c.07-.15.11-.31.11-.5,0-.42.23-.8.61-.99l.15-.08c.12-.07.27-.15.34-.27l.54-.54c.15-.19.42-.27.65-.27.34,0,.69-.19.84-.5l.42-.8c.19-.34.46-.69.8-.92l.15-.07c.5-.34,1.07-.5,1.69-.5h.65c.23,0,.46-.08.65-.19l.88-.58c.11-.07.27-.03.31.08.04.07,0,.23-.08.27l-.96.66c-.19.15-.38.31-.46.53-.19.38-.19.84,0,1.23l.04.12c.07.15.19.31.31.42l.15.15c.61.62.73,1.61.23,2.37l-.03.04c-.04.08-.12.15-.15.19-.23.23-.38.58-.38.92v1.49c0,.19.04.38.07.57l.31,1.38c0,.08,0,.15-.04.19-.04.04-.08.08-.08.15v4.72c0,.23-.04.46-.15.65l-.11.27c-.11.23-.11.54,0,.77l.04.07c.15.31.07.66-.15.88-.08.08-.12.12-.16.19l-.15.31c-.15.34-.19.77-.07,1.11l.04.07c.15.46.03,1-.31,1.35-.23.23-.57.38-.92.38h-2.87c-.23,0-.46.04-.69.12l-.12.03c-.61.19-1.07.73-1.26,1.35l-.04.07c-.11.5-.46.88-.88,1.11l-.15.07c-.08.04-.15.08-.19.15-.23.23-.31.58-.15.88l.69,1.42,1.23,2.41c.15.27.23.57.31.88l.34,2.07c.04.19.11.34.27.5.15.15.27.42.27.65v.19l-.34,2.33c-.08.54-.46.99-.99,1.19l-.38.11c-.11.04-.23.15-.31.27l-.19.42c-.08.15.04.34.19.34.07,0,.11.04.15.08l.31.31c.07.08.15.15.19.27l.46.92c.19.34.69.34.84,0,.04-.07.04-.15.04-.23v-.15c0-.11-.04-.23-.15-.34-.31-.31-.08-.8.34-.8h.5c.38,0,.69-.31.69-.69v-.15c0-.08,0-.15.04-.19l.38-1.45c.04-.19.12-.38.23-.54l.62-.92c.07-.15.07-.34-.04-.46-.15-.15-.15-.38,0-.54l.11-.11c.08-.08.15-.12.23-.12.19,0,.34.15.34.34v.08c0,.38.46.58.72.31l.69-.69.04-.04c0-.07.12-.11.15-.03l.31.96v.76c0,.12.12.23.23.23s.23-.11.23-.23c0-.11.11-.23.23-.23h.12c.07,0,.15.04.23.11l.12.11c.15.16.42.16.54,0,.11-.11.31-.15.46-.07l.65.34s.04.04.08.04l.11.11c.11.11.34.04.34-.15s.23-.27.34-.15l.04.04c.07.07.15.07.27.03l.65-.31c.12-.07.23-.15.31-.23l3.33-3.34c.19-.19.38-.42.5-.65l1.57-2.8c.04-.11.11-.19.19-.27l.15-.15c.11-.12.19-.31.19-.46v-.42c0-.12.11-.23.23-.23.12,0,.23-.11.23-.23v-1.41c0-.19.04-.34.08-.54l.31-.92c.04-.15.07-.34.07-.54,0-.42.16-.84.5-1.19l.07-.07c.27-.27.46-.62.5-.96l.34-1.76.96-2.8.96-2.8.84-2.06c.08-.19.11-.34.15-.54l.42-2.07.42-2.57c.04-.15.04-.34.04-.5v-1.72c0-.27.04-.5.08-.77l.34-1.38c.03-.07.03-.15.03-.27v-.92c0-.07.04-.11.12-.11.03,0,.07-.04.11-.08l.92-4.17.92-3.1c.04-.11.04-.23.04-.34,0-.19-.04-.38-.11-.58l-.12-.19c-.15-.31-.23-.66-.23-1v-1.03c0-.23-.08-.42-.23-.57-.15-.15-.23-.34-.23-.58v-.69c0-.27-.03-.54-.11-.76l-.27-.84c-.04-.16-.12-.27-.16-.38l-.53-1.07c-.23-.42-.31-.88-.31-1.38v-.19c0-.34-.07-.69-.19-1.03l-2-5.59c-.11-.34-.19-.69-.19-1.03v-.11c0-.19.04-.42.08-.62l.27-1.34c.08-.46.08-.92-.03-1.38l-.23-.8c-.08-.23-.04-.46.07-.69l.19-.38c.08-.15.04-.34-.07-.46l-.08-.08c-.11-.11-.31-.11-.42,0-.12.16-.34.12-.46-.03l-.57-.84c-.12-.19-.19-.38-.19-.62v-.76c0-.19-.15-.34-.34-.34-.08,0-.19-.04-.23-.12l-.31-.31s-.08-.07-.11-.07l-.69-.34c-.27-.16-.19-.58.15-.58.11,0,.23-.08.27-.15l.19-.34c.11-.27.11-.58,0-.84-.15-.31-.5-.54-.84-.54h-.11c-.15,0-.34-.04-.5-.11l-.54-.27c-.12-.04-.23-.11-.31-.23-.23-.23-.54-.34-.85-.34h-.34c-.38,0-.76-.12-1.11-.34l-.73-.5c-.11-.07-.19-.19-.19-.34s-.07-.31-.23-.38l-.58-.27c-.11-.03-.23-.07-.34-.07-.19,0-.38-.08-.5-.23l-.04-.04c-.15-.15-.34-.23-.57-.23h-.16c-.31,0-.57.11-.8.34l-.27.27c-.23.23-.5.38-.81.5l-.92.31h-.08c-.19,0-.34.19-.23.38l.23.46c.04.08.08.16.08.27v2.57c0,.27-.34.34-.46.11-.04-.04-.04-.07-.04-.11v-.04c0-.46-.62-.61-.84-.19l-.08.19s-.04.08-.07.11l-1.35,1.38c-.34.34-.92.12-.92-.38,0-.08.04-.16.07-.23l.73-1.42c.08-.15-.04-.34-.19-.34-.07,0-.11.04-.15.08l-.19.19c-.15.15-.31.23-.5.23h-.04c-.11,0-.19-.03-.31-.07-.38-.19-.5-.73-.15-1.03l.27-.27s.03-.07.03-.11c0-.15-.19-.23-.31-.11l-.8.8c-.19.19-.19.5,0,.69.07.08.15.23.15.34v.76c0,.27-.23.46-.46.46h-.38s-.08.04-.08.07c0,.08-.11.12-.15.04l-.8-1.92s-.04-.03-.04-.07l-.15-.23c-.73-1.19-2.22-1.64-3.49-1.11l-.5.19c-.38.16-.8.16-1.19,0l-.15-.07c-.8-.34-1.11-1.34-.65-2.07l.46-.96.73-1.07c.15-.23.27-.46.34-.73l.27-.84c.04-.15.12-.27.16-.38l.19-.42c.12-.23.27-.46.46-.62.11-.11.27-.27.34-.46l.96-1.57c.19-.34.34-.69.42-1.07l.27-1.65c.08-.38.23-.73.5-.99l.38-.38c.11-.11.15-.27.15-.42s-.08-.31-.15-.42c-.19-.19-.23-.46-.11-.69l.15-.34c.07-.15.11-.31.11-.5v-.73c0-.31.11-.57.31-.76.12-.11.19-.23.23-.34l.88-2.15.96-1.88.31-.65c.12-.19.15-.42.15-.65v-.11c0-.31.12-.62.34-.84.08-.08.16-.19.23-.31l.11-.23c.19-.38.27-.77.27-1.19v-1.38c0-.27.04-.5.07-.77l.23-.92c.11-.38.31-.73.58-.99.34-.34.57-.81.61-1.27l.31-2.26c.08-.5.27-.99.54-1.38l1.72-2.45c.08-.16.27-.23.42-.23s.27-.04.34-.15l.84-.84c.31-.31.65-.5.99-.69l1.53-.62c.15-.07.31-.15.46-.23l1.96-1.19c.11-.08.23-.12.34-.12.19,0,.34-.07.5-.19l.19-.19c.07-.08.15-.12.23-.12.19,0,.34.15.34.34v.27c0,.23.12.42.31.53h.03c.31.16.73.04.88-.31l.04-.07c.07-.19.11-.38.04-.58l-.12-.38c-.11-.34.15-.72.54-.72h.34c.12,0,.23.11.23.23,0,.15.15.27.31.19l1.03-.34c.08-.04.15-.04.27-.04.23,0,.42-.07.58-.23l1.19-1.19c.31-.31.73-.5,1.15-.5h.12c.07,0,.19,0,.27-.04l.8-.27c.23-.07.31-.38.12-.53-.08-.08-.15-.12-.23-.12-.19,0-.34-.15-.34-.34v-.38c0-.11.12-.23.23-.23s.23-.12.23-.23v-.88c0-.46.31-.88.77-1.03l1.92-.65c.11-.04.27-.07.38-.07h.99c.11,0,.23.11.23.23,0,.12.12.23.23.23h.23c.27,0,.46-.23.46-.46v-.16c0-.19.11-.38.27-.5l.42-.27c.46-.31,1.03-.34,1.53-.11l.46.23c.42.19.88.19,1.31,0l.23-.11s.12-.04.19-.04h.15c.12,0,.23.12.23.23s-.11.23-.23.23h-.11c-.08,0-.19.03-.23.11l-.72.73c-.08.07-.15.15-.27.19l-.07.04c-.42.23-.62.69-.46,1.15l.12.31c.07.19.27.34.46.34.08,0,.15,0,.23-.04l.34-.15c.34-.15.61-.42.8-.73l.58-.84c.03-.08.11-.15.15-.19.23-.23.57-.38.92-.38h.12c.19,0,.38-.03.57-.11.42-.23.69-.65.69-1.11v-.27c0-.27.08-.5.15-.73.19-.38.54-.69.96-.8l.54-.19c.15-.04.34-.07.53-.07h.34c.23,0,.42-.08.58-.23l.04-.04c.11-.11.19-.31.19-.46v-.27c0-.23.19-.42.42-.42h.69c.12,0,.19-.15.08-.23-.08-.07-.04-.23.11-.23h.08s.07,0,.11-.04l.11-.11c.19-.19.23-.46.12-.69l-.16-.27c-.11-.19-.27-.34-.46-.46l-.07-.04c-.34-.19-.77-.19-1.15,0l-.23.11c-.12.04-.23.12-.31.23l-.15.19c-.11.11-.15.27-.15.42s-.07.31-.15.42l-.23.19c-.08.07-.16.11-.23.11-.19,0-.34-.15-.34-.34v-1.23c0-.19-.15-.34-.34-.34-.08,0-.19-.03-.23-.11l-.19-.19c-.11-.11-.15-.27-.15-.42v-.15c0-.08.04-.12.08-.16l.15-.15c.07-.07.04-.23-.08-.23-.07,0-.15-.08-.15-.15v-2.15c0-.38.08-.73.27-1.03l.5-.99c.11-.23.23-.5.27-.8l.31-1.53c.04-.23-.03-.46-.19-.66-.12-.11-.19-.31-.19-.5v-1.26c0-.23.03-.46.15-.65.19-.42.19-.88,0-1.31l-.15-.31c-.31-.61-.31-1.3,0-1.92l.38-.76c.04-.08.08-.19.12-.27l.23-.72c.12-.34.42-.58.81-.58.23,0,.42-.08.57-.23l.12-.15c.07-.07.11-.11.15-.19l1.23-1.88c.34-.54.92-.84,1.53-.84h.27c.11,0,.23.04.34.08.42.19.92,0,1.07-.46l.19-.53s.03-.08.03-.12c0-.34.38-.5.66-.27l.27.27s.08.08.11.15l.15.31c.19.38.27.76.27,1.19v.61c0,.42.19.84.46,1.15l.31.31c.12.12.16.27.16.42v.04c0,.11.03.23.15.34.19.19.5.19.69,0l.07-.08c.27-.27.73-.19.92.15l.11.23s0,.04.04.04c.11.38.69.34.76-.04l.66-3.26.96-5.17s-.04,0,0-.03l.27-.27s.04-.07.04-.11c0-.15.19-.23.31-.12l.12.12s.11.07.15.07h.19c.38,0,.69-.31.69-.69v-.03c0-.38-.31-.73-.73-.73h-.19c-.34,0-.65-.19-.8-.5l-.54-1.07c-.11-.19-.15-.42-.15-.65v-.19c0-.27-.12-.54-.31-.73-.12-.11-.19-.27-.27-.42l-.04-.12c-.23-.65.04-1.34.62-1.72l.07-.03c.27-.19.46-.42.58-.73l.15-.46c.11-.31.38-.54.73-.54h.61c.46,0,.69.54.34.84-.07.07-.11.15-.11.23l-.15.58c-.19.73-.08,1.49.34,2.15l.96,1.41c.19.31.31.65.31.99v.12c0,.19.04.38.12.57l.15.31c.11.23.38.38.65.38.31,0,.58.19.69.5l.23.69c.07.16.07.34.07.54v.19c0,.31.11.62.34.84.34.34.46.92.23,1.38-.08.11-.15.23-.23.31l-.31.31c-.34.31-.5.76-.5,1.22v.23c0,.31-.11.61-.34.84-.08.08-.15.19-.23.31l-.15.31c-.15.31-.23.65-.23.99v.61c0,.19.08.38.23.5.15.15.23.38.19.65l-.38,2.19c-.04.15-.04.34-.04.5v1.72c0,.23-.07.42-.23.57-.15.15-.23.34-.23.58v.04c0,.07,0,.15-.04.23l-.34,1.38c-.07.23-.07.5-.07.77v.8c0,.42.15.84.46,1.15l.31.31c.12.11.15.27.15.42s-.07.31-.15.42l-.07.07c-.15.15-.23.34-.23.58v2.14c0,.27-.04.5-.07.77l-.77,3.02c-.04.19-.11.42-.23.61l-.23.5c-.08.11-.12.23-.23.31-.23.23-.34.5-.34.84v.46c0,.31-.19.58-.46.73l-.62.31c-.34.19-.34.65,0,.84.08.04.12.08.19.15l.38.58c.34.5.5,1.07.5,1.68v1.57c0,.19-.04.42-.07.61l-.27,1.23c-.11.54-.07,1.07.11,1.61l.62,1.8c.04.15.11.27.19.42l1.23,2.37c.07.15.15.31.27.42l6.28,8.54c.08.12.19.23.31.34l8.01,8.08c.15.15.31.34.46.58l1.07,1.72c.11.19.27.38.46.57l1.53,1.53s.11.08.15.15c.65.42,1.49.08,1.64-.69l.12-.61c0-.11.04-.19.04-.31v-2.22c0-.27.11-.54.31-.73.11-.11.19-.27.27-.42l.19-.58c.15-.42.19-.88.15-1.31l-.34-2.94c-.04-.38-.23-.77-.5-1.03l-.42-.42c-.08-.07-.15-.11-.23-.11-.19,0-.34-.15-.34-.34v-.42c0-.11-.04-.23-.08-.34l-.27-.53c-.08-.16-.23-.27-.42-.27-.11,0-.23-.04-.31-.15l-.07-.08c-.15-.15-.15-.38,0-.53.11-.12.31-.15.46-.08l.11.08c.31.15.69,0,.81-.31l.92-2.1c.15-.38.46-.69.84-.88l.31-.15s.11-.04.15-.04h.07c.19,0,.31-.15.31-.31,0-.12-.03-.19-.11-.27l-1.49-1.19c-.46-.38-.8-.84-.99-1.41l-.5-1.5c-.12-.31-.16-.65-.16-.99v-.96c0-.58.16-1.11.46-1.61l.84-1.38c.07-.15.23-.23.42-.23h.04c.11,0,.19.03.27.11.19.19.5.11.61-.08l.58-1.11c.07-.19.15-.38.15-.58v-.11c0-.61-.31-1.19-.81-1.53l-1.3-.84c-.5-.34-.88-.8-1.11-1.34l-.73-1.65c-.23-.54-.31-1.11-.23-1.64l.34-2.33v-.31c0-.15-.07-.31-.19-.42l-.04-.04c-.15-.15-.19-.38-.07-.58l.07-.15c.12-.23.42-.27.62-.11.07.08.11.15.11.27v.73c0,.31.27.54.54.54.23,0,.46-.15.54-.38l.11-.34c.15-.42,0-.88-.34-1.15l-1.68-1.34s-.07-.08-.07-.11c0-.16-.19-.23-.27-.12l-.38.38c-.15.15-.42.15-.57,0l-1.03-1.03c-.08-.08-.15-.19-.23-.27l-.34-.5c-.34-.5-.5-1.11-.5-1.69v-.23c0-.19-.04-.38-.07-.54-.23-.69-.88-1.15-1.61-1.15h-.96c-.12,0-.27.03-.34.15l-.16.15c-.11.11-.11.31,0,.38.16.15.12.38-.07.46l-.34.19c-.15.07-.34.07-.5,0l-.27-.15c-.27-.15-.5-.38-.57-.69l-1.11-3.3c-.11-.31-.15-.65-.15-.99v-2.22c0-.08-.04-.12-.07-.15l-.15-.15c-.08-.08-.04-.23.11-.23.07,0,.15-.08.15-.15v-.12c0-.11-.11-.23-.23-.23-.11,0-.23-.11-.23-.23v-.84c0-.23-.08-.42-.23-.58l-.11-.11c-.08-.07-.15-.11-.27-.11-.19,0-.34-.12-.38-.31l-.27-1.35c-.08-.46-.04-.92.19-1.34l.58-1.15s.07-.11.11-.15l.27-.27c.08-.07.08-.19,0-.27-.11-.11-.03-.34.15-.34h.84c.08,0,.16.04.23.04l.08.04c.42.19.88,0,1.03-.42v-.04c.11-.34-.04-.69-.34-.88l-.08-.03c-.19-.08-.31-.27-.31-.5,0-.08.04-.19.07-.27l.85-1.64c.03-.08.07-.15.07-.23l.31-1.11c.08-.27.42-.38.62-.15l.03.03.08.12c.54.8,1.76.42,1.76-.54,0-.08,0-.12.03-.19l.38-1.84c.04-.27.15-.54.27-.77l.8-1.57c.31-.57.76-1.03,1.34-1.34l.96-.5,1.07-.42c.81-.34,1.72-.31,2.49.11l.46.23c.11.07.27.11.38.11.61,0,1.03-.58.84-1.15l-.04-.15c-.04-.08-.08-.16-.11-.23l-.34-.54c-.31-.5-.34-1.11-.12-1.64.04-.08.08-.15.08-.23l.27-.84c.12-.31.15-.65.15-.96v-1.65c0-.15.08-.31.19-.42.19-.19.23-.46.12-.69l-.23-.5s-.08-.08-.15-.08c-.15,0-.19-.15-.11-.27l.15-.16s.07-.03.11-.03c.15,0,.23-.19.11-.31l-.42-.42c-.08-.08-.04-.27.11-.27.08,0,.11-.04.15-.12l.31-.96c.08-.23,0-.5-.15-.65l-.15-.15s-.07-.04-.11-.04c-.15,0-.23-.19-.11-.31l.53-.54c.08-.08.16-.19.16-.34v-1c0-.11-.12-.23-.23-.23s-.23-.11-.23-.23v-.42c0-.15.15-.31.31-.31.12,0,.23-.07.27-.15l.27-.54c.08-.19.12-.38.12-.57v-.62s0-.07.03-.11c.04-.04.16-.04.19,0,.08.08.23.04.27-.07l.34-1.07c.04-.08.04-.19.04-.27v-1.22c0-.34.03-.66.15-1l.8-2.33.76-2.29c.08-.27-.11-.54-.38-.54h-.08c-.19,0-.34-.15-.34-.34v-.04c0-.08-.04-.11-.07-.15l-.16-.15c-.07-.08-.03-.23.12-.23.07,0,.15-.08.15-.15,0-.11.15-.19.23-.11l.5.5c.15.15.34.15.5.07l3.95-2.41c.23-.15.27-.46.07-.61-.07-.08-.11-.19-.11-.27v-.54c0-.73-.46-1.38-1.15-1.61l-1.42-.46c-.19-.08-.31-.23-.31-.42,0-.31-.31-.54-.62-.42l-.57.19c-.19.07-.38.07-.54,0l-.81-.27c-.23-.07-.42-.15-.65-.31l-2.03-1.27-1.92-.96c-.46-.23-1.07,0-1.22.5-.08.27-.31.5-.62.58l-.88.23c-.31.08-.65,0-.88-.23l-.07-.08c-.46-.46-1.19-.27-1.42.34l-.04.08v.11c0,.23-.19.42-.42.42h-2.37s-.08.04-.08.08c0,.08-.11.11-.15.04l-.15-.34c-.08-.11.04-.27.15-.27h.11s.08,0,.12-.03l2.29-1.15c.23-.11.27-.42.08-.61-.08-.08-.11-.15-.11-.23,0-.19.15-.34.34-.34h1.07c.31,0,.62-.11.88-.31l.73-.58c.46-.38.84-.88,1.03-1.45l.42-1.19c.15-.5.19-.99.12-1.49l-.31-1.8c-.03-.15-.07-.31-.11-.46l-.5-1.42c-.23-.69-.88-1.15-1.61-1.15-.15,0-.27,0-.42-.04l-.8-.19c-.5-.11-.92-.54-1.11-1.03l-.15-.42c-.04-.12-.04-.27.04-.38l.19-.42c.07-.15-.04-.34-.19-.34-.08,0-.12-.03-.15-.07l-.04-.04c-.19-.19-.11-.5.11-.61l.34-.19c.08-.04.19-.04.27.04.11.15.38.03.38-.15v-.27c0-.34.42-.46.62-.19l.31.46s.04.07.08.11l.27.8c.11.34.42.58.8.58.23,0,.42-.08.58-.23l.11-.11c.08-.08.19-.15.34-.15s.34.11.42.27l.31.58c.27.5.96.61,1.38.23.07-.07.15-.19.19-.27l.76-1.88c.08-.19.15-.38.31-.54l.34-.5c.31-.46.68-.8,1.19-1.03l.03-.04c.12-.03.23-.11.34-.15.81-.27,1.65-.15,2.34.31l.34.23c.61.31,1.3.38,1.99.23l.31-.08c.34-.07.65-.23.92-.42l.84-.58c.11-.08.19-.15.31-.23l.11-.11c.42-.42,1.03-.58,1.61-.38h.04c.31.12.61.12.92,0l.42-.15c.34-.11.58-.42.58-.8,0-.23-.08-.42-.23-.58l-.19-.19s-.04-.07-.04-.11c0-.15.19-.23.31-.11l.66.65c.23.23.65.19.8-.11l.04-.04c.07-.15.03-.38-.08-.5l-1.49-.62Z"/>
        <path class="st0" d="M313.87,529.67c1.34,3.06,2.8,6.05,4.37,9.04-44.74,25.67-107.53,22.99-117.07,22.37-.65-.04-1.23.5-1.23,1.11.77,31.03,30.99,39.53,57.65,35.89,22.79-3.1,54.67-18.28,77.19-35.4,2.26,2.53,4.67,4.86,7.13,7.12-21.53,35.32-72.1,49.8-88.57,51.1-.8.08-1.26.88-.88,1.57,10.8,18.69,35.2,24.94,61.87,12.14,15.86-7.63,35.55-27.58,49.07-49.96,3.1,1.53,6.36,2.83,9.65,3.95-8.39,42.18-50.34,67.92-57.65,72.13-.27.15-.46.42-.5.73-.04.31.04.61.23.84,12.49,14.02,41.26,14.33,58.84-5.98,10.8-12.49,19.12-35.7,23.79-63.71,12.95,0,42.56,5.56,52.48,31.8.42,1.11,2.18.81,2.18-.34v-71.82c0-.73-.77-1.23-1.49-1-16.28,5.37-33.21,6.06-44.93,3.76-23.1-4.11-40.61-22.95-40.61-45.63,0-13.02,5.78-24.79,15.09-33.25,1.99-1.76,1.72-4.79-.58-6.21-1-.61-2.03-1.23-2.99-1.84-80.75-51.26-154.27-170.05-162.2-183.11-.38-.61-1.26-.73-1.8-.27-24.82,21.84-27.24,64.63-1.11,98.18,17.28,22.18,53.52,46.47,90.67,67.53-.54,3.95-.88,7.89-1.07,11.84-76.42-16.4-124.92-69.15-132.74-78.07-.54-.61-1.57-.5-1.92.23-14.06,27.62-1.84,64.66,26.05,80.22,24.48,13.64,62.9,21.65,110.17,27.31.5,3.45,1.15,6.86,1.88,10.23-70.95,9.54-126.38-16.36-135.92-21.18-.69-.34-1.57.07-1.65.84-3.6,29.53,15.05,53.24,46.89,58.49,32.03,5.29,99.68-10.68,99.68-10.68Z"/>
        <path class="st0" d="M318.31,680.22l-1.26-2.41c-.27-.5.23-1.03.73-.84h.04c.42.19.8-.23.69-.65l-.12-.27s-.04-.04-.08-.04c-.08,0-.11-.08-.04-.12l.38-.34.04-.03c.31-.27.77-.31,1.15-.08.11.08.19.15.27.27l.12.15c.27.42.73.69,1.23.76l1.38.23h-1.07c-.42,0-.73.42-.57.84.04.07.08.15.11.23l.31.34c.27.31.73.31,1,.03l.34-.31c.11-.11.27-.15.42-.15.23,0,.46.11.54.34.04.08.08.15.08.27l.04,1.31.15,1.42.27,1.95c.11.77-.38,1.49-1.15,1.72l-.11.04c-.15.04-.31.15-.46.27l-.19.15c-.11.08-.23.15-.34.15-.15,0-.34-.07-.42-.23l-1.19-1.65-2.26-3.37Z"/>
        <path class="st0" d="M730.2,828.21l-.76-1.46s-.05-.09-.09-.12c-.04-.03-.09-.05-.13-.05-.05,0-.11,0-.15.02-.05.02-.09.05-.12.09-.04.05-.11.08-.17.09-.07.01-.13,0-.19-.03l-1.36-.66c-.24-.11-.45-.27-.63-.46l-.66-.66-1.39-1.1c-.31-.21-.55-.5-.73-.83l-.83-1.36c-.21-.33-.34-.71-.4-1.09l-.33-1.96c-.03-.17-.04-.33-.03-.5v-1.53c0-.34-.07-.69-.23-.99l-.1-.17c-.11-.21-.17-.43-.17-.66v-.13c0-.31.13-.6.33-.83.09-.09.17-.19.23-.3l.03-.07c.11-.23.27-.42.46-.57.2-.15.42-.25.67-.29l.66-.14c.58-.13,1.18-.07,1.72.17l1.49.6.36.17c.1.07.2-.1.13-.17h-.03l-1.16-.77c-.18-.1-.33-.24-.46-.4l-.4-.4c-.23-.23-.42-.5-.56-.8l-.07-.13c-.13-.24-.28-.46-.46-.66l-2.45-2.75-2.32-2.82-1.86-2.32-1.19-1.56s-.03-.04-.06-.05c-.03,0-.05,0-.07,0-.03,0-.05.02-.07.04s-.03.05-.03.07c0,.03-.01.07-.04.09-.03.03-.06.04-.09.05h-.13s-.06,0-.09-.02c-.03-.01-.06-.03-.08-.05-.02-.03-.04-.05-.05-.08-.01-.03-.02-.06-.02-.09v-.37c0-.11-.03-.22-.09-.31-.06-.09-.15-.17-.25-.22l-.43-.2c-.13-.07-.26-.15-.36-.27l-.17-.17c-.4-.4-.68-.9-.8-1.46l-.3-1.46-.86-2.52c-.03-.08-.09-.15-.16-.21-.07-.05-.15-.09-.24-.09-.06,0-.11,0-.17-.03-.05-.02-.1-.05-.13-.1l-.76-.76c-.05-.04-.09-.1-.1-.17l-.27-.53s-.03-.07-.03-.11.01-.07.03-.11c.02-.03.05-.07.08-.09.03-.01.07-.03.11-.03.06,0,.12.03.17.07l.3.3s.06.07.07.11c.02.04.03.08.03.13v.17s0,.05,0,.07.02.04.04.05c.01.01.03.03.05.03.02.01.05.01.07.01.03,0,.06-.01.08-.03.03-.02.05-.04.06-.07.01-.03.02-.06.02-.09,0-.03-.01-.06-.03-.09l-1.66-2.09-1.19-1.56c-.14-.2-.23-.42-.23-.67,0-.17-.05-.35-.14-.5-.09-.16-.21-.29-.36-.39l-.93-.6-.03-.03s-.09-.06-.15-.07c-.05,0-.11,0-.15.02-.05.02-.09.05-.12.1-.03.05-.05.09-.05.15v.03s0,.07-.01.11c-.01.03-.03.06-.06.09-.03.03-.05.04-.09.05s-.07.02-.11.02h-.07s-.09,0-.13.03c-.04.02-.07.05-.11.07-.04.05-.07.1-.09.15-.01.05-.02.11-.01.17.01.06.03.11.07.16.03.05.08.09.13.11l.5.23,1.3.87s.07.07.1.11c.02.05.03.1.03.15v.07s0,.06.01.09.03.05.05.08c.02.02.05.03.07.05.03.01.06.02.09.02.03,0,.06,0,.09.01.03.01.05.03.08.05.02.02.04.05.05.07.01.03.02.06.02.09v.46s0,.06-.02.09c0,.03-.03.05-.05.08-.03.02-.05.04-.08.05-.03.01-.06.02-.09.02-.03,0-.07,0-.09.01-.03.01-.05.03-.07.05-.03.02-.04.05-.05.07-.01.03-.02.06-.01.09v.1s0,.09.02.13c.02.04.05.07.08.11l.1.1c.08.09.14.19.17.31.03.12.03.24,0,.36l-.17.53c-.02.05-.05.11-.09.15-.04.04-.09.07-.15.09-.06.01-.12.01-.17,0-.06-.02-.11-.05-.15-.09-.03-.03-.07-.06-.11-.08-.04-.01-.09-.02-.13-.02h-.17c-.12,0-.23.03-.33.07l-.17.1c-.19.09-.34.23-.46.41-.11.17-.17.38-.18.58,0,.17.05.34.13.5l.23.5c.07.17.17.31.3.43.2.19.34.43.4.7l.83,2.89.66,2.33c.19.61.56,1.15,1.06,1.56l1.06.83,1.62,1.29c.46.37.81.86.99,1.43l.03.1c.11.31.16.64.17.96v.4c0,.31.05.62.17.9.12.29.3.54.52.76.17.18.32.38.43.6l.2.43c.07.13.13.26.17.4l2.69,8.13c.03.07.04.15.03.23,0,.11.03.22.08.32.05.1.13.19.22.25l1.03.8c.36.27.66.62.86,1.03l.53,1.03c.07.14.13.29.17.43l.23.73c.11.31.16.64.17.96v.4c0,.31.05.62.17.91.12.29.3.54.52.76.17.17.32.38.43.6l.17.33c.09.2.17.41.23.63l.76,3.05c.06.27.17.51.33.73l1.36,2.06c.03.05.08.09.13.13.05.03.11.05.17.06.06,0,.12,0,.18-.03.06-.02.11-.05.15-.09.04-.04.07-.09.1-.13.02-.05.03-.11.03-.17v-.6c0-.12,0-.25-.03-.36l-.4-1.92c-.03-.14-.03-.29,0-.43l.3-1.16s.03-.09.07-.13c.03-.04.07-.06.12-.07.05-.01.1-.02.15,0,.05.01.09.04.13.07.04.03.09.06.14.07.05.01.11.01.16,0l.7-.23c.37-.13.78-.11,1.13.07l.73.36c.42.21.76.54.96.96l.13.3s0,.02.01.02c0,0,.01.01.02.01.02.03.05.05.08.05.03,0,.06,0,.09-.02.03-.02.05-.05.05-.08,0-.03,0-.06-.02-.09l-.7-1.76Z"/>
        <path class="st0" d="M746.73,833.72l-.5.23c-.09.05-.18.07-.27.07h-.03c-.1,0-.2.02-.29.06-.09.03-.18.09-.25.16-.07.07-.13.16-.17.25-.04.09-.06.19-.06.29v.07c0,.07,0,.14-.03.2l-.43,1.76-.36,1.49c-.03.11-.03.23,0,.35.03.12.09.23.17.31l.1.1s.07.05.11.07c.04.02.09.03.13.03.09,0,.17-.04.24-.1.06-.06.09-.15.09-.23v-1.29c0-.14.03-.27.07-.4l.23-.87c.15-.5.4-.98.77-1.36l.8-.8s.06-.1.07-.17c-.03-.2-.2-.33-.36-.23Z"/>
        <path class="st0" d="M774.26,735.57l-.43.13c-.24.07-.49.07-.73,0l-1.03-.36s-.05-.01-.07-.03c-.02-.01-.04-.03-.05-.05,0-.02-.02-.05-.02-.07,0-.02,0-.05,0-.07.03-.2-.17-.33-.3-.23l-.73.5c-.09.05-.15.14-.17.23-.01.07-.01.15.01.21.02.07.06.13.11.17.06.05.12.08.19.09.07.01.14.01.21-.01l.3-.1c.08-.03.17-.04.25-.03.09.01.17.05.25.09l.56.36c.19.14.42.2.66.17l1.19-.13c.08,0,.15-.04.22-.09.06-.05.11-.12.14-.19.03-.08.03-.16.01-.24-.01-.08-.05-.15-.11-.21-.2-.13-.36-.2-.5-.13Z"/>
        <path class="st0" d="M749.41,836.34s-.06.09-.07.15c-.01.05,0,.11.02.15.02.05.05.09.1.12.04.03.09.05.15.05.03,0,.07,0,.1-.02.03-.01.07-.03.09-.05.03-.03.05-.05.06-.09.01-.03.02-.07.02-.11,0-.05-.02-.1-.05-.15-.03-.05-.07-.08-.13-.1-.05-.02-.1-.03-.15-.02-.05,0-.1.03-.14.07Z"/>
        <path class="st0" d="M779.6,733.29c-.03-.07-.07-.07-.13-.07l-2.62.27s-.05,0-.07.02c-.02,0-.04.03-.05.05s-.02.04-.02.07c0,.02,0,.05,0,.07.03.07.07.1.13.1l.83.03c.19,0,.37-.04.53-.13h.03c.11-.08.23-.13.36-.13l.86-.07c.13-.03.17-.1.13-.2Z"/>
        <path class="st0" d="M762.29,780.04c-.05,0-.11.02-.15.05-.05.03-.09.07-.11.12l-.13.27s-.04.1-.04.16c0,.05,0,.11.03.16.02.05.06.1.1.13.05.03.09.06.15.07.06.01.11.01.17,0,.06-.01.11-.03.15-.07.04-.03.08-.07.1-.13.03-.05.04-.11.04-.16v-.3c-.03-.17-.13-.3-.3-.3Z"/>
        <path class="st0" d="M755.25,721.61c-.13-.11-.29-.16-.46-.17-.19,0-.36.07-.49.21-.13.13-.21.31-.21.49v4.68c0,.07.03.13.07.17.05.05.11.07.17.07s.12-.02.17-.07c.04-.04.07-.1.07-.17v-.93c0-.19.05-.36.13-.53l.2-.4c.11-.21.17-.43.17-.66v-.13c.01-.31.13-.6.33-.83.09-.08.16-.19.2-.3v-.03c.12-.22.15-.47.11-.71-.05-.25-.18-.46-.37-.62l-.07-.07Z"/>
        <path class="st0" d="M755.98,816.63s-.03.07-.07.1l-.87,2.16c-.03.09-.06.19-.07.3v.17c0,.1-.03.19-.1.27-.04.04-.07.09-.09.15-.01.06-.02.12-.01.18.01.05.03.11.07.16.03.05.08.09.13.11l.03.03c.06.03.11.04.18.04.06,0,.11-.01.17-.04.05-.02.1-.06.14-.11.03-.05.06-.1.08-.16l.8-2.75v-.36c.02-.05.02-.11,0-.17-.02-.05-.06-.1-.11-.13-.05-.03-.11-.04-.16-.03-.06.01-.11.05-.14.09Z"/>
        <path class="st0" d="M760.16,809.03s-.05-.09-.1-.11c-.04-.03-.09-.04-.15-.03-.05,0-.1.03-.13.07-.03.04-.05.09-.05.14,0,.02,0,.04,0,.05,0,.02-.01.03-.03.05l-.43.86v.07s0,.06.02.08c.01.03.04.05.07.05.03,0,.06,0,.09,0,.03-.01.05-.03.06-.06l.63-.96c.03-.06.04-.13.03-.2Z"/>
        <path class="st0" d="M752.76,823.43c-.03-.06-.08-.11-.14-.15-.05-.03-.13-.05-.19-.05-.07,0-.15.02-.21.06-.06.05-.11.11-.13.17l-.36,1.09-.1.2-.1.2c-.1.2-.25.37-.44.48-.19.12-.4.18-.62.18h-.83c-.09,0-.17.04-.23.1-.07.06-.1.15-.1.23,0,.05,0,.09.03.13.01.04.04.07.07.1l.07.07c.09.09.15.21.17.34.01.12,0,.25-.07.36l-.53,1.09c-.13.28-.2.58-.2.9s-.07.62-.2.9l-.03.1c-.13.28-.2.58-.2.9v.2c0,.17-.05.34-.13.5l-.27.56s-.04.1-.03.15c0,.05.03.11.07.15.03.03.07.05.12.06.04.01.09.01.13,0,.05-.01.09-.04.11-.07.03-.03.05-.07.07-.12l.3-1.53c.04-.21.14-.41.3-.56l.4-.36c.21-.21.32-.5.33-.8,0-.3.12-.58.33-.8l.27-.27c.23-.23.4-.5.5-.8l.1-.27c.15-.45.4-.86.73-1.2l.43-.43.56-.6c.12-.12.19-.27.22-.44.03-.17,0-.34-.09-.49l-.1-.3Z"/>
        <path class="st0" d="M760.96,795.17s.03.03.05.05c.02,0,.04.01.07,0,.02,0,.04-.01.05-.03.02-.02.03-.04.03-.06,0-.03,0-.07-.03-.07-.1-.1-.23,0-.17.1Z"/>
        <path class="st0" d="M761.29,789.89s-.04-.09-.08-.12c-.03-.03-.08-.05-.13-.07-.05,0-.09,0-.14,0-.05.02-.09.05-.12.08-.04.05-.07.1-.08.16-.01.06,0,.12.01.17l.36.73s.01.05.03.07c0,.04,0,.07.03.1.02.03.05.05.08.07.03.01.07.02.1.01.03,0,.07-.02.09-.05l.07-.07s.05-.07.06-.11c.01-.04.01-.08,0-.13l-.3-.86Z"/>
        <path class="st0" d="M760.89,802.59s-.07,0-.09.02c-.03.01-.05.03-.07.05-.03.03-.04.05-.05.08-.01.03-.01.06-.01.09v.13s.01.09.03.13c.03.04.07.07.11.09.05.02.09.03.14.01.05,0,.09-.03.12-.06.04-.05.07-.11.07-.17v-.13s0-.07-.02-.09c0-.03-.03-.05-.05-.08-.02-.02-.05-.03-.08-.05-.03-.01-.06-.02-.09-.02Z"/>
        <path class="st0" d="M761.65,781.46c-.03-.07-.07-.1-.1-.17l-.13-.13s-.08-.07-.13-.09c-.05-.02-.11-.03-.16-.03s-.11.01-.15.03c-.05.02-.09.05-.13.09-.06.06-.1.14-.11.22,0,.09,0,.17.05.25l.23.46c.07.15.12.32.13.5v.7c0,.34-.08.69-.23.99l-.6,1.13c-.03.08-.05.16-.03.25.01.08.05.16.1.22.03.04.07.08.11.1.05.02.1.03.15.03s.1-.01.15-.03c.05-.02.09-.06.12-.1l.5-.5c.12-.12.21-.27.27-.43l.23-.7c.11-.31.16-.64.17-.96v-.3c0-.42-.11-.83-.3-1.19l-.13-.33Z"/>
      </g>
      <path class="st0" d="M684.04,245.01c-1.82-5.87,57.63-6.02,57.63,31.22,0,24.9-35.55,36.72-35.55,62.58,0,12.08,12.98,20.92,16.95,20.92-9.18-41.55,28.7-19.81,38.93-12.04-20.34-55.74,25.43-55.52,20.93-81.13-3.13-17.91-42.91-12.49-57.3-21.55-25.54-16.09-55.77-78.64-75.7-16.09,37.18,34.45,15.54,85.18-31.61,85.18-.15,2.68-.09,5.36.19,8.03,56.22-2.75,75.81-44.04,65.51-77.11Z"/>
      <path class="st0" d="M318.1,347.69c10.26-7.77,48.11-29.51,39,12.04,3.94,0,16.92-8.84,16.92-20.92,0-26.01-35.58-37.68-35.58-62.58,0-37.16,59.49-37.16,57.67-31.22-10.3,33.07,9.33,74.33,65.55,77.11.2-2.67.2-5.36,0-8.03-47.15,0-68.75-50.73-31.64-85.18-19.89-62.55-50.12,0-75.67,16.09-14.39,9.07-54.17,3.72-57.3,21.55-4.5,25.61,41.23,25.27,20.9,81.13h.15Z"/>
      <path class="st0" d="M508.87,322.57h62.21s.02.07.03.11,23.36,0,23.36,0c0,0,19.07-30.29,23.87-42.55,17.18-44.04-4.8-62.06-36.88-62.06l-41.5,48.57-41.46-48.72c-32.12,0-54.06,18.02-36.85,62.06,4.76,12.26,23.83,42.55,23.83,42.55,0,.01,0,.02,0,.04,0,.01,23.39,0,23.39,0Z"/>
    </g>
    <circle class="st0" cx="541.44" cy="211.06" r="20.24"/>
  </g>
  <path class="st0" d="M574.7,616.17c-1.68-6.52-3.03-12.22-4.6-17.89-1.23-4.56-1.68-13.18,3.61-13.18,2.87,0,1.71,8.01,1.45,11.41-.23,3.03.85,4.86,3.28,4.94,1.54.07,3.46-1.88,4.56-3.18,7.71-8.7,9.46-22.15.47-28.62-7.56-5.45-26.4-1.38-31.57,6.36-.76-2.92-4.51-7.75-6.31-9.86-1.73-2.02-2.2-3.44.22-5.24,1.14-.88,4.56-4.29,4.56-7.82,0-2.11-1.63-5.95-6.76-5.95-4.05,0-8.58,2.8-8.58,9.08,0,1.38.35,2.89,1.23,4.5-1.83-.31-5.9-.31-9.37.03v-.02c-.9.07-1.87.17-2.87.29l40.48,111.23c.54,1.49-.22,3.13-1.71,3.67-1.39.5-2.91-.14-3.54-1.45l-50.88-139.79c-.54-1.49-2.18-2.25-3.67-1.71-1.49.54-2.25,2.18-1.71,3.67l9.61,26.4s-.09.02-.09.02c-8.89,2.11-23.2,8.61-23.2,17.2,0,11.45,20.23,18.88,31.95,18-.59,2.61.07,4.94,1.9,7.05-4.25,0-12.26,1.99-14.9,4.82-6.19-5.79-15.89-7.9-20.52-4.37-4.63,3.53-4.79,9.54.07,16.32,3.37,4.72,4.63,9.35.85,14.8,14.09,0,8.92-18.36,14.44-18.36-.73,3.56-.26,7.66,1.35,12.22,1.07,3.03,1.07,5.17-.76,8.13-4.56,7.26-11.62,23.98-10.65,39.06-4.63-.03-6.99-1.14-5.38-7.47.62-2.33-.83-4.01-2.75-1.14-2.11,3.18-3.15,8.66-3.15,11,0,13.45,16.01,16.17,22.15,13.33,17.69,17.12,52.44,12.57,64.09,6.81,9.28-3.94,29.15-14.56,29.15-33.13v-.19c0-10.11-14.9-6.79-22.15,1.14-2.33-12.83-4.41-24.67-6.66-36.46-.54-3.3,1.11-4.44,3.72-5.45,8.77-3.25,22.51-.6,22.06,12.07-.12,2.87,3.91,2.87,4.2-.07,2.64-18.97-10.18-24.45-23.64-22.22ZM500.01,672.52c-1.26-6.9,8.35-19.26,20.57-31.17-2.61,7.76-1,21.13,4.13,25.78-8.85-.05-19.38,1.64-24.71,5.39Z"/>
</svg>