<?xml version="1.0" encoding="UTF-8"?>
<svg id="_Слой_1" data-name="Слой_1" xmlns="http://www.w3.org/2000/svg" version="1.1" viewBox="0 0 1920 1080">
  <defs>
    <style>
      .st0, .st1 {
        fill: #1f4984;
      }

      .st1 {
        fill-rule: evenodd;
      }
    </style>
  </defs>
  <path class="st0" d="M744.72,531.44c0,13.33-4.55,23.83-13.67,31.5-9.01,7.58-22.01,11.8-38.98,12.66v10.93h-21.44v-11.08c-17.07-.96-30.17-5.22-39.28-12.8-9.01-7.67-13.52-18.08-13.52-31.22s4.51-23.59,13.52-31.07c9.11-7.58,22.2-11.89,39.28-12.95v-10.36h21.44v10.21c16.97.96,29.97,5.28,38.98,12.95,9.11,7.67,13.67,18.08,13.67,31.22ZM692.07,557.34c10.17-.96,17.74-3.55,22.73-7.77,4.99-4.31,7.48-10.4,7.48-18.27,0-15.35-10.07-23.88-30.21-25.61v51.65ZM640.42,531.44c0,15.15,10.07,23.79,30.21,25.9v-51.65c-10.27.96-17.89,3.55-22.87,7.77-4.89,4.12-7.34,10.12-7.34,17.98ZM828.94,560.5h-46.76l-8.92,21.58h-23.88l44.89-100.7h23.02l45.03,100.7h-24.46l-8.92-21.58ZM821.61,542.81l-15.97-38.56-15.97,38.56h31.94ZM980.39,563.09v39.85h-21.58v-20.86h-71.07v20.86h-21.58l.15-39.85h4.03c6.04-.19,10.31-4.6,12.8-13.24,2.49-8.63,4.03-20.95,4.6-36.97l1.15-31.51h77.4v81.72h14.1ZM908.31,515.04c-.48,11.99-1.49,22.06-3.02,30.21-1.53,8.06-3.88,14-7.05,17.84h45.03v-62.73h-34.53l-.43,14.67ZM1088.44,481.38v100.7h-23.31v-41.29h-45.75v41.29h-23.31v-100.7h23.31v39.71h45.75v-39.71h23.31ZM1198,481.38c8.92,0,16.64,1.49,23.16,4.46,6.62,2.97,11.7,7.19,15.25,12.66,3.55,5.47,5.32,11.94,5.32,19.42s-1.78,13.86-5.32,19.42c-3.55,5.47-8.63,9.69-15.25,12.66-6.52,2.88-14.24,4.32-23.16,4.32h-20.28v27.76h-23.3v-100.7h43.59ZM1196.71,535.33c7,0,12.32-1.49,15.97-4.46,3.64-3.07,5.47-7.38,5.47-12.95s-1.82-9.97-5.47-12.95c-3.64-3.07-8.97-4.6-15.97-4.6h-18.99v34.96h18.99ZM1306.57,583.81c-10.45,0-19.9-2.25-28.34-6.76-8.34-4.51-14.91-10.69-19.71-18.56-4.7-7.96-7.05-16.88-7.05-26.76s2.35-18.75,7.05-26.62c4.79-7.96,11.37-14.19,19.71-18.7,8.44-4.51,17.89-6.76,28.34-6.76s19.85,2.25,28.2,6.76c8.34,4.51,14.91,10.74,19.71,18.7,4.79,7.86,7.19,16.74,7.19,26.62s-2.4,18.8-7.19,26.76c-4.79,7.86-11.37,14.05-19.71,18.56-8.34,4.51-17.75,6.76-28.2,6.76ZM1306.57,563.95c5.95,0,11.32-1.34,16.11-4.03,4.8-2.78,8.54-6.62,11.22-11.51,2.78-4.89,4.17-10.45,4.17-16.69s-1.39-11.8-4.17-16.69c-2.69-4.89-6.43-8.68-11.22-11.37-4.79-2.78-10.17-4.17-16.11-4.17s-11.32,1.39-16.11,4.17c-4.8,2.69-8.58,6.47-11.37,11.37-2.69,4.89-4.03,10.45-4.03,16.69s1.34,11.8,4.03,16.69c2.78,4.89,6.57,8.73,11.37,11.51,4.79,2.69,10.17,4.03,16.11,4.03ZM1427.24,583.81c-10.26,0-19.56-2.21-27.91-6.62-8.25-4.51-14.77-10.69-19.56-18.56-4.7-7.96-7.05-16.93-7.05-26.9s2.35-18.89,7.05-26.76c4.79-7.96,11.32-14.15,19.56-18.56,8.35-4.51,17.7-6.76,28.06-6.76,8.73,0,16.59,1.53,23.59,4.6,7.1,3.07,13.05,7.48,17.84,13.24l-14.96,13.81c-6.81-7.86-15.25-11.8-25.32-11.8-6.23,0-11.8,1.39-16.69,4.17-4.89,2.69-8.73,6.47-11.51,11.37-2.69,4.89-4.03,10.45-4.03,16.69s1.34,11.8,4.03,16.69c2.78,4.89,6.62,8.73,11.51,11.51,4.89,2.69,10.46,4.03,16.69,4.03,10.07,0,18.51-3.98,25.32-11.94l14.96,13.81c-4.79,5.85-10.74,10.31-17.84,13.38-7.1,3.07-15.01,4.6-23.74,4.6ZM1529.52,583.81c-10.26,0-19.56-2.21-27.91-6.62-8.25-4.51-14.77-10.69-19.56-18.56-4.7-7.96-7.05-16.93-7.05-26.9s2.35-18.89,7.05-26.76c4.79-7.96,11.32-14.15,19.56-18.56,8.35-4.51,17.7-6.76,28.06-6.76,8.73,0,16.59,1.53,23.59,4.6,7.1,3.07,13.05,7.48,17.84,13.24l-14.96,13.81c-6.81-7.86-15.25-11.8-25.32-11.8-6.23,0-11.8,1.39-16.69,4.17-4.89,2.69-8.73,6.47-11.51,11.37-2.69,4.89-4.03,10.45-4.03,16.69s1.34,11.8,4.03,16.69c2.78,4.89,6.62,8.73,11.51,11.51,4.89,2.69,10.46,4.03,16.69,4.03,10.07,0,18.51-3.98,25.32-11.94l14.96,13.81c-4.79,5.85-10.74,10.31-17.84,13.38-7.1,3.07-15.01,4.6-23.74,4.6ZM1586.28,481.38h23.16v65.6l48.05-65.6h21.87v100.7h-23.02v-65.46l-48.05,65.46h-22.01v-100.7ZM1704.44,481.38h23.17v65.6l48.05-65.6h21.87v100.7h-23.02v-65.46l-48.05,65.46h-22.01v-100.7Z"/>
  <g>
    <g>
      <path class="st1" d="M361.44,303.34c-2.23,2.09-6.68,5.29-13.79,6.39,1.08-7.11,4.28-11.55,6.38-13.78.63-.67.15-1.75-.76-1.75h-21.38c-.92,0-1.39,1.09-.76,1.75,2.1,2.23,5.3,6.67,6.38,13.79-7.12-1.08-11.56-4.28-13.79-6.38-.67-.63-1.75-.15-1.75.76v21.38c0,.92,1.09,1.39,1.75.76,2.23-2.1,6.67-5.3,13.78-6.38-1.09,7.1-4.29,11.56-6.39,13.79-.62.67-.15,1.75.76,1.75h21.41c.91,0,1.39-1.08.76-1.75-2.09-2.23-5.29-6.68-6.38-13.78,7.1,1.09,11.55,4.29,13.78,6.38.67.62,1.75.15,1.75-.76v-21.41c0-.91-1.08-1.39-1.75-.76Z"/>
      <g>
        <g>
          <path class="st0" d="M556.34,505.89c-5.47,2.77-37.53,17.8-78.61,12.23.42-1.95.77-3.94,1.09-5.92,27.34-3.28,49.56-7.91,63.72-15.8,16.15-9,23.2-30.44,15.07-46.39-.22-.4-.8-.47-1.09-.13-4.48,5.14-32.55,35.69-76.79,45.18-.11-2.28-.33-4.59-.62-6.85,21.49-12.18,42.47-26.23,52.44-39.06,15.11-19.41,13.72-44.16-.66-56.79-.15-.13-.35-.18-.53-.15-.2.02-.38.13-.46.31-4.54,7.49-47.1,76.26-93.81,105.95-.58.35-1.15.73-1.73,1.06-1.33.82-1.48,2.55-.36,3.59,5.39,4.87,8.73,11.67,8.73,19.21,0,13.12-10.1,24.02-23.46,26.39-6.78,1.31-16.59.93-26.01-2.17-.42-.13-.86.13-.86.58v41.52c0,.67,1.02.84,1.26.2,5.72-15.15,22.84-18.39,30.35-18.39,2.46,14.76,6.67,27.19,12.12,34.77,4.38-7.4,14.4-12.36,14.82-12.52-5.65-6.54-10.7-14.78-12.65-24.57,1.9-.66,3.79-1.42,5.58-2.31,5.63,9.33,13.12,17.9,20.27,23.64,11.34-3.28,21.49-.69,23.33,9.15,9,.15,16.44-3.81,20.54-10.9.22-.38-.04-.86-.51-.91-9.52-.75-38.77-9.15-51.22-29.58,1.42-1.31,2.81-2.68,4.12-4.12,13.03,9.92,31.46,18.7,44.64,20.47,15.44,2.11,32.92-2.84,33.35-20.78,0-.35-.31-.66-.69-.64-5.49.33-41.83,1.9-67.71-12.94.91-1.7,1.73-3.46,2.5-5.23,0,0,39.1,9.24,57.65,6.18,18.41-3.04,29.2-16.77,27.12-33.86-.04-.38-.53-.62-.93-.42Z"/>
          <path class="st0" d="M335.6,722.55s-9.44,27.16-9.24,46.9c.09,9.19,13.8,15.47,15.84,16.35,2.5-.93,16.09-7.46,16-16.66-.18-18.7-9.15-43.89-10.1-46.48-2.26,2.39-9.86,1.64-12.5-.11Z"/>
          <path class="st0" d="M311.72,716.84c-3.92-1.24-9.35-5.7-10.35-7.53-15.64,7.89-29.29,18.63-33.08,29.89-2.28,6.8,5.61,15.97,15.09,17.75.18.05.33,0,.49-.09.13-.09.24-.25.27-.42,2.97-16.59,15.24-30.62,27.58-39.59Z"/>
          <path class="st0" d="M317.41,720.47c-9.57,8.46-17.35,19.85-20.16,32.53-1.95,8.71,7.82,16.44,15.84,18.5.4.11.8-.18.82-.58,1.15-21.43,9.55-40.04,18.01-50.45.15-.18.02-.29-.33-.13-2.7,1.2-10.61,3.59-14.18.13Z"/>
          <path class="st0" d="M372.11,725.7s-5.74.75-9.13-3.72c-1.77,1.29-9.7-.64-11.06-1.33,8.58,10.3,17.17,28.56,18.72,49.72.02.4.42.66.82.56,7.97-2.22,17.57-10.15,15.46-18.81-2.39-9.93-7.86-18.99-14.82-26.41Z"/>
          <path class="st0" d="M399.19,718.63c-4.38,5.89-13.45,3.41-13.49,3.41-1.22,1.64-4.3,1.97-4.3,1.97,8.82,8.29,16.31,19.01,18.75,31.26.04.18.13.31.29.4.15.09.31.13.49.09,9.44-1.95,17.17-11.28,14.71-18.06-2.44-6.76-8.51-13.3-16.44-19.08Z"/>
          <path class="st0" d="M422.74,468.29c-6.85-6-16.71-5.87-22.38-4.12,3.7-4.54,12.34-8.29,14.89-8.73,1.95.71,7.49,6.43,7.49,12.85Z"/>
          <path class="st0" d="M444.63,443.41c-4.5-24.11-60.55-8.13-88.78-18.39-.53,7.02,8.68,18.3,17.52,22.47-15.09,13.09-28.65,39.48-31.37,71.72-2.73-32.24-16.28-58.63-31.37-71.72,8.82-4.17,18.06-15.44,17.53-22.47-28.23,10.24-84.28-5.74-88.8,18.39-.95,5.1,1.51,12.87,4.17,15.11.47-1.62,2.95-6.91,10.77-8.09,39.48-5.96,72.45,54.9,42.69,79.49-.44.38-.2,1.07.42,1.07h89.22c.6,0,.87-.69.42-1.07-29.78-24.62,3.19-85.45,42.69-79.49,7.82,1.2,10.28,6.47,10.77,8.09,2.64-2.24,5.1-10.01,4.12-15.11Z"/>
          <path class="st0" d="M261.02,468.29c6.87-6,16.73-5.87,22.38-4.12-3.7-4.54-12.34-8.29-14.87-8.73-1.95.71-7.51,6.43-7.51,12.85Z"/>
          <path class="st0" d="M478.91,602.51c-.07-.07-.02-.18.07-.18.02,0,.05,0,.07-.02l.2-.2s.07-.09.07-.13c0-.11-.09-.2-.2-.2h-.25c-.07,0-.13.02-.2.04l-.29.16c-.09.04-.22.02-.29-.05l-.29-.29s-.13-.02-.13.07c0,.05-.04.09-.09.09h-.02c-.07,0-.13-.09-.09-.15l.16-.33s.04-.09.04-.15v-.44c0-.35-.13-.71-.4-.95-.11-.11-.22-.18-.35-.24l-.29-.16s-.09-.02-.13-.02h-.11c-.29,0-.4-.4-.13-.53.02,0,.04-.02.07-.05l.26-.22c.18-.15.31-.33.4-.53l.13-.27s.02-.04.02-.07c0-.09-.07-.15-.16-.13l-.33.05h-.09c-.18-.07-.18-.29,0-.35h.02s.02,0,.05-.02l.29-.18c.25-.16.25-.49.02-.67-.02-.02-.05-.02-.07-.04l-.02-.02c-.13-.13-.22-.33-.22-.53v-1.02c0-.13-.11-.22-.25-.18-.02,0-.04.02-.07.02l-.09.07c-.11.09-.22.13-.35.15l-.09.02-.13.02c-.09,0-.18.02-.29.04l-.69.18-.29.09c-.18.07-.36.09-.56.09l-1.06.02h-.15c-.42,0-.84.2-1.09.53-.09.11-.16.22-.2.35l-.16.38c-.02.07-.09.13-.15.2l-.16.13s-.02.02-.02.05,0,.04.02.04l.2.16s.05.07.05.11c0,.09-.09.15-.18.13l-.29-.09c-.07-.02-.11-.04-.16-.09l-.18-.18c0,.18-.25.26-.33.42l-.04.07c-.05.09-.11.18-.2.24l-.18.18-.11.11c-.07.07-.05.18.07.2.02,0,.07,0,.09-.02l.09-.07c.09-.07.2-.09.31-.07l.38.09.33.13c.13.04.22.18.22.33,0,.2.15.36.35.36h.15s.05,0,.07.02l.13.07c.09.05.07.2-.04.2-.07,0-.11.05-.11.11v.24c0,.11-.09.2-.2.2-.05,0-.09-.02-.13-.07l-.02-.02c-.11-.11-.29-.11-.4,0-.05.05-.11.09-.2.09h-.38c-.18,0-.33-.15-.33-.33,0-.13-.07-.25-.18-.31l-.29-.16s-.09-.04-.13-.09l-.86-.64c-.11-.07-.22-.13-.36-.16l-.07-.02h-.05c-.13,0-.24.11-.24.24v.16c0,.09-.09.15-.18.13h-.02s-.07-.04-.07-.09c0-.02,0-.04-.02-.07l-.13-.18c-.07-.09-.18-.18-.26-.22l-.07-.05c-.2-.11-.44-.11-.64-.07l-.18.05s-.05.02-.07.04c-.11.11-.04.26.09.31l.11.02c.16.02.2.2.09.31l-.15.15c-.2.2-.53.13-.64-.11-.02-.02-.02-.07-.04-.09l-.02-.02c-.13-.13-.33-.15-.49-.02-.02.02-.04.02-.04.05l-.29.18c-.13.09-.33.07-.44-.04-.05-.05-.11-.09-.18-.09h-.05c-.09-.02-.18,0-.26.02l-.6.25c-.07.02-.13.07-.2.11l-.51.35c-.13.09-.29.07-.4-.04-.07-.07-.13-.09-.22-.09h-.04c-.07,0-.13.02-.2.04l-.73.36c-.18.09-.38.04-.51-.09-.02-.04-.07-.07-.11-.09l-.09-.04c-.24-.13-.55-.16-.82-.07l-.2.07c-.13.04-.27.11-.38.18l-.2.13c-.29.2-.64.29-.98.29h-.55c-.18,0-.35.07-.49.2l-.05.04s-.07.05-.09.07l-.35.18c-.07.04-.16-.02-.16-.09,0-.07.05-.11.11-.11h.02c.07,0,.13-.07.13-.13s-.07-.13-.13-.13h-.09s-.07,0-.11.02l-.33.16c-.11.07-.22.13-.31.22-.09.09-.2.18-.31.22l-.2.09c-.11.07-.25.09-.38.09h-.11c-.16,0-.31.07-.42.18-.07.07-.13.11-.22.15l-1.48.49s-.04.02-.07.02h-.07c-.09,0-.16.07-.16.15v.07c0,.13-.15.18-.24.09-.02-.02-.07-.05-.09-.05h-.07c-.09,0-.18.05-.24.11l-.98,1.24-.77.77s-.09.07-.13.07h-.13c-.11,0-.18.15-.09.25.02.02.04.07.04.09v.02c0,.11-.09.2-.2.2h-.24c-.07,0-.13.02-.2.05l-.29.13c-.11.07-.22.13-.31.22s-.2.18-.31.22l-.38.2-.77.51s-.09.05-.11.07l-.09.02c-.31.11-.4.49-.18.73.04.04.07.07.09.11l.18.35c.04.09.07.2.07.29v.29c0,.22.18.4.4.4h.02c.09,0,.18-.04.22-.09.11-.11.26-.13.4-.05l.64.4c.31.18.53.49.6.84l.09.44c.05.22.02.47-.09.69l-.07.13c-.02.07-.05.13-.05.2,0,.25-.2.44-.44.44h-.13c-.15,0-.31-.07-.42-.18l-.04-.04c-.2-.2-.51-.26-.77-.18l-.67.22c-.33.11-.71.02-.97-.22-.09-.09-.2-.16-.31-.2l-.95-.4c-.13-.05-.29-.02-.4.09-.07.07-.11.15-.11.26v.84c0,.24-.09.49-.26.66l-.02.02c-.15.15-.38.24-.6.24-.13,0-.26.02-.38.09l-.15.07c-.16.07-.29.18-.4.29l-.42.42c-.16.16-.33.27-.53.33l-.4.13c-.07.02-.15.02-.22-.02l-.24-.11c-.09-.04-.2.02-.2.11,0,.05-.02.07-.05.09l-.44.44s-.11.09-.2.09-.2.07-.25.15l-.2.38s-.02.02-.02.05v.22s0,.02-.02,0h-.02l-.04.09s0,.02-.02.02l-.16.15c-.18.18-.22.44-.11.66l.07.11s0,.02-.02.02h-.11c-.07,0-.13-.07-.13-.13,0-.07-.07-.13-.13-.13-.07,0-.13.07-.13.13v.64c0,.15-.2.2-.26.07,0-.02-.02-.02-.02-.05l-.09-.09c-.26-.26-.66-.35-1.02-.24l-.07.02c-.11.04-.25.07-.35.07h-.11c-.47,0-.89-.31-1.04-.75-.02-.05-.04-.11-.07-.16l-.09-.2c-.27-.51-.76-.86-1.31-.95l-1.57-.25c-.42-.07-.84.02-1.2.25l-3.54,2.24c-.16.11-.31.22-.42.38l-.95,1.15c-.16.18-.33.31-.53.42-.49.25-1.06.25-1.53,0l-.31-.15-.69-.35c-.25-.13-.53-.2-.82-.2h-.84c-.07,0-.13,0-.2-.02l-.77-.2c-.11-.02-.2.04-.2.15,0,.05-.02.09-.04.11l-.09.09c-.09.09-.2.13-.33.13h-.22c-.09,0-.18-.05-.24-.11-.11-.11-.13-.26-.07-.4l.11-.22c.05-.07.09-.13.16-.15.22-.11.26-.4.09-.58l-.16-.16s-.04-.04-.09-.07l-.13-.09c-.42-.29-.93-.38-1.42-.25l-.31.09-.13.05c-.44.15-.82.46-1.02.89l-.76,1.51-1.02,1.81s-.09.09-.16.09c-.09,0-.18-.09-.18-.18v-.29c0-.07-.02-.11-.07-.15-.11-.11-.07-.29.07-.36l.25-.11s.07-.04.09-.07l.04-.04c.11-.11.11-.29,0-.4-.04-.05-.09-.11-.09-.2v-.11c0-.2.11-.38.29-.49l.2-.11s.07-.05.09-.09c.09-.16-.09-.33-.24-.25l-.05.02-1.31.8s-.07.04-.09.07l-.22.22c-.13.13-.38.11-.47-.07-.07-.11-.04-.25.05-.33l.58-.58c.07-.07.18-.11.26-.11.07,0,.16-.02.22-.07l.71-.49s.02,0,.02-.02c.11-.05.07-.2-.05-.2l-2.11.2s-.07,0-.09.02l-2.68.95c-.2.07-.4.11-.59.11h-.96c-.07,0-.11.02-.18.04l-.15.09c-.16.07-.18.29-.07.4.02.02.05.05.07.05l.04.02c.26.13.4.44.31.73v.02c-.07.2-.22.33-.4.4l-.13.05c-.24.09-.44.26-.55.51l-.33.8c-.04.11-.02.22.07.31.09.09.2.11.31.05.18-.09.38.04.38.24v.02c0,.07.02.13.09.2l.11.11s.09.11.13.18l.16.31c.04.09.07.18.07.29v.09c0,.2.11.36.26.44l.09.04c.11.07.2.18.2.31v.07c0,.15-.13.26-.26.26h-.11c-.09,0-.15.07-.15.15,0,.13-.18.22-.26.11l-.2-.2s-.11-.09-.2-.09h-.02c-.09,0-.18.05-.25.09l-.07.07c-.07.07-.18.11-.26.11-.22,0-.4.18-.4.4v.25c0,.46-.49.77-.91.55l-.07-.02c-.07-.05-.13-.07-.2-.07l-.76-.11c-.64-.09-1.26.16-1.66.67l-.05.07c-.09.11-.2.22-.33.33l-.25.18c-.42.31-.95.42-1.44.29-.18-.05-.36-.13-.51-.22l-.49-.31c-.07-.04-.13-.11-.16-.18l-.13-.25c-.05-.11,0-.22.09-.26l.04-.02c.13-.07.13-.26,0-.31-.11-.07-.24.02-.26.13l-.24,2.19-.27,2.9c0,.07-.04.13-.09.18l-.04.04c-.09.09-.25.09-.33,0l-.25-.24s-.13-.02-.13.07c0,.05-.05.09-.09.09h-.31c-.11,0-.2-.04-.26-.11l-.11-.11s-.07-.09-.07-.13c0-.11-.09-.2-.2-.2h-.35c-.18,0-.35-.09-.44-.25l-.86-1.29c-.04-.09-.15-.13-.24-.13-.07,0-.13-.02-.2-.09-.11-.11-.11-.29,0-.4l.13-.13c.13-.13.18-.35.09-.53l-.11-.22s-.02-.02-.05-.05l-.2-.09c-.07-.02-.11.04-.07.09.02,0,.02.02.02.05v.13c0,.07-.02.13-.09.2-.11.11-.29.11-.4,0l-.29-.29s-.09-.11-.13-.18l-.05-.11s-.04-.09-.09-.15c-.38,7.46-7,13.4-15.11,13.4h-16.26c-11.65,0-19.25,11.72-19.25,11.72,0,0-7.6-11.72-19.25-11.72h-16.26c-8.35,0-15.13-6.29-15.13-14.07v-.69c-.07.02-.13.07-.18.11l-.11.11s-.04.02-.07.02c-.09,0-.13-.11-.07-.18l.07-.07s.04-.07.04-.09v-.15c0-.2-.11-.38-.29-.49l-.22-.11s-.07-.02-.09-.02h-.18c-.13,0-.18-.15-.09-.25.02-.02.04-.07.04-.09v-.02c0-.11.09-.2.2-.2h.24c.07,0,.13.02.2.04.15.09.33.07.49-.02v-1.7c-.09-.02-.2-.02-.29,0l-.89.18c-.13.02-.18.2-.09.29.02.02.04.07.04.11v.09c0,.22-.18.4-.4.4-.11,0-.2-.05-.27-.11l-.07-.07c-.07-.07-.09-.16-.09-.25v-.07s.02-.09.07-.13c.11-.11.07-.26-.07-.31l-.46-.15s-.11-.02-.16-.02h-.84c-.11,0-.22-.04-.29-.13-.09-.09-.22-.13-.38-.11l-1.11.2c-.2.04-.4.04-.6,0l-1.29-.22s-.07-.02-.07-.05l-.11-.11s-.13-.02-.13.07c0,.04-.04.09-.09.09h-.07c-.07,0-.13.07-.13.13v.11c0,.13-.2.18-.27.07-.02-.02-.04-.05-.07-.07l-.47-.22s-.07-.05-.09-.07c-.13-.13-.35-.15-.49-.02l-.82.62-.24.25c-.51.51-1.26.66-1.93.4l-.07-.02c-.13-.05-.27-.13-.38-.22l-.27-.22c-.38-.29-.53-.8-.38-1.24.02-.05.04-.09.07-.13l.07-.11c.11-.24.11-.51,0-.73-.2-.4-.04-.91.35-1.11l.27-.13s.11-.04.15-.07l.18-.07c.35-.11.73-.07,1.06.11l.42.24c.27.16.58.11.8-.09l.13-.13s.07-.09.07-.13v-.07c0-.07.07-.13.13-.13s.13-.07.13-.13v-1.09c0-.26-.09-.53-.27-.75l-.42-.56c-.09-.11-.2-.22-.33-.33l-.51-.38c-.24-.2-.44-.46-.55-.77l-.11-.33s-.02-.05-.04-.07c-.09-.09-.24-.02-.24.11v1.46c0,.22-.11.44-.27.58l-1.35,1.13-.71.58c-.4.33-.64.82-.64,1.33s-.24,1.02-.66,1.35l-.42.31-.22.22c-.22.22-.33.51-.33.82l-.49.2-.51.4c-.09.09-.24-.02-.18-.15.02-.04.02-.11-.02-.13l-.24-.24c-.13-.13-.09-.33.07-.42.13-.07.18-.22.13-.33l-.89-1.99c-.04-.09-.13-.16-.24-.16-.07,0-.13.02-.18.07l-.07.07c-.09.09-.2.13-.33.13h-.4c-.15,0-.31.02-.44.07l-.18.07c-.27.09-.55.07-.82-.07l-.09-.05s-.09-.07-.13-.09c-.13-.13-.33-.18-.51-.11l-.35.11c-.11.05-.24.07-.35.07h-.33c-.4,0-.78.13-1.09.38l-.11.09c-.31.24-.53.58-.64.97l-.13.49-.22.91c-.02.11-.11.18-.22.18-.07,0-.11-.02-.15-.07l-.35-.36s-.13-.02-.13.07c0,.04-.04.09-.09.09h-.13s-.07,0-.09-.02l-.16-.07c-.22-.11-.4-.31-.47-.56l-.09-.24c-.04-.13-.11-.27-.18-.38l-.33-.51c-.07-.09-.13-.16-.24-.22l-.33-.16s-.11-.02-.13.02l-.04.05c-.07.07-.18.02-.18-.07,0-.02,0-.04.02-.07l.15-.15c.07-.07.15-.09.24-.09.22,0,.38-.2.33-.4l-.16-.73c-.02-.13-.09-.26-.18-.4l-.24-.31c-.27-.35-.73-.44-1.13-.26-.27.13-.47.4-.49.69l-.18,1.46c-.02.11.09.22.2.22.02,0,.07,0,.09.02l.04.02c.24.11.33.42.18.64l-.22.33s-.07.09-.11.13l-.58.58c-.11.11-.29.11-.4,0l-.02-.02s-.09-.07-.13-.07h-.13s-.07.02-.07.07c0,.07-.09.09-.11.04l-.44-.64-.4-.76c-.04-.09-.02-.2.04-.29.04-.04.07-.11.07-.18v-.24c0-.13.02-.27.09-.38l.11-.22c.04-.09.07-.2.07-.29v-.4c0-.16-.13-.27-.27-.27-.15,0-.27-.13-.27-.26v-.71c0-.24.09-.49.27-.66l.95-1.2c.07-.09.13-.2.2-.31l.15-.31s.04-.09.07-.15l.2-.58c.02-.09.13-.16.22-.16.07,0,.13.02.18.07.11.11.29.11.4,0l.49-.49s.13-.02.13.07c0,.04.04.09.09.09h.07c.07,0,.13-.05.15-.13l.22-1.24c.02-.18.02-.36-.04-.51l-.35-1.02c-.07-.18.07-.35.27-.35s.33-.22.24-.4l-.31-.64s-.02-.09.02-.13l.02-.02s.02-.09,0-.11c-.02-.02-.04-.02-.07-.02h-.15s-.11-.02-.13-.07l-.11-.11s-.04-.07-.02-.11c0,.02,0,.05.02.07l.11.11s.09.07.13.07h.07c.07,0,.16.02.2.09.07.07.2.02.2-.09v-.73c0-.07.02-.13.04-.18l.2-.42s.02-.07.02-.11c0-.26.35-.35.47-.11l.04.09s.02.07.02.11v.09c0,.07-.07.13-.13.13s-.13.07-.13.13v.93c0,.18.13.31.31.31.13,0,.27.11.29.25l.2.95c.02.07-.04.16-.11.16s-.13.04-.13.13v.07s.02.11.07.13l.16.16s.09.07.13.07c.11,0,.2.09.2.2v.86c0,.2.07.42.18.58l.38.56.82,1.09.82,1.35.2.4c.22.42.6.75,1.06.89l1.62.49c.27.09.53.09.82.05l1.02-.18c.13-.02.24-.07.38-.11l1.04-.42c.09-.02.16-.09.2-.13.11-.11.18-.29.18-.44v-.02c0-.18.07-.35.2-.46l.24-.25c.07-.07.13-.13.18-.22l.2-.31c.16-.24.18-.58.04-.84l-.02-.05s-.07-.09-.09-.13c-.13-.13-.18-.33-.11-.51l.35-1.06c.04-.16-.07-.31-.22-.31-.13,0-.22-.11-.22-.22v-1.37s-.02-.07-.04-.09l-.2-.2s-.02,0-.02.02c0,.02-.02.02-.04,0l-.24-1.66v-2.83c0-.11-.02-.22-.07-.33l-.18-.36s-.04-.04-.09-.04c-.09,0-.11-.09-.07-.16l.04-.04s.04-.11,0-.16l-.13-.13s-.07-.09-.07-.13c0-.11-.09-.2-.2-.2h-.13c-.13,0-.27-.09-.31-.22l-.18-.53s-.04-.09-.07-.15l-.13-.26c-.07-.13-.18-.27-.33-.33l-.11-.04c-.13-.07-.31-.07-.44,0l-.2.11c-.07.05-.15.02-.22-.04-.09-.09-.07-.25.04-.29l.27-.13s.07-.04.11-.07l.29-.29c.11-.11.09-.29-.07-.36l-.07-.04c-.09-.05-.11-.18-.04-.27.07-.07.07-.18,0-.22l-.15-.13s-.02-.02-.04-.02l-.31-.15c-.07-.02-.04-.11.02-.11t.04-.02l.07-.07c.11-.11.11-.29,0-.4l-.04-.05s-.02-.04-.02-.07c0-.09.11-.13.18-.07l.33.33s.07.07.11.07h.02c.31.11.6-.18.49-.49l-.02-.09-.22-.84s-.07-.02-.07,0-.02.02-.02.02h-.62s-.09.04-.09.09c0,.07-.09.11-.13.07l-.09-.09s-.04-.07-.04-.09v-.11c0-.07-.02-.13-.04-.2l-.22-.44v-.05c0-.09-.11-.13-.18-.07l-.07.07s-.04.07-.04.09v.02c0,.11-.09.2-.2.2h-.29s-.09-.02-.11-.07l-.18-.42s-.04-.02-.04,0v.02l-.24.18c-.18.13-.42.18-.62.09l-.49-.2-.27-.09c-.18-.07-.38-.02-.53.09-.02.02-.04.04-.09.04l-.2.11c-.18.09-.38.05-.49-.13-.07-.09-.15-.16-.27-.18h-.09l-.2-.02c-.18-.02-.35.11-.35.31,0,.11-.07.22-.18.26l-.62.31c-.2.09-.35.24-.49.4l-.38.49c-.18.22-.27.49-.27.75,0,.09,0,.18-.02.25l-.24,1.22-.11.42c-.11.4-.4.73-.8.86-.13.05-.27.07-.4.07h-.35c-.33,0-.66.11-.93.33l-1.2.97s-.02.05,0,.07t0,.04l-.73,1.64c-.07.13-.13.26-.24.4l-.62.77c-.2.24-.51.4-.82.4-.2,0-.42.07-.58.18l-.51.33s-.07.04-.11.04h-.02c-.11,0-.2.09-.2.2,0,.05-.02.11-.07.13l-.11.11c-.07.07-.15.11-.24.15l-.33.11c-.24.07-.42.26-.49.49l-.11.31c-.02.09,0,.18.07.25.09.09.09.24,0,.33l-.69.69c-.16.16-.27.36-.31.56l-.02.11c-.11.4-.4.73-.8.86l-.07.02c-.09.02-.18.04-.24.04-.4,0-.73.29-.8.69l-.18,1.22-.11.86c-.09.77-.71,1.4-1.48,1.53l-2.22.35-3.66.26s-.02,0-.02-.02c0,0,0-.02-.02-.02h-1.73c-.11,0-.22,0-.33-.02l-1.15-.22c-.07-.02-.16,0-.22.02-.22.11-.27.4-.09.58l.07.07c.09.09.2.13.31.13h.31s.07.02.09.05l.07.07c.07.07.02.18-.07.18-.02,0-.04,0-.07.02l-.2.2s-.07.09-.07.13v.07c0,.07-.07.13-.13.13s-.13.07-.13.13v.78c0,.11.02.22.07.33l.18.38s.02.02.04.02c.07,0,.07.09.02.09l-.55.13s-.04.02-.07.07c-.02.07-.09.09-.16.05l-.22-.22c-.07-.07-.2-.07-.27,0-.07.07-.2.07-.27,0l-.49-.49c-.11-.11-.29-.11-.4,0l-.02.02s-.09.07-.13.07c-.11,0-.2-.09-.2-.2v-.13c0-.11-.09-.22-.22-.22-.07,0-.13.04-.18.09l-.11.15s-.02.02-.04.05l-.31.22s-.02.05.02.05c.02,0,.04.02.02.05l-.2.31c-.07.11-.2.16-.31.09l-.11-.07c-.11-.07-.24-.07-.38,0l-.2.11c-.07.05-.11.05-.18.05h-.38l-.02.02-.47.64c-.07.11-.15.2-.27.29l-.2.18c-.18.16-.42.25-.66.25h-.2c-.18,0-.33.09-.44.22l-.07.09c-.11.13-.11.33-.02.49.02.02.02.04.02.04.07.16.07.33,0,.49l-.18.33c-.07.13-.24.18-.35.09-.09-.07-.13-.18-.09-.29l.04-.09.04-.18s-.02-.09-.07-.09-.07.02-.07.07l-.02.07c-.02.09-.09.13-.18.13h-.02c-.07,0-.13-.02-.15-.09l-.02-.02c-.09-.11-.22-.13-.33-.07l-.22.13s-.11.05-.18.05h-.22c-.07,0-.13.07-.13.13v.09s.02.04.04.04.04.02.04.07l-.02.2v.05l-.11.35c-.11.31-.29.58-.51.78l-.18.15c-.07.05-.13.09-.22.13l-.31.13c-.15.07-.24.22-.2.38.02.18-.04.35-.16.49l-.51.62-.8.96c-.07.09-.09.18-.09.29,0,.07.04.15.09.2l.16.18.11.11c.11.11.13.26.09.4v.02s-.02.04-.02.07v.09c0,.09.07.15.15.15.04,0,.09.02.13.07l.13.22c.11.18.13.38.07.58l-.2.51s-.02.02-.02.04c-.09.11,0,.26.13.26.04,0,.09.02.13.07l.07.07c.07.09.18.13.29.13h.02c.18,0,.31.11.38.26l.31.86c.04.16.09.31.09.47v.26s0,.07.02.11c.04.09.02.22-.07.29l-.18.13-.6.55-.71.71c-.07.07-.18.11-.27.11-.2,0-.38.15-.38.35v.22l.04.2s.02.04.04.04.04.02.04.05v.09c0,.09-.07.15-.13.15h-.02s-.09.02-.11.05l-.13.13c-.07.07-.11.11-.13.2l-.09.2c-.07.15-.11.33-.13.49l-.04.29c-.02.2-.02.4.02.58l.04.18s.02.11,0,.16c-.02.13-.07.24-.16.33l-.13.13-.11.11c-.11.11-.15.26-.07.42.02.02.04.05.07.07l.04.04c.13.13.22.31.24.49l.04.33c.02.13-.02.25-.11.33-.09.09-.13.2-.11.33l.02.31v.07c-.02.07-.09.13-.18.13h-.29c-.09,0-.2-.02-.29-.07l-.24-.13c-.11-.04-.22-.09-.33-.09-.24,0-.49-.13-.6-.35l-.11-.2c-.11-.18-.27-.31-.47-.38l-.29-.09c-.15-.04-.31,0-.42.11-.04.07-.09.13-.09.2l-.04.36s-.02.11-.04.15l-.07.11s-.09.09-.15.09-.11.02-.15.07l-.35.49-.38.47s-.07.11-.11.18l-.2.42s-.04.04-.07.04c-.07,0-.09.07-.04.11l.09.11s.04.07.02.11l-.02.07c-.02.07.04.13.11.13h.04l.47.18c.13.05.27.05.4-.02l.07-.04c.16-.09.33-.05.44.09.04.04.07.09.09.13l.04.11c.07.22.22.42.44.53l.2.11.18.11c.18.11.31.24.44.4l.24.29c.15.2.24.42.27.66v.07c.02.25-.04.49-.18.71-.09.16-.16.33-.18.51l-.02.31c0,.09-.04.15-.11.22l-.04.04c-.09.09-.22.11-.33.05l-.07-.02c-.13-.07-.29,0-.33.13v.02c-.04.18-.13.31-.27.42-.29.22-.35.62-.18.93l.16.29.49.62c.09.13.13.29.09.42v.02s0,.02-.02.02l-.09.18s0,.09.04.09c.02,0,.04.02.07.05l.04.13s-.02.09-.07.09c-.02,0-.04.02-.07.04l-.07.13-.75,1.24c-.13.22-.09.51.13.67l.2.2c.22.22.4.51.47.82l.02.07.18.51s.02.05.02.09c.02.13.11.27.24.31l.64.2s.04.02.07.02l.78.49s.02.05-.02.05t-.02.02l-.18.96c-.02.07-.02.13-.02.2v.55c0,.11.04.22.13.29l.09.07c.07.07.18.07.24,0,.11-.09.29-.05.31.11l.22.71c.02.07.04.11.07.16l.51.84-.4-.42c-.11,0-2.55.77-3.1.77s-1.88.66-2.22.66-1.22-.66-1.77-.66-.89.66-1,1c-.11.33-.78,0-1.11,0s0,.89-.55.66c-.55-.22-.22-.77-.22-1.44s-.89-2.1-1.11-2.1-1,1.88-1.33,1.11c-.33-.78-.89-.44-1-.78-.11-.33-.55-1.1-.66-1.44-.11-.33-.66-1-.78-.33-.11.67-.33.33-.55.33s-1.22.77-1.22,1-.55.22-.78.11c-.22-.11.33-1.66-.11-1.66-.38,0-.89.84-1.06,1.17.09-.31.24-1,.18-1.07-.11-.11-.78,1.33-1,1-.18-.26-.44-.11-.55,0,.07.16.22.53.22.89s.51,1.04.78,1.33c.07,0,.2.13.33.33-.02.04-.02.07-.02.11.02.16-.15.27-.29.16l-.44-.38s-.11-.07-.18-.09l-1.13-.25s-.11-.02-.15-.02l-.91-.04c-.13,0-.24.11-.22.24,0,.07.04.11.11.16l.22.13c.15.09.27.22.33.38l.38.97c.04.11.02.22-.04.31l-.6.89-.53.24c-.16.07-.24.26-.2.44l.09.38c.04.2.18.38.33.49l.42.31v.02s0,.02.02.02l.95-.02c.11,0,.2.02.31.04l.73.22,1.2.44c.07.02.15.05.22.05h.04c.29.02.55.22.66.49.04.13.13.22.22.31l.66.55c.15.13.4.09.51-.09v-.02c.07-.09.16-.15.27-.15.27,0,.4-.29.24-.51l-.18-.24c-.07-.09-.15-.16-.27-.18l-.13-.02c-.11-.02-.2-.11-.24-.25-.04-.15-.18-.26-.35-.25h-.2c-.24-.07-.4-.29-.38-.55l.07-.69c0,.07.02.13.04.18.29-.44,1.86-1.88,2.22-1.88.44,0,.55.67,1.22.67s1.33,1.33,1.77,1.33.33.77.89.66c.55-.11,1.22.22,1.22.33s.66,1.11,1.33.55c.44-.38.73-.51.84-.55-.11.15-.09.38.09.49.02.02.04.05.07.07l.07.07c.11.11.22.2.38.24l.58.2.49.22c.07.05.11.11.09.2v.05s-.07.09-.11.09-.09.02-.11.07l-.09.25c-.04.09-.18.11-.22.02-.02-.04-.07-.07-.11-.07h-.11c-.07,0-.11-.02-.16-.05l-.38-.2s-.07-.02-.11-.02h-.27s-.04-.02-.04-.07c0-.02,0-.04-.02-.04l-.2-.18s-.11-.07-.18-.07h-.04c-.13,0-.24.11-.24.25v.07l-.07.22-.02.02h-.02l-.18-.2s-.07-.09-.09-.13v-.02c-.07-.11-.16-.22-.24-.29l-.11-.09c-.07-.05-.15-.07-.24-.07-.13,0-.27-.07-.35-.2l-.04-.09c-.07-.09-.2-.05-.2.07v1.29l.07,1.09c0,.07-.09.09-.11.02,0-.02-.02-.02-.04-.02h-.02s-.09-.05-.09-.09l-.02-.46c0-.11-.13-.18-.22-.11l-.13.11-.24.18c-.07.04-.16,0-.16-.07v-.07s.02-.04.04-.04.04-.05.02-.07l-.09-.13s-.11-.07-.15-.05l-.42.22-.27.15c-.16.09-.31.13-.49.13h-.11c-.15,0-.29.04-.4.13l-.04.02c-.09.07-.2.11-.33.11-.11,0-.22-.04-.31-.11l-.55-.4s-.07-.07-.09-.09l-.18-.31c-.09-.15-.31-.11-.33.07v.04c.02.09-.09.18-.18.13l-.2-.11s-.07-.02-.09-.02c-.16,0-.24.16-.16.29l.13.22s.02.07.04.09l.18.71c.04.22.04.44-.02.64-.04.15-.07.31-.07.49l.02.2c0,.07.04.13.07.2l.07.09c.04.07.11.09.18.09.11,0,.22.09.22.22l.02.62v.2c-.02.22.02.47.11.69l.38,1.09c.04.13.09.29.09.44l.15,1.68.04,1.6c0,.33.27.58.6.58.2,0,.4.11.51.26l.18.29.22.27.02.02h.07s.02.02,0,.02v.02l.84,1.68c.07.13.15.26.27.4l.66.73c.38.4,1,.44,1.42.11l.29-.22s.02,0,0,.02l-.78.6c-.15.11-.18.33-.07.47l.44.64c.07.11.13.22.15.35l.29,1.02c.02.09.11.16.2.16.07,0,.11.02.15.07l.02.04c.09.11.24.13.35.09l.42-.18.29-.13c.2-.09.42-.02.53.13l.16.27v.02h-.02l-.15-.26c-.13-.15-.35-.22-.53-.13l-.29.13-.42.18c-.13.05-.27.02-.35-.09l-.04-.07s-.07-.05-.11-.05c-.09,0-.16.09-.13.18l.33,1.09s.02.11.02.18c.02.29.2.53.47.62l.35.13.95.26.07.22v.09c-.02.11.07.22.18.22h.04c.07,0,.13.02.18.09l.24.29c.09.11.16.25.2.38l.09.33c.04.18.13.33.24.44l.02.02s.09.09.11.16v.02c.13.24.44.35.71.22.07-.04.16-.04.24-.04h.35c.09,0,.18.04.24.09l.18.18s.02.02,0,.05c0,.02-.02.02-.04,0l-.2-.18s-.11-.07-.15-.07h-.29c-.16,0-.29.02-.42.09l-.18.09c-.13.07-.27.13-.38.25l-.07.07c-.07.05-.11.11-.15.18-.22.29-.27.67-.13.98l.27.66c.04.11.11.22.18.31l.38.55c.16.25.27.51.29.8l.13,1.24c.02.16.04.29.11.44l.35.93c.11.29.4.49.71.49.09,0,.18-.02.27-.05l.29-.11c.2-.09.42-.11.64-.11h.24c.24,0,.47-.07.66-.2.31-.22.51-.58.51-.95v-1.84l.2-1.77c.04-.44.27-.84.6-1.13l.95-.82s.11-.09.18-.11l.42-.18c.09-.04.13-.13.09-.22-.02-.07-.09-.11-.15-.11h-.04c-.13,0-.24-.11-.22-.27l.07-.58.07-.53c.02-.2,0-.38-.04-.55l-.13-.44c-.11-.38.07-.76.4-.93l.47-.22s.07,0,.09.02t.04.02h.18c.07,0,.11.02.16.07.07.09.22.11.29,0v-.02s.09-.07.16-.07c.04,0,.09-.02.11-.05l.6-.38c.13-.09.29-.15.44-.2l.55-.15c.09-.02.15-.09.2-.16l.07-.11s.07-.07.11-.07h.13s.02,0,.02.02,0,.02.02.02h.11c.07,0,.13.07.11.13-.02.07.04.13.11.13h.02s.09-.02.11-.07l.02-.02c.07-.09.18-.13.29-.07l.55.38s.09.09.09.15l.02.16s0,.02.02.02h.02l.27-.24s.04-.02.07-.02h.04s.04.02.04.07c0,.05.04.09.09.05l.07-.09.09-.09c.09-.09.24-.07.31.04.02.05.02.09.02.13v.09c0,.09-.04.16-.09.22l-.13.15v.02c-.02.07.07.13.11.09l.44-.38.66-.49c.07-.05.13-.09.22-.11l.66-.22s.04,0,.04.02c.02.05.07.02.07-.02l-.4-1.8c-.02-.07.02-.11.09-.11.02,0,.07.02.09.04l.2.31c.07.11.2.18.33.18.2,0,.35-.13.38-.33l.2-1.44c.02-.09.02-.18.02-.24v-1.31c0-.47-.18-.93-.51-1.26l-.02-.02-.31-.4c-.07-.09-.2-.09-.27-.02-.07.07-.18.07-.27,0l-.04-.05c-.07-.07-.09-.15-.07-.24l.13-.46c.04-.13.11-.27.2-.38.2-.24.29-.55.24-.86l-.02-.24c0-.07-.02-.13-.04-.2l-.11-.36c-.07-.22,0-.49.18-.64.2-.18.27-.47.16-.71l-.04-.11s-.02-.04-.02-.07l-.15-.49s0-.02.02-.02h.02l.15.49s.02.07.04.09l.02.05c.13.26.44.38.71.24.04-.02.09-.07.13-.09l.04-.05c.11-.11.27-.18.42-.18h.11c.27,0,.47-.22.47-.46,0-.05,0-.11.02-.15l.09-.25c.11-.33.31-.62.6-.84l.31-.25c.22-.15.47-.29.73-.33l.82-.15c.09-.02.18-.07.24-.13.22-.22.58-.18.73.09l.35.6c.09.13.13.31.13.47v.26c0,.53.53.89,1.04.69.2-.09.35-.25.42-.46l.4-1.22c.02-.07.09-.11.15-.11.09,0,.15.07.15.16v.04s.02.11.07.13l.09.09c.09.09.2.13.33.13h.91c.18,0,.35-.07.49-.2.04-.05.09-.11.11-.16.13-.26.44-.4.73-.33l1.26.33c.27.07.53.05.78-.09l.51-.25c.13-.07.29-.04.4.07l.02.02s.13.09.2.09c.09,0,.18.04.24.13l.16.27c.07.11.11.24.11.35,0,.22.11.42.29.55l.27.18c.18.11.38.18.58.18h.24c.44,0,.8.35.8.8,0,.35.22.64.55.75l.07.02c.13.05.27.11.35.22l.22.22c.11.11.22.26.29.4.11.22.15.44.15.69,0,.13.02.24.04.38l.44,1.75c.04.13,0,.29-.11.38l-.04.05s-.09.11-.09.2c0,.2.22.33.4.24l.07-.02c.07-.02.11-.09.13-.13l.09-.2c.07-.13.24-.16.35-.07.04.04.09.07.13.07.11,0,.2.09.2.2v.4c0,.15.07.31.18.42l.29.29c.07.07.11.13.16.2.13.26.4.44.71.44.2,0,.42-.09.55-.22.2-.2.49-.26.75-.2l.47.11c.11.02.22.07.33.13l.6.31c.2.11.38.26.49.49l.09.18s.02.07.02.09c0,.13.11.22.22.22h.22c.07,0,.13-.02.2-.05l.04-.02c.24-.13.55-.07.75.11l.09.09c.09.09.22.13.33.13.2,0,.4.13.47.33l.09.26c.04.16.04.31-.02.46-.11.2-.09.44.04.62l.86,1.24c.18.24.44.38.73.38h.2c.11,0,.22-.05.31-.13l.04-.04c.18-.18.49-.13.6.09v.02s.02.09.02.13c0,.13.07.25.18.29l.91.4c.49.22,1.06.13,1.48-.22.55-.44.66-1.24.31-1.84l-.18-.29-.71-.93c-.04-.07,0-.15.07-.15.04,0,.09-.05.09-.09v-.13s0-.07-.02-.09l-.2-.42c-.02-.07-.04-.13-.04-.2v-.33c0-.07-.04-.11-.11-.11h-.13s-.04-.02-.02-.05l.02-.02h.13l.71.18c.22.07.47.07.69,0l.09-.02c.4-.11.73-.4.86-.8l.02-.05c.02-.09.04-.2.04-.31v-.2c0-.13.04-.25.13-.33l.04-.05c.07-.07.15-.09.24-.09s.18-.04.24-.09l.04-.04c.09-.09.18-.13.29-.13.07,0,.13.02.2.05l.97.51c.22.16.49-.09.38-.33l-.09-.2-.27-.4c-.18-.25-.13-.58.09-.8l.15-.16s.04-.04.09-.04c.13,0,.15-.18.04-.22l-.09-.04s-.02-.02-.04-.02l-.38-.38c-.07-.07-.02-.18.07-.18.02,0,.04,0,.07-.02l.44-.44s.04-.11,0-.15c-.07-.07-.02-.2.09-.2h.64c.11,0,.2.09.2.2,0,.04.02.11.07.13l.11.11c.07.07.15.11.24.16l.64.22s.09.02.11.05l.35.18c.09.05.16.13.16.25,0,.07.02.13.09.2.11.11.29.11.4,0,.04-.05.13-.09.2-.09h.47c.15,0,.31.02.47.09l.58.2,2.48.51c.15.02.31.09.44.15l.29.15s.07.05.09.07c.13.13.33.13.47,0l.15-.16c.11-.11.24-.15.4-.15h.18c.11,0,.2.02.31.04l.53.18c.09.02.2.09.27.15.11.11.24.18.4.2l1.95.25,1.75.22c.27.05.53-.07.71-.24l.13-.13c.09-.09.18-.13.31-.13.07,0,.13.02.2.05l.24.11c.13.07.29.04.4-.07l.02-.02s.11-.07.18-.07h.11s.04,0,.04.02.02.02.04.02h.15s.09-.05.09-.09c0-.07.09-.11.13-.07l.09.09s.04.07.04.09v.02c0,.11.09.2.2.2h.02s.07,0,.11.02l.29.13c.15.07.29.18.4.29l.29.29c.07.07.11.13.15.2l.07.13c.09.18.27.29.49.29h.13c.07,0,.11-.02.15-.07.09-.09.27-.09.33.04l.2.31c.07.11.11.26.07.4l-.22,1.09v.51s.04.09.09.09c.07,0,.11.09.07.15l-.51.67c-.11.15-.13.35-.04.53l.07.16c.04.07.09.13.15.2l.35.35c.07.07.16.09.24.09s.18-.04.24-.09l.11-.11s.09-.07.13-.07h.07c.07,0,.13.07.13.13,0,.07.07.13.13.13s.13-.07.13-.13v-.09s.02-.07.04-.09c.09-.09.24-.02.24.09v1.13c0,.2.22.33.4.25l.09-.05s.07-.07.07-.11c0-.09.09-.15.18-.11l.33.16s.07.04.09.07l.66.66c.07.07.18.11.27.11h.2c.11,0,.2.09.2.2,0,.05-.02.11-.07.13l-.04.04c-.11.11-.27.13-.4.07l-.02-.02c-.18-.09-.38-.02-.49.13l-.24.35c-.07.11-.09.26-.02.4.09.2.33.26.53.18.13-.07.27-.04.38.02l1.04.64c.09.05.18.07.27.07s.15-.02.24-.07l.69-.35c.18-.09.38-.13.58-.13h.13c.24,0,.49-.09.66-.26l.18-.18c.07-.07.15-.11.27-.11h.35s.02,0,.02.02c0,0,0,.02.02.02h.86c.16,0,.29-.07.4-.15l.2-.2c.11-.11.29-.11.4,0,.04.05.13.09.2.09.27,0,.4.31.22.51l-.02.02s-.04.04-.09.07l-.02.02c-.27.13-.38.44-.24.71l.58,1.15,1.06,1.91,1.77,9.08c.07.33.4.55.75.46l.22-.07c.13-.05.24-.16.24-.31v-.05c0-.15.13-.26.27-.26h.09c.11,0,.2-.09.2-.2,0-.04.02-.11.07-.13.11-.11.29-.07.33.07l.44,1.06.18.35c.22.44.64.78,1.13.91l.11.02c.13.02.24.07.35.13l.2.09c.13.07.27.09.4.09h.75c.07,0,.13-.07.13-.13,0-.07.07-.13.13-.13h.55c.09,0,.16-.02.22-.09.11-.11.27-.11.4-.02l.64.49c.15.11.27.24.35.42l.29.58c.09.15.24.24.42.24h.42s.04.02.04.05-.02.04-.04.04h-.29c-.24,0-.4.25-.31.47l.31.77c.02.07.07.15.11.2l.58.73c.11.16.22.33.27.51l.42,1.24c.02.09.09.18.15.24l.04.05c.09.09.18.13.31.13.07,0,.13.02.2.05l.38.2s.09.07.13.09c.13.13.33.18.51.13l.78-.2.62-.2c.09-.02.2.04.2.15,0,.05-.02.09-.04.11l-.04.05c-.11.11-.11.26-.04.4l.75,1.06c.27.38.71.62,1.2.62h.09c.18,0,.33-.05.49-.11l.16-.09c.11-.05.2-.13.24-.25.11-.22.35-.35.62-.29l.78.15c.11.02.22.02.31.02h.47c.13,0,.24-.04.33-.13l.04-.05c.07-.07.16-.09.24-.09h.04c.07,0,.13.02.18.07.11.11.29.09.38-.04l.4-.58.09-.18c.11-.24.11-.51,0-.75l-.07-.13s-.02-.07-.02-.09v-.18s.02-.02.02-.02c.02,0,.02.02.02.02v.2s0,.07.02.09l.04.09c.13.25.4.38.66.31l.49-.13c.09-.02.15-.02.24-.02h.51c.24,0,.44-.2.44-.44,0-.07.02-.13.04-.2l.02-.05c.13-.24.4-.38.66-.33l.47.09c.27.04.55.02.8-.11l.53-.26c.13-.07.27-.09.4-.09h.69c.11,0,.2-.09.2-.2,0-.05.02-.11.07-.13l.15-.15s.09-.07.13-.07h.07c.07,0,.13.07.13.13s.07.13.13.13.13.07.13.13c0,.07.07.13.13.13h.09s.07,0,.09-.02l.07-.04c.2-.09.42.04.42.26,0,.04,0,.09.02.13l.04.09c.13.24.38.4.64.4h.49c.11,0,.2,0,.29.02l.35.07c.53.11.95.49,1.13,1l.02.07c.16.62.64,1.11,1.29,1.29l1.06.26s.09.02.13.02h.07c.09,0,.18-.05.27-.11.11-.11.27-.13.4-.09l.84.35c.18.07.38.11.57.11.16,0,.33.02.49.09l.42.13c.11.05.22.11.31.2.25.25.64.31.93.13l1.06-.6c.22-.11.38-.31.44-.56l.38-1.1c.02-.09-.05-.18-.13-.18-.05,0-.09-.02-.13-.07l-.15-.33c-.05-.11-.07-.22-.07-.33v-.51c0-.09-.05-.18-.11-.26-.11-.11-.13-.27-.09-.4l.38-.91c.07-.16.13-.29.24-.42l.6-.77c.07-.07.16-.11.25-.11s.15-.02.22-.09l.69-.69s.04-.07.07-.09l.13-.27c.04-.07.13-.09.2-.04l.02.02.53.26,1.91,1.09,1.53.77c.07.02.13.05.2.05.11,0,.22.04.29.13l.05.05c.07.07.15.13.26.15l.93.25c.49.15.82.62.82,1.15v.2c0,.36.13.71.36.97l.89,1.04c.24.29.58.49.95.58l1.46.33c.27.07.56.07.82,0l1.57-.4c.13-.02.25-.07.36-.13l.22-.11c.11-.04.22-.09.33-.09.07,0,.13,0,.2.02l.97.24.86.22c.13.05.29.05.44.05h.07c.36,0,.69.11.97.29l.27.18c.09.05.15.11.22.2l.2.2c.16.15.38.24.6.24h.05c.11,0,.2.02.29.07l.26.13c.07.02.11.09.11.18,0,.04.02.09.05.13l1.15,1.15c.26.26.62.44,1,.51l1.33.2,1.86.27h.2c.07,0,.13-.02.2-.09.11-.11.29-.11.4,0,.04.04.11.09.2.09h.24c.13,0,.27-.02.38-.09l.38-.18.6-.4c.15-.11.31-.18.49-.22l1.64-.47,1.17-.33c.46-.13.86-.46,1.09-.89l.05-.09c.11-.2.24-.4.42-.53l.98-.84c.42-.36.97-.51,1.5-.4l.27.04c.15.02.31.09.46.16l.49.24c.25.13.53.2.82.2h.49c.09,0,.2,0,.29-.02l.82-.13c.42-.07.86.02,1.22.24l.47.29c.2.13.44.2.66.25l.69.11c.51.07,1.04-.16,1.33-.6.05-.07.11-.16.18-.2l.6-.6c.09-.09.18-.16.26-.22l.55-.38c.09-.07.16-.11.22-.2l.33-.33c.07-.07.11-.18.11-.26v-.25c0-.07-.07-.13-.13-.13s-.13-.07-.13-.13v-.18l.56-2.15.46-2.06c.07-.25.18-.49.33-.69l.51-.66c.05-.07.11-.15.13-.22l.26-.51c.13-.27.09-.6-.13-.8-.13-.13-.2-.29-.2-.47v-.11c0-.11-.05-.2-.11-.26-.11-.11-.25-.13-.38-.09l-.09.02c-.29.09-.6-.07-.69-.33l-.02-.07c-.05-.16-.05-.33.04-.46l.09-.18c.05-.11.11-.2.2-.29l.6-.6c.07-.07.09-.15.09-.24s.05-.18.09-.25l.11-.11s.11-.09.18-.13l.97-.51.58-.36c.42-.26.55-.82.26-1.22-.02-.05-.07-.09-.11-.13l-.75-.75v-.05s.02-.02.05,0l.75.76s.07.07.09.11l.05.07c.29.44.77.69,1.3.69h.11c.27,0,.56-.07.8-.18l.64-.31c.07-.02.13-.05.2-.05h.04c.09,0,.18-.04.25-.11.11-.11.26-.13.4-.07l.71.35c.09.05.22.02.29-.04.09-.09.22-.09.31-.02l.59.4s.09.05.13.07l.6.2c.07.02.16-.02.16-.11,0-.07.04-.11.11-.11h1.31c.13,0,.25.04.33.13l.09.09s.07.09.07.13c0,.11.09.2.2.2.05,0,.11.02.13.07l.15.16s.09.07.13.07c.11,0,.2.09.2.2v.16c0,.11.09.2.2.2.04,0,.11.02.13.07l.44.44c.22.22.38.49.44.78l.07.24c.07.25.18.49.35.69l1.04,1.24s.09.07.15.07c.11,0,.18.09.18.18,0,.05.02.11.07.13l.09.09c.09.09.13.2.13.33v.09c0,.18.07.35.2.46l.24.24c.07.07.13.16.2.22l.4.6c.05.07.09.13.15.18l.05.05c.11.11.18.22.22.35l.15.47c.02.09.13.15.22.15.07,0,.13.02.18.07l.07.07c.09.09.13.2.13.33v.13c0,.15.05.29.11.42l.13.22c.35.56,1.02.84,1.66.67l.86-.22c.13-.05.29,0,.38.11.07.07.18.11.27.11h.24c.07,0,.13.07.13.13,0,.07.07.13.13.13h.07s.11-.02.13-.07l.13-.13s.11-.04.16,0l.07.07s.13.02.13-.07c0-.04.04-.09.09-.09h.11s.09-.05.09-.09c0-.07.09-.11.15-.07l.8.62c.09.07.18.11.26.11l1.73.25h.02c.07,0,.13.07.13.13v.58c0,.18.07.36.2.49l.38.38c.16.15.25.38.25.6,0,.13.02.26.09.38l.07.15c.07.16.18.29.29.4l.27.27c.07.07.15.13.24.18l.05.02c.24.11.51.11.75,0l.05-.02c.09-.05.18-.07.26-.07s.18-.02.26-.07l1.38-.69c.09-.04.2-.07.29-.07.24,0,.46-.13.58-.36l.02-.07c.04-.09.07-.18.07-.29,0-.25.13-.46.35-.58l.09-.05c.07-.04.16-.09.2-.15l.31-.31c.09-.11.25-.16.38-.16.2,0,.4-.11.49-.29l.25-.46c.11-.2.26-.4.46-.53l.09-.04c.29-.2.62-.29.98-.29h.38c.13,0,.26-.05.38-.11l.51-.33c.07-.04.15-.02.18.05.02.04,0,.13-.05.15l-.55.38c-.11.09-.22.18-.26.31-.11.22-.11.49,0,.71l.02.07c.04.09.11.18.18.24l.09.09c.35.36.42.93.13,1.37l-.02.02s-.07.09-.09.11c-.13.13-.22.33-.22.53v.86c0,.11.02.22.04.33l.18.8s0,.09-.02.11c-.02.02-.05.05-.05.09v2.73c0,.13-.02.26-.09.38l-.07.15c-.07.13-.07.31,0,.44l.02.04c.09.18.04.38-.09.51-.05.05-.07.07-.09.11l-.09.18c-.09.2-.11.44-.04.64l.02.04c.09.27.02.58-.18.78-.13.13-.33.22-.53.22h-1.66c-.13,0-.27.02-.4.07l-.07.02c-.35.11-.62.42-.73.78l-.02.04c-.07.29-.26.51-.51.64l-.09.04s-.09.05-.11.09c-.13.13-.18.33-.09.51l.4.82.71,1.4c.09.15.13.33.18.51l.2,1.2c.02.11.07.2.15.29.09.09.16.24.16.38v.11l-.2,1.35c-.05.31-.27.58-.58.69l-.22.07c-.07.02-.13.09-.18.16l-.11.24c-.05.09.02.2.11.2.04,0,.07.02.09.05l.18.18s.09.09.11.16l.26.53c.11.2.4.2.49,0,.02-.04.02-.09.02-.13v-.09c0-.07-.02-.13-.09-.2-.18-.18-.05-.46.2-.46h.29c.22,0,.4-.18.4-.4v-.09s0-.09.02-.11l.22-.84c.02-.11.07-.22.13-.31l.36-.53c.04-.09.04-.2-.02-.26-.09-.09-.09-.22,0-.31l.07-.07s.09-.07.13-.07c.11,0,.2.09.2.2v.05c0,.22.26.33.42.18l.4-.4.02-.02s.07-.07.09-.02l.18.55v.44c0,.07.07.13.13.13s.13-.07.13-.13c0-.07.07-.13.13-.13h.07s.09.02.13.07l.07.07c.09.09.24.09.31,0,.07-.07.18-.09.26-.04l.38.2s.02.02.05.02l.07.07c.07.07.2.02.2-.09s.13-.15.2-.09l.02.02s.09.04.15.02l.38-.18c.07-.04.13-.09.18-.13l1.93-1.93c.11-.11.22-.25.29-.38l.91-1.62c.02-.07.07-.11.11-.15l.09-.09c.07-.07.11-.18.11-.27v-.24c0-.07.07-.13.13-.13.07,0,.13-.07.13-.13v-.82c0-.11.02-.2.05-.31l.18-.53c.02-.09.04-.2.04-.31,0-.24.09-.49.29-.69l.04-.04c.16-.16.26-.36.29-.56l.2-1.02.56-1.62.55-1.62.49-1.19c.05-.11.07-.2.09-.31l.25-1.2.24-1.48c.02-.09.02-.2.02-.29v-1c0-.16.02-.29.05-.44l.2-.8s.02-.09.02-.15v-.53s.02-.07.07-.07c.02,0,.04-.02.07-.05l.53-2.41.53-1.8c.02-.07.02-.13.02-.2,0-.11-.02-.22-.07-.33l-.07-.11c-.09-.18-.13-.38-.13-.58v-.6c0-.13-.05-.24-.13-.33s-.13-.2-.13-.33v-.4c0-.15-.02-.31-.07-.44l-.15-.49c-.02-.09-.07-.16-.09-.22l-.31-.62c-.13-.24-.18-.51-.18-.8v-.11c0-.2-.04-.4-.11-.6l-1.15-3.23c-.07-.2-.11-.4-.11-.6v-.07c0-.11.02-.25.05-.36l.15-.77c.05-.26.05-.53-.02-.8l-.13-.46c-.05-.13-.02-.26.04-.4l.11-.22c.05-.09.02-.2-.04-.26l-.05-.05c-.07-.07-.18-.07-.24,0-.07.09-.2.07-.27-.02l-.33-.49c-.07-.11-.11-.22-.11-.36v-.44c0-.11-.09-.2-.2-.2-.05,0-.11-.02-.13-.07l-.18-.18s-.05-.04-.07-.04l-.4-.2c-.16-.09-.11-.33.09-.33.07,0,.13-.05.15-.09l.11-.2c.07-.16.07-.33,0-.49-.09-.18-.29-.31-.49-.31h-.07c-.09,0-.2-.02-.29-.07l-.31-.16c-.07-.02-.13-.07-.18-.13-.13-.13-.31-.2-.49-.2h-.2c-.22,0-.44-.07-.64-.2l-.42-.29c-.07-.04-.11-.11-.11-.2s-.04-.18-.13-.22l-.33-.16c-.07-.02-.13-.04-.2-.04-.11,0-.22-.05-.29-.13l-.02-.02c-.09-.09-.2-.13-.33-.13h-.09c-.18,0-.33.07-.46.2l-.15.15c-.13.13-.29.22-.47.29l-.53.18h-.05c-.11,0-.2.11-.13.22l.13.26s.05.09.05.16v1.48c0,.15-.2.2-.26.07-.02-.02-.02-.04-.02-.07v-.02c0-.26-.36-.35-.49-.11l-.05.11s-.02.05-.04.07l-.78.8c-.2.2-.53.07-.53-.22,0-.05.02-.09.04-.13l.42-.82c.05-.09-.02-.2-.11-.2-.04,0-.07.02-.09.05l-.11.11c-.09.09-.18.13-.29.13h-.02c-.07,0-.11-.02-.18-.04-.22-.11-.29-.42-.09-.6l.16-.16s.02-.04.02-.07c0-.09-.11-.13-.18-.07l-.46.46c-.11.11-.11.29,0,.4.04.05.09.13.09.2v.44c0,.16-.13.27-.26.27h-.22s-.05.02-.05.04c0,.05-.07.07-.09.02l-.46-1.11s-.02-.02-.02-.04l-.09-.13c-.42-.69-1.29-.95-2.02-.64l-.29.11c-.22.09-.46.09-.69,0l-.09-.04c-.46-.2-.64-.77-.38-1.2l.26-.55.42-.62c.09-.13.15-.26.2-.42l.15-.49c.02-.09.07-.15.09-.22l.11-.24c.07-.13.16-.26.27-.36.07-.07.15-.15.2-.26l.55-.91c.11-.2.2-.4.25-.62l.15-.96c.05-.22.13-.42.29-.58l.22-.22c.07-.07.09-.15.09-.24s-.05-.18-.09-.25c-.11-.11-.13-.26-.07-.4l.09-.2c.04-.09.07-.18.07-.29v-.42c0-.18.07-.33.18-.44.07-.07.11-.13.13-.2l.51-1.24.55-1.09.18-.38c.07-.11.09-.24.09-.38v-.07c0-.18.07-.36.2-.49.05-.05.09-.11.13-.18l.07-.13c.11-.22.16-.44.16-.69v-.8c0-.16.02-.29.04-.44l.13-.53c.07-.22.18-.42.33-.58.2-.2.33-.47.35-.73l.18-1.31c.05-.29.16-.58.31-.8l1-1.42c.05-.09.15-.13.25-.13s.15-.02.2-.09l.49-.49c.18-.18.38-.29.58-.4l.89-.36c.09-.04.18-.09.26-.13l1.13-.69c.07-.05.13-.07.2-.07.11,0,.2-.04.29-.11l.11-.11s.09-.07.13-.07c.11,0,.2.09.2.2v.16c0,.13.07.24.18.31h.02c.18.09.42.02.51-.18l.02-.04c.04-.11.07-.22.02-.33l-.07-.22c-.07-.2.09-.42.31-.42h.2c.07,0,.13.07.13.13,0,.09.09.16.18.11l.6-.2s.09-.02.15-.02c.13,0,.25-.04.33-.13l.69-.69c.18-.18.42-.29.66-.29h.07s.11,0,.15-.02l.46-.16c.13-.04.18-.22.07-.31-.05-.05-.09-.07-.13-.07-.11,0-.2-.09-.2-.2v-.22c0-.07.07-.13.13-.13s.13-.07.13-.13v-.51c0-.26.18-.51.44-.6l1.11-.38c.07-.02.15-.04.22-.04h.58c.07,0,.13.07.13.13,0,.07.07.13.13.13h.13c.15,0,.26-.13.26-.26v-.09c0-.11.07-.22.15-.29l.25-.15c.26-.18.6-.2.89-.07l.26.13c.25.11.51.11.76,0l.13-.07s.07-.02.11-.02h.09c.07,0,.13.07.13.13s-.07.13-.13.13h-.07s-.11.02-.13.07l-.42.42s-.09.09-.16.11l-.04.02c-.25.13-.36.4-.27.67l.07.18c.04.11.15.2.26.2.05,0,.09,0,.13-.02l.2-.09c.2-.09.35-.25.46-.42l.33-.49s.07-.09.09-.11c.13-.13.33-.22.53-.22h.07c.11,0,.22-.02.33-.07.25-.13.4-.38.4-.64v-.16c0-.15.05-.29.09-.42.11-.22.31-.4.56-.46l.31-.11c.09-.02.2-.04.31-.04h.2c.13,0,.25-.05.33-.13l.02-.02c.07-.07.11-.18.11-.26v-.16c0-.13.11-.24.24-.24h.4c.07,0,.11-.09.05-.13-.05-.04-.02-.13.07-.13h.05s.04,0,.07-.02l.07-.07c.11-.11.13-.27.07-.4l-.09-.16c-.07-.11-.15-.2-.26-.26l-.04-.02c-.2-.11-.44-.11-.67,0l-.13.07c-.07.02-.13.07-.18.13l-.09.11c-.07.07-.09.15-.09.24s-.04.18-.09.25l-.13.11s-.09.07-.13.07c-.11,0-.2-.09-.2-.2v-.71c0-.11-.09-.2-.2-.2-.05,0-.11-.02-.13-.07l-.11-.11c-.07-.07-.09-.15-.09-.24v-.09s.02-.07.05-.09l.09-.09s.02-.13-.05-.13c-.04,0-.09-.05-.09-.09v-1.24c0-.22.05-.42.16-.6l.29-.58c.07-.13.13-.29.15-.46l.18-.89c.02-.13-.02-.27-.11-.38-.07-.07-.11-.18-.11-.29v-.73c0-.13.02-.27.09-.38.11-.25.11-.51,0-.76l-.09-.18c-.18-.35-.18-.75,0-1.11l.22-.44s.05-.11.07-.16l.13-.42c.07-.2.25-.33.47-.33.13,0,.24-.05.33-.13l.07-.09s.07-.07.09-.11l.71-1.09c.2-.31.53-.49.89-.49h.15c.07,0,.13.02.2.05.25.11.53,0,.62-.27l.11-.31s.02-.05.02-.07c0-.2.22-.29.38-.15l.15.15s.05.05.07.09l.09.18c.11.22.16.44.16.69v.35c0,.25.11.49.26.66l.18.18c.07.07.09.16.09.25v.02c0,.07.02.13.09.2.11.11.29.11.4,0l.04-.05c.16-.15.42-.11.53.09l.07.13s0,.02.02.02c.07.22.4.2.44-.02l.38-1.88.55-2.99s-.02,0,0-.02l.15-.16s.02-.04.02-.07c0-.09.11-.13.18-.07l.07.07s.07.04.09.04h.11c.22,0,.4-.18.4-.4v-.02c0-.22-.18-.42-.42-.42h-.11c-.2,0-.38-.11-.46-.29l-.31-.62c-.07-.11-.09-.25-.09-.38v-.11c0-.15-.07-.31-.18-.42-.07-.07-.11-.15-.16-.24l-.02-.07c-.13-.38.02-.77.36-1l.04-.02c.16-.11.27-.25.33-.42l.09-.26c.07-.18.22-.31.42-.31h.35c.27,0,.4.31.2.49-.04.04-.07.09-.07.13l-.09.33c-.11.42-.05.86.2,1.24l.55.82c.11.18.18.38.18.58v.07c0,.11.02.22.07.33l.09.18c.07.13.22.22.38.22.18,0,.33.11.4.29l.13.4c.04.09.04.2.04.31v.11c0,.18.07.36.2.49.2.2.26.53.13.8-.05.07-.09.13-.13.18l-.18.18c-.2.18-.29.44-.29.71v.13c0,.18-.07.35-.2.49-.05.05-.09.11-.13.18l-.09.18c-.09.18-.13.38-.13.58v.35c0,.11.05.22.13.29.09.09.13.22.11.38l-.22,1.27c-.02.09-.02.2-.02.29v1c0,.13-.04.24-.13.33-.09.09-.13.2-.13.33v.02s0,.09-.02.13l-.2.8c-.04.13-.04.29-.04.44v.46c0,.25.09.49.26.66l.18.18c.07.07.09.15.09.24s-.04.18-.09.25l-.04.04c-.09.09-.13.2-.13.33v1.24c0,.16-.02.29-.04.44l-.44,1.75c-.02.11-.07.25-.13.35l-.13.29c-.05.07-.07.13-.13.18-.13.13-.2.29-.2.49v.26c0,.18-.11.33-.26.42l-.36.18c-.2.11-.2.38,0,.49.05.02.07.05.11.09l.22.33c.2.29.29.62.29.97v.91c0,.11-.02.24-.04.35l-.16.71c-.07.31-.04.62.07.93l.36,1.04c.02.09.07.16.11.25l.71,1.37c.04.09.09.18.15.24l3.63,4.94c.05.07.11.13.18.2l4.63,4.68c.09.09.18.2.26.33l.62,1c.07.11.15.22.26.33l.89.89s.07.05.09.09c.38.25.86.05.95-.4l.07-.35c0-.07.02-.11.02-.18v-1.29c0-.16.07-.31.18-.42.07-.07.11-.15.15-.24l.11-.33c.09-.25.11-.51.09-.76l-.2-1.7c-.02-.22-.13-.44-.29-.6l-.24-.25s-.09-.07-.13-.07c-.11,0-.2-.09-.2-.2v-.25c0-.07-.02-.13-.05-.2l-.15-.31c-.05-.09-.13-.16-.25-.16-.07,0-.13-.02-.18-.09l-.04-.05c-.09-.09-.09-.22,0-.31.07-.07.18-.09.26-.05l.07.05c.18.09.4,0,.47-.18l.53-1.22c.09-.22.27-.4.49-.51l.18-.09s.07-.02.09-.02h.04c.11,0,.18-.09.18-.18,0-.07-.02-.11-.07-.16l-.86-.69c-.27-.22-.46-.49-.58-.82l-.29-.87c-.07-.18-.09-.38-.09-.58v-.55c0-.33.09-.64.27-.93l.49-.8c.04-.09.13-.13.24-.13h.02c.07,0,.11.02.16.07.11.11.29.07.35-.05l.33-.64c.04-.11.09-.22.09-.33v-.07c0-.35-.18-.69-.47-.89l-.75-.49c-.29-.2-.51-.46-.64-.77l-.42-.96c-.13-.31-.18-.64-.13-.95l.2-1.35v-.18c0-.09-.04-.18-.11-.24l-.02-.02c-.09-.09-.11-.22-.04-.33l.04-.09c.07-.13.25-.15.36-.07.04.05.07.09.07.15v.42c0,.18.16.31.31.31.13,0,.26-.09.31-.22l.07-.2c.09-.24,0-.51-.2-.66l-.97-.77s-.04-.05-.04-.07c0-.09-.11-.13-.16-.07l-.22.22c-.09.09-.24.09-.33,0l-.6-.6s-.09-.11-.13-.15l-.2-.29c-.2-.29-.29-.64-.29-.98v-.13c0-.11-.02-.22-.04-.31-.13-.4-.51-.66-.93-.66h-.55c-.07,0-.16.02-.2.09l-.09.09c-.07.07-.07.18,0,.22.09.09.07.22-.04.26l-.2.11c-.09.04-.2.04-.29,0l-.16-.09c-.15-.09-.29-.22-.33-.4l-.64-1.91c-.07-.18-.09-.38-.09-.58v-1.29s-.02-.07-.04-.09l-.09-.09s-.02-.13.07-.13c.04,0,.09-.05.09-.09v-.07c0-.07-.07-.13-.13-.13-.07,0-.13-.07-.13-.13v-.49c0-.13-.05-.24-.13-.33l-.07-.07s-.09-.07-.16-.07c-.11,0-.2-.07-.22-.18l-.15-.78c-.05-.26-.02-.53.11-.77l.33-.66s.04-.07.07-.09l.15-.16s.05-.11,0-.15c-.07-.07-.02-.2.09-.2h.49s.09.02.13.02l.05.02c.24.11.51,0,.6-.25v-.02c.07-.2-.02-.4-.2-.51l-.05-.02c-.11-.05-.18-.16-.18-.29,0-.05.02-.11.04-.16l.49-.95s.04-.09.04-.13l.18-.64c.05-.16.25-.22.36-.09l.02.02.05.07c.31.46,1.02.24,1.02-.31,0-.05,0-.07.02-.11l.22-1.06c.02-.16.09-.31.16-.44l.46-.91c.18-.33.44-.6.77-.77l.56-.29.62-.24c.47-.2,1-.18,1.44.07l.26.13c.07.04.15.07.22.07.35,0,.6-.33.49-.66l-.02-.09s-.05-.09-.07-.13l-.2-.31c-.18-.29-.2-.64-.07-.95.02-.05.05-.09.05-.13l.15-.49c.07-.18.09-.38.09-.55v-.96c0-.09.05-.18.11-.24.11-.11.13-.27.07-.4l-.13-.29s-.05-.05-.09-.05c-.09,0-.11-.09-.07-.15l.09-.09s.04-.02.07-.02c.09,0,.13-.11.07-.18l-.24-.24s-.02-.15.07-.15c.05,0,.07-.02.09-.07l.18-.55c.05-.13,0-.29-.09-.38l-.09-.09s-.04-.02-.07-.02c-.09,0-.13-.11-.07-.18l.31-.31s.09-.11.09-.2v-.58c0-.07-.07-.13-.13-.13s-.13-.07-.13-.13v-.24c0-.09.09-.18.18-.18.07,0,.13-.04.16-.09l.15-.31c.05-.11.07-.22.07-.33v-.36s0-.04.02-.07c.02-.02.09-.02.11,0,.05.05.13.02.16-.04l.2-.62s.02-.11.02-.16v-.71c0-.2.02-.38.09-.58l.46-1.35.44-1.33c.05-.16-.07-.31-.22-.31h-.05c-.11,0-.2-.09-.2-.2v-.02s-.02-.07-.04-.09l-.09-.09s-.02-.13.07-.13c.04,0,.09-.05.09-.09,0-.07.09-.11.13-.07l.29.29c.09.09.2.09.29.04l2.28-1.4c.13-.09.15-.26.04-.35-.04-.05-.07-.11-.07-.15v-.31c0-.42-.26-.8-.66-.93l-.82-.26c-.11-.05-.18-.13-.18-.25,0-.18-.18-.31-.36-.24l-.33.11c-.11.04-.22.04-.31,0l-.47-.16c-.13-.04-.24-.09-.38-.18l-1.17-.73-1.11-.55c-.26-.13-.62,0-.71.29-.05.15-.18.29-.36.33l-.51.13c-.18.05-.38,0-.51-.13l-.04-.05c-.26-.26-.69-.15-.82.2l-.02.05v.07c0,.13-.11.24-.24.24h-1.37s-.05.02-.05.05c0,.05-.07.07-.09.02l-.09-.2c-.05-.07.02-.16.09-.16h.07s.05,0,.07-.02l1.33-.67c.13-.07.16-.24.05-.35-.05-.05-.07-.09-.07-.13,0-.11.09-.2.2-.2h.62c.18,0,.36-.07.51-.18l.42-.33c.26-.22.49-.51.6-.84l.24-.69c.09-.29.11-.58.07-.86l-.18-1.04c-.02-.09-.04-.18-.07-.26l-.29-.82c-.13-.4-.51-.66-.93-.66-.09,0-.15,0-.24-.02l-.46-.11c-.29-.07-.53-.31-.64-.6l-.09-.24c-.02-.07-.02-.16.02-.22l.11-.25c.04-.09-.02-.2-.11-.2-.05,0-.07-.02-.09-.04l-.02-.02c-.11-.11-.07-.29.07-.35l.2-.11s.11-.02.16.02c.07.09.22.02.22-.09v-.16c0-.2.25-.26.36-.11l.18.27s.02.04.05.07l.15.46c.07.2.25.33.46.33.13,0,.25-.05.33-.13l.07-.07s.11-.09.2-.09.2.07.25.15l.18.33c.15.29.55.35.8.13.04-.04.09-.11.11-.15l.44-1.09c.05-.11.09-.22.18-.31l.2-.29c.18-.26.4-.46.69-.6l.02-.02c.07-.02.13-.07.2-.09.47-.15.96-.09,1.35.18l.2.13c.35.18.75.22,1.15.13l.18-.05c.2-.04.38-.13.53-.24l.49-.33c.07-.05.11-.09.18-.13l.07-.07c.25-.25.6-.33.93-.22h.02c.18.07.35.07.53,0l.25-.09c.2-.07.33-.24.33-.46,0-.13-.05-.25-.13-.33l-.11-.11s-.02-.04-.02-.07c0-.09.11-.13.18-.07l.38.38c.13.13.38.11.46-.07l.02-.02c.04-.09.02-.22-.05-.29l-.86-.36Z"/>
          <path class="st0" d="M210.95,534.03c.78,1.77,1.62,3.5,2.53,5.23-25.88,14.85-62.19,13.3-67.71,12.94-.38-.02-.71.29-.71.64.44,17.94,17.92,22.86,33.34,20.76,13.18-1.8,31.62-10.57,44.64-20.47,1.31,1.46,2.7,2.81,4.12,4.12-12.45,20.43-41.7,28.8-51.22,29.56-.47.05-.73.51-.51.91,6.25,10.81,20.36,14.42,35.78,7.02,9.17-4.41,20.56-15.95,28.38-28.89,1.79.89,3.68,1.64,5.58,2.28-4.85,24.39-29.11,39.28-33.34,41.72-.15.09-.27.24-.29.42-.02.18.02.35.13.49,7.22,8.11,23.86,8.29,34.03-3.46,6.25-7.22,11.06-20.65,13.76-36.85,7.49,0,24.62,3.21,30.35,18.39.24.64,1.26.47,1.26-.2v-41.54c0-.42-.44-.71-.86-.58-9.42,3.1-19.21,3.5-25.99,2.18-13.36-2.37-23.49-13.27-23.49-26.39,0-7.53,3.35-14.33,8.73-19.23,1.15-1.02,1-2.77-.33-3.59-.58-.35-1.17-.71-1.73-1.06-46.71-29.64-89.22-98.35-93.81-105.91-.22-.35-.73-.42-1.04-.15-14.36,12.63-15.75,37.38-.64,56.79,9.99,12.83,30.95,26.88,52.44,39.06-.31,2.28-.51,4.56-.62,6.85-44.2-9.48-72.25-39.99-76.77-45.15-.31-.35-.91-.29-1.11.13-8.13,15.97-1.06,37.4,15.07,46.39,14.16,7.89,36.38,12.52,63.72,15.8.29,1.99.66,3.97,1.09,5.92-41.03,5.52-73.09-9.46-78.61-12.25-.4-.2-.91.04-.95.49-2.08,17.08,8.71,30.8,27.12,33.83,18.52,3.06,57.65-6.18,57.65-6.18Z"/>
          <path class="st0" d="M213.52,621.1l-.73-1.4c-.16-.29.13-.6.42-.49h.02c.24.11.47-.13.4-.38l-.07-.15s-.02-.02-.04-.02c-.04,0-.07-.05-.02-.07l.22-.2.02-.02c.18-.16.44-.18.66-.05.07.05.11.09.15.16l.07.09c.15.24.42.4.71.44l.8.13h-.62c-.24,0-.42.24-.33.49.02.04.04.09.07.13l.18.2c.15.18.42.18.58.02l.2-.18c.07-.07.15-.09.24-.09.13,0,.27.07.31.2.02.05.04.09.04.15l.02.76.09.82.15,1.13c.07.44-.22.86-.66,1l-.07.02c-.09.02-.18.09-.27.15l-.11.09c-.07.05-.13.09-.2.09-.09,0-.2-.04-.24-.13l-.69-.96-1.31-1.95Z"/>
          <path class="st0" d="M451.74,706.69l-.44-.84s-.03-.05-.05-.07c-.02-.02-.05-.03-.08-.03-.03,0-.06,0-.09.01-.03.01-.05.03-.07.05-.02.03-.06.05-.1.05-.04,0-.08,0-.11-.02l-.79-.38c-.14-.07-.26-.16-.36-.27l-.38-.38-.81-.64c-.18-.12-.32-.29-.42-.48l-.48-.79c-.12-.19-.2-.41-.23-.63l-.19-1.13c-.02-.1-.02-.19-.02-.29v-.88c0-.2-.04-.4-.13-.58l-.06-.1c-.06-.12-.1-.25-.1-.38v-.08c0-.18.07-.35.19-.48.05-.05.1-.11.13-.17l.02-.04c.06-.13.15-.24.26-.33.12-.08.25-.15.39-.17l.38-.08c.33-.07.68-.04,1,.1l.86.35.21.1c.06.04.12-.06.08-.1h-.02l-.67-.44c-.1-.06-.19-.14-.27-.23l-.23-.23c-.13-.13-.25-.29-.33-.46l-.04-.08c-.07-.14-.16-.27-.27-.38l-1.42-1.59-1.34-1.63-1.08-1.34-.69-.9s-.02-.02-.03-.03c-.02,0-.03,0-.04,0-.02,0-.03.01-.04.02s-.02.03-.02.04c0,.02,0,.04-.02.05-.02.02-.03.02-.05.03h-.08s-.03,0-.05-.01c-.02,0-.03-.02-.05-.03-.01-.02-.02-.03-.03-.05,0-.02-.01-.03-.01-.05v-.21c0-.06-.02-.13-.05-.18-.03-.05-.08-.1-.14-.13l-.25-.12c-.08-.04-.15-.09-.21-.15l-.1-.1c-.23-.23-.39-.52-.46-.84l-.17-.84-.5-1.46s-.05-.09-.09-.12c-.04-.03-.09-.05-.14-.05-.03,0-.07,0-.1-.02-.03-.01-.06-.03-.08-.06l-.44-.44s-.05-.06-.06-.1l-.15-.31s-.02-.04-.02-.07,0-.04.02-.06c.01-.02.03-.04.05-.05.02,0,.04-.02.07-.02.03,0,.07.02.1.04l.17.17s.03.04.04.06c.01.02.02.05.02.07v.1s0,.03,0,.04.01.02.02.03c0,0,.02.02.03.02.01,0,.03,0,.04,0,.02,0,.03,0,.05-.02.02-.01.03-.02.03-.04,0-.02.01-.03.01-.05,0-.02,0-.03-.02-.05l-.96-1.21-.69-.9c-.08-.12-.13-.25-.13-.39,0-.1-.03-.2-.08-.29-.05-.09-.12-.17-.21-.23l-.54-.35-.02-.02s-.05-.03-.08-.04c-.03,0-.06,0-.09.01s-.05.03-.07.06c-.02.03-.03.05-.03.08v.02s0,.04,0,.06c0,.02-.02.03-.03.05-.02.02-.03.02-.05.03s-.04.01-.06.01h-.04s-.05,0-.07.02c-.02.01-.04.03-.06.04-.02.03-.04.06-.05.09,0,.03-.01.07,0,.1,0,.03.02.07.04.09.02.03.05.05.07.07l.29.13.75.5s.04.04.06.07c.01.03.02.06.02.09v.04s0,.03,0,.05.02.03.03.05c.01.01.03.02.04.03.02,0,.03.01.05.01.02,0,.03,0,.05,0,.02,0,.03.02.05.03.01.01.02.03.03.04,0,.02.01.03.01.05v.27s0,.03-.01.05c0,.02-.02.03-.03.05-.02.01-.03.02-.05.03-.02,0-.03.01-.05.01-.02,0-.04,0-.05,0-.02,0-.03.02-.04.03-.02.01-.02.03-.03.04,0,.02-.01.03,0,.05v.06s0,.05.01.07c.01.02.03.04.05.06l.06.06s.08.11.1.18c.02.07.02.14,0,.21l-.1.31s-.03.06-.05.08-.05.04-.09.05-.07,0-.1,0c-.03-.01-.06-.03-.08-.05-.02-.02-.04-.03-.06-.05-.02,0-.05-.01-.07-.01h-.1c-.07,0-.13.02-.19.04l-.1.06c-.11.05-.2.13-.26.24-.06.1-.1.22-.1.34,0,.1.03.2.08.29l.13.29c.04.1.1.18.17.25.12.11.2.25.23.4l.48,1.67.38,1.35c.11.35.32.67.61.9l.61.48.94.75c.26.21.47.5.58.82l.02.06c.06.18.09.37.1.56v.23c0,.18.03.36.1.52.07.16.17.31.3.44.1.1.18.22.25.35l.12.25c.04.07.07.15.1.23l1.55,4.7s.02.09.02.13c0,.07.02.13.05.18.03.06.07.11.13.14l.6.46c.21.16.38.36.5.59l.31.59c.04.08.07.16.1.25l.13.42c.06.18.09.37.1.56v.23c0,.18.03.36.1.53.07.16.17.31.3.44.1.1.18.22.25.35l.1.19c.05.12.1.24.13.36l.44,1.76c.03.15.1.3.19.42l.79,1.19s.05.05.08.07c.03.02.06.03.1.03.03,0,.07,0,.1-.02.03-.01.07-.03.09-.05.02-.02.04-.05.06-.08.01-.03.02-.06.02-.1v-.35c0-.07,0-.14-.02-.21l-.23-1.11c-.02-.08-.02-.17,0-.25l.17-.67s.02-.05.04-.07c.02-.02.04-.03.07-.04.03,0,.06-.01.08,0,.03,0,.05.02.07.04.02.02.05.03.08.04.03,0,.06,0,.09,0l.4-.13c.21-.07.45-.06.65.04l.42.21c.25.12.44.31.56.56l.08.17s0,.01,0,.01c0,0,0,0,.01,0,.01.02.03.03.05.03.02,0,.03,0,.05-.01.02-.01.03-.03.03-.05,0-.02,0-.03-.01-.05l-.4-1.02Z"/>
          <path class="st0" d="M461.3,709.88l-.29.13s-.1.04-.16.04h-.02c-.06,0-.12.01-.17.03-.05.02-.1.05-.14.09-.04.04-.08.09-.1.15-.02.05-.03.11-.03.17v.04s0,.08-.02.12l-.25,1.02-.21.86c-.02.07-.02.13,0,.2.02.07.05.13.1.18l.06.06s.04.03.06.04c.02.01.05.02.07.02.05,0,.1-.02.14-.06.03-.03.05-.08.05-.13v-.75c0-.08.02-.16.04-.23l.13-.5c.08-.29.23-.56.44-.79l.46-.46s.03-.06.04-.1c-.02-.12-.12-.19-.21-.13Z"/>
          <path class="st0" d="M477.23,653.11l-.25.08c-.14.04-.28.04-.42,0l-.59-.21s-.03,0-.04-.02c-.01,0-.02-.02-.03-.03,0-.01-.01-.03-.01-.04,0-.01,0-.03,0-.04.02-.12-.1-.19-.17-.13l-.42.29s-.08.08-.1.13c0,.04,0,.08,0,.12.01.04.03.07.07.1.03.03.07.05.11.05.04,0,.08,0,.12,0l.17-.06s.1-.02.15-.02c.05,0,.1.03.14.05l.33.21c.11.08.25.12.38.1l.69-.08s.09-.02.13-.05c.03-.03.07-.07.08-.11.02-.05.02-.09,0-.14,0-.05-.03-.09-.06-.12-.12-.08-.21-.12-.29-.08Z"/>
          <path class="st0" d="M462.86,711.39s-.03.05-.04.08c0,.03,0,.06.01.09.01.03.03.05.06.07.02.02.05.03.08.03.02,0,.04,0,.06-.01.02,0,.04-.02.05-.03.02-.02.03-.03.03-.05,0-.02.01-.04.01-.06,0-.03-.01-.06-.03-.08-.02-.03-.04-.05-.07-.06-.03-.01-.06-.02-.09-.01-.03,0-.06.02-.08.04Z"/>
          <path class="st0" d="M480.32,651.79s-.04-.04-.08-.04l-1.52.15s-.03,0-.04.01c-.01,0-.02.02-.03.03s-.01.02-.01.04c0,.01,0,.03,0,.04.02.04.04.06.08.06l.48.02c.11,0,.21-.02.31-.08h.02c.06-.05.13-.07.21-.08l.5-.04c.08-.02.1-.06.08-.12Z"/>
          <path class="st0" d="M470.3,678.83s-.06.01-.09.03c-.03.02-.05.04-.07.07l-.08.15s-.02.06-.02.09c0,.03,0,.07.02.09.01.03.03.06.06.08.03.02.05.03.08.04.03,0,.07,0,.1,0,.03,0,.06-.02.09-.04.02-.02.05-.04.06-.07.02-.03.02-.06.02-.09v-.17c-.02-.1-.08-.17-.17-.17Z"/>
          <path class="st0" d="M466.23,645.04c-.08-.06-.17-.09-.27-.1-.11,0-.21.04-.28.12-.08.08-.12.18-.12.28v2.7s.02.07.04.1c.03.03.06.04.1.04s.07-.01.1-.04c.02-.02.04-.06.04-.1v-.54c0-.11.03-.21.08-.31l.12-.23c.06-.12.1-.25.1-.38v-.08c0-.18.08-.35.19-.48.05-.05.09-.11.12-.17v-.02c.07-.13.09-.27.06-.41-.03-.14-.1-.26-.21-.36l-.04-.04Z"/>
          <path class="st0" d="M466.66,700s-.02.04-.04.06l-.5,1.25c-.02.05-.03.11-.04.17v.1c0,.06-.02.11-.06.15-.02.02-.04.05-.05.08,0,.03-.01.07,0,.1,0,.03.02.07.04.09.02.03.05.05.07.07l.02.02s.07.02.1.02c.03,0,.07,0,.1-.02.03-.01.06-.03.08-.06.02-.03.03-.06.05-.09l.46-1.59v-.21s.01-.07,0-.1c-.01-.03-.03-.06-.06-.07-.03-.02-.06-.02-.09-.02-.03,0-.06.03-.08.05Z"/>
          <path class="st0" d="M469.07,695.6s-.03-.05-.06-.07c-.02-.02-.05-.02-.08-.02-.03,0-.06.02-.08.04-.02.02-.03.05-.03.08,0,.01,0,.02,0,.03,0,.01,0,.02-.02.03l-.25.5v.04s0,.03.01.05c0,.02.02.03.04.03.02,0,.03,0,.05,0,.02,0,.03-.02.03-.03l.36-.56s.02-.08.02-.12Z"/>
          <path class="st0" d="M464.79,703.93s-.05-.07-.08-.08c-.03-.02-.07-.03-.11-.03-.04,0-.08.01-.12.03-.03.03-.06.06-.07.1l-.21.63-.06.12-.06.12c-.06.12-.14.21-.25.28-.11.07-.23.1-.36.1h-.48s-.1.02-.13.06c-.04.03-.06.08-.06.13,0,.03,0,.05.02.08,0,.02.02.04.04.06l.04.04c.05.05.08.12.1.2,0,.07,0,.15-.04.21l-.31.63c-.08.16-.12.34-.12.52s-.04.36-.12.52l-.02.06c-.08.16-.12.34-.12.52v.12c0,.1-.03.2-.08.29l-.15.33s-.02.06-.02.09c0,.03.02.06.04.08.02.02.04.03.07.03.02,0,.05,0,.08,0,.03,0,.05-.02.07-.04.02-.02.03-.04.04-.07l.17-.88c.02-.12.08-.24.17-.33l.23-.21c.12-.12.19-.29.19-.46,0-.17.07-.34.19-.46l.15-.15c.13-.13.23-.29.29-.46l.06-.15c.09-.26.23-.5.42-.69l.25-.25.33-.35c.07-.07.11-.16.13-.25.02-.1,0-.2-.05-.28l-.06-.17Z"/>
          <path class="st0" d="M469.53,687.58s.02.02.03.03c.01,0,.02,0,.04,0,.01,0,.02,0,.03-.02.01-.01.02-.02.02-.03,0-.02,0-.04-.02-.04-.06-.06-.13,0-.1.06Z"/>
          <path class="st0" d="M469.73,684.53s-.02-.05-.05-.07c-.02-.02-.05-.03-.07-.04-.03,0-.05,0-.08,0-.03.01-.05.03-.07.05-.02.03-.04.06-.05.09,0,.03,0,.07,0,.1l.21.42s0,.03.02.04c0,.02,0,.04.02.06.01.02.03.03.05.04.02,0,.04.01.06,0,.02,0,.04-.01.05-.03l.04-.04s.03-.04.03-.06c0-.02,0-.05,0-.07l-.17-.5Z"/>
          <path class="st0" d="M469.5,691.88s-.04,0-.05.01-.03.02-.04.03c-.02.02-.02.03-.03.05,0,.02,0,.03,0,.05v.08s0,.05.02.07c.02.02.04.04.06.05.03.01.05.02.08,0,.03,0,.05-.02.07-.03.02-.03.04-.06.04-.1v-.08s0-.04-.01-.05c0-.02-.02-.03-.03-.05-.01-.01-.03-.02-.05-.03-.02,0-.03-.01-.05-.01Z"/>
          <path class="st0" d="M469.94,679.65s-.04-.06-.06-.1l-.08-.08s-.05-.04-.07-.05c-.03-.01-.06-.02-.09-.02s-.06,0-.09.02c-.03.01-.05.03-.07.05-.03.03-.06.08-.07.13,0,.05,0,.1.03.14l.13.27c.04.09.07.19.08.29v.4c0,.2-.05.4-.13.58l-.35.65s-.03.09-.02.14c0,.05.03.09.06.13.02.02.04.05.07.06.03.01.06.02.09.02s.06,0,.08-.02c.03-.01.05-.03.07-.06l.29-.29c.07-.07.12-.15.15-.25l.13-.4c.06-.18.09-.37.1-.56v-.17c0-.24-.06-.48-.17-.69l-.08-.19Z"/>
        </g>
        <path class="st0" d="M425.05,369.39c-1.05-3.4,33.33-3.48,33.33,18.05,0,14.4-20.56,21.24-20.56,36.2,0,6.99,7.51,12.1,9.81,12.1-5.31-24.03,16.6-11.46,22.52-6.96-11.76-32.24,14.71-32.11,12.11-46.92-1.81-10.36-24.82-7.22-33.14-12.47-14.77-9.31-32.26-45.48-43.78-9.31,21.51,19.92,8.99,49.26-18.28,49.26-.09,1.55-.05,3.1.11,4.64,32.51-1.59,43.85-25.47,37.89-44.6Z"/>
        <path class="st0" d="M213.4,428.77c5.94-4.49,27.83-17.07,22.56,6.96,2.28,0,9.79-5.12,9.79-12.1,0-15.05-20.58-21.79-20.58-36.2,0-21.49,34.41-21.49,33.35-18.05-5.96,19.13,5.4,42.99,37.91,44.6.12-1.55.12-3.1,0-4.64-27.27,0-39.76-29.34-18.3-49.26-11.51-36.17-28.99,0-43.76,9.31-8.32,5.24-31.33,2.15-33.14,12.47-2.6,14.81,23.85,14.62,12.09,46.92h.09Z"/>
        <path class="st0" d="M323.74,414.25h35.98s.01.04.02.06,13.51,0,13.51,0c0,0,11.03-17.52,13.81-24.61,9.94-25.47-2.77-35.89-21.33-35.89l-24,28.09-23.98-28.18c-18.58,0-31.27,10.42-21.31,35.89,2.75,7.09,13.79,24.61,13.79,24.61,0,0,0,.01,0,.02,0,0,13.53,0,13.53,0Z"/>
      </g>
      <circle class="st0" cx="342.57" cy="349.75" r="11.71"/>
    </g>
    <path class="st0" d="M361.81,584.06c-.97-3.77-1.75-7.07-2.66-10.35-.71-2.64-.97-7.62,2.09-7.62,1.66,0,.99,4.63.84,6.6-.13,1.75.49,2.81,1.9,2.86.89.04,2-1.09,2.64-1.84,4.46-5.03,5.47-12.81.27-16.55-4.37-3.15-15.27-.8-18.26,3.68-.44-1.69-2.61-4.48-3.65-5.7-1-1.17-1.27-1.99.13-3.03.66-.51,2.64-2.48,2.64-4.52,0-1.22-.94-3.44-3.91-3.44-2.34,0-4.96,1.62-4.96,5.25,0,.8.2,1.67.71,2.6-1.06-.18-3.41-.18-5.42.02h0c-.52.03-1.08.09-1.66.16l23.41,64.33c.31.86-.13,1.81-.99,2.12-.81.29-1.69-.08-2.05-.84l-29.43-80.85c-.31-.86-1.26-1.3-2.12-.99-.86.31-1.3,1.26-.99,2.12l5.56,15.27s-.05.01-.05.01c-5.14,1.22-13.42,4.98-13.42,9.95,0,6.62,11.7,10.92,18.48,10.41-.34,1.51.04,2.86,1.1,4.08-2.46,0-7.09,1.15-8.62,2.79-3.58-3.35-9.19-4.57-11.87-2.53-2.68,2.04-2.77,5.52.04,9.44,1.95,2.73,2.68,5.41.49,8.56,8.15,0,5.16-10.62,8.35-10.62-.42,2.06-.15,4.43.78,7.07.62,1.75.62,2.99-.44,4.7-2.64,4.2-6.72,13.87-6.16,22.59-2.68-.02-4.04-.66-3.11-4.32.36-1.35-.48-2.32-1.59-.66-1.22,1.84-1.82,5.01-1.82,6.36,0,7.78,9.26,9.35,12.81,7.71,10.23,9.9,30.33,7.27,37.07,3.94,5.37-2.28,16.86-8.42,16.86-19.16v-.11c0-5.85-8.62-3.93-12.81.66-1.35-7.42-2.55-14.27-3.85-21.09-.31-1.91.64-2.57,2.15-3.15,5.07-1.88,13.02-.35,12.76,6.98-.07,1.66,2.26,1.66,2.43-.04,1.53-10.97-5.89-14.14-13.67-12.85ZM318.61,616.65c-.73-3.99,4.83-11.14,11.9-18.03-1.51,4.49-.58,12.22,2.39,14.91-5.12-.03-11.21.95-14.29,3.12Z"/>
  </g>
</svg>
